G04 #@! TF.GenerationSoftware,KiCad,Pcbnew,5.1.8*
G04 #@! TF.CreationDate,2020-12-01T11:38:47+01:00*
G04 #@! TF.ProjectId,puggle-plate-bottom,70756767-6c65-42d7-906c-6174652d626f,rev?*
G04 #@! TF.SameCoordinates,Original*
G04 #@! TF.FileFunction,Copper,L2,Bot*
G04 #@! TF.FilePolarity,Positive*
%FSLAX46Y46*%
G04 Gerber Fmt 4.6, Leading zero omitted, Abs format (unit mm)*
G04 Created by KiCad (PCBNEW 5.1.8) date 2020-12-01 11:38:47*
%MOMM*%
%LPD*%
G01*
G04 APERTURE LIST*
G04 #@! TA.AperFunction,ComponentPad*
%ADD10C,4.000000*%
G04 #@! TD*
G04 #@! TA.AperFunction,NonConductor*
%ADD11C,0.254000*%
G04 #@! TD*
G04 #@! TA.AperFunction,NonConductor*
%ADD12C,0.100000*%
G04 #@! TD*
G04 APERTURE END LIST*
D10*
X147835997Y-105917220D03*
X107950000Y-120284240D03*
X185707280Y-95123000D03*
X185674000Y-57023000D03*
X129146562Y-59578774D03*
D11*
X155386403Y-33685626D02*
X159493263Y-33874634D01*
X163590472Y-34214009D01*
X167672482Y-34703291D01*
X171733814Y-35341824D01*
X175769020Y-36128750D01*
X179772667Y-37063009D01*
X183739423Y-38143358D01*
X187663908Y-39368333D01*
X191540885Y-40736299D01*
X195365092Y-42245396D01*
X199131472Y-43893630D01*
X202835607Y-45679101D01*
X205665001Y-47165077D01*
X205665000Y-102454271D01*
X205638901Y-102720449D01*
X205571684Y-102943084D01*
X205462506Y-103148417D01*
X205315522Y-103328637D01*
X205136333Y-103476876D01*
X204931761Y-103587488D01*
X204709606Y-103656257D01*
X204445655Y-103684000D01*
X187359877Y-103684000D01*
X187325000Y-103680565D01*
X187290123Y-103684000D01*
X187185816Y-103694273D01*
X187051980Y-103734872D01*
X186928637Y-103800800D01*
X186820525Y-103889525D01*
X186731800Y-103997637D01*
X186665872Y-104120980D01*
X186625273Y-104254816D01*
X186611565Y-104394000D01*
X186615001Y-104428887D01*
X186615000Y-112487271D01*
X186588901Y-112753449D01*
X186521684Y-112976084D01*
X186412506Y-113181417D01*
X186265522Y-113361637D01*
X186086333Y-113509876D01*
X185881761Y-113620488D01*
X185659606Y-113689257D01*
X185395655Y-113717000D01*
X156937123Y-113717000D01*
X156929824Y-113717719D01*
X156452785Y-113727556D01*
X156444328Y-113727908D01*
X156435825Y-113728108D01*
X152865016Y-113887186D01*
X152835341Y-113889131D01*
X149274326Y-114197599D01*
X149244758Y-114200785D01*
X145699785Y-114658102D01*
X145670377Y-114662524D01*
X142147663Y-115267888D01*
X142118466Y-115273537D01*
X138624192Y-116025886D01*
X138595257Y-116032753D01*
X138595245Y-116032756D01*
X135135554Y-116930766D01*
X135106932Y-116938839D01*
X131687867Y-117980943D01*
X131659608Y-117990207D01*
X131659593Y-117990213D01*
X128287183Y-119174572D01*
X128259337Y-119185011D01*
X124939464Y-120509560D01*
X124912079Y-120521156D01*
X121650587Y-121983564D01*
X121623712Y-121996297D01*
X121623693Y-121996307D01*
X118426318Y-123594000D01*
X118400000Y-123607847D01*
X118399980Y-123607859D01*
X115272316Y-125338042D01*
X115246601Y-125352979D01*
X115246580Y-125352992D01*
X112194114Y-127212630D01*
X112169047Y-127228630D01*
X109197111Y-129214474D01*
X109172736Y-129231510D01*
X106286566Y-131340064D01*
X106276334Y-131347874D01*
X106262926Y-131358106D01*
X103486274Y-133570777D01*
X103477266Y-133577013D01*
X98251070Y-138011930D01*
X98021917Y-138200158D01*
X97816958Y-138310056D01*
X97594566Y-138378048D01*
X97363200Y-138401550D01*
X97131669Y-138379663D01*
X96908806Y-138313225D01*
X96703090Y-138204763D01*
X96522441Y-138058477D01*
X86533886Y-125568131D01*
X86533880Y-125568121D01*
X86533763Y-125567977D01*
X86511714Y-125540405D01*
X86508470Y-125537077D01*
X86335842Y-125326917D01*
X86225944Y-125121958D01*
X86157952Y-124899566D01*
X86134450Y-124668200D01*
X86156337Y-124436670D01*
X86222775Y-124213806D01*
X86331239Y-124008087D01*
X86478373Y-123826391D01*
X90309659Y-120736645D01*
X90312363Y-120735200D01*
X90364055Y-120692777D01*
X90388852Y-120672780D01*
X90391025Y-120670644D01*
X90420475Y-120646475D01*
X90440778Y-120621735D01*
X90463597Y-120599304D01*
X90485029Y-120567815D01*
X90509200Y-120538363D01*
X90524288Y-120510136D01*
X90542291Y-120483685D01*
X90557168Y-120448621D01*
X90575128Y-120415020D01*
X90584419Y-120384391D01*
X90596916Y-120354937D01*
X90604666Y-120317646D01*
X90615727Y-120281184D01*
X90618864Y-120249334D01*
X90625375Y-120218005D01*
X90625701Y-120179913D01*
X90626000Y-120176877D01*
X90626000Y-120144982D01*
X90626572Y-120078152D01*
X90626000Y-120075142D01*
X90626000Y-120024715D01*
X105315000Y-120024715D01*
X105315000Y-120543765D01*
X105416261Y-121052841D01*
X105614893Y-121532381D01*
X105903262Y-121963955D01*
X106270285Y-122330978D01*
X106701859Y-122619347D01*
X107181399Y-122817979D01*
X107690475Y-122919240D01*
X108209525Y-122919240D01*
X108718601Y-122817979D01*
X109198141Y-122619347D01*
X109629715Y-122330978D01*
X109996738Y-121963955D01*
X110285107Y-121532381D01*
X110483739Y-121052841D01*
X110585000Y-120543765D01*
X110585000Y-120024715D01*
X110483739Y-119515639D01*
X110285107Y-119036099D01*
X109996738Y-118604525D01*
X109629715Y-118237502D01*
X109198141Y-117949133D01*
X108718601Y-117750501D01*
X108209525Y-117649240D01*
X107690475Y-117649240D01*
X107181399Y-117750501D01*
X106701859Y-117949133D01*
X106270285Y-118237502D01*
X105903262Y-118604525D01*
X105614893Y-119036099D01*
X105416261Y-119515639D01*
X105315000Y-120024715D01*
X90626000Y-120024715D01*
X90626000Y-105657695D01*
X145200997Y-105657695D01*
X145200997Y-106176745D01*
X145302258Y-106685821D01*
X145500890Y-107165361D01*
X145789259Y-107596935D01*
X146156282Y-107963958D01*
X146587856Y-108252327D01*
X147067396Y-108450959D01*
X147576472Y-108552220D01*
X148095522Y-108552220D01*
X148604598Y-108450959D01*
X149084138Y-108252327D01*
X149515712Y-107963958D01*
X149882735Y-107596935D01*
X150171104Y-107165361D01*
X150369736Y-106685821D01*
X150470997Y-106176745D01*
X150470997Y-105657695D01*
X150369736Y-105148619D01*
X150171104Y-104669079D01*
X149882735Y-104237505D01*
X149515712Y-103870482D01*
X149084138Y-103582113D01*
X148604598Y-103383481D01*
X148095522Y-103282220D01*
X147576472Y-103282220D01*
X147067396Y-103383481D01*
X146587856Y-103582113D01*
X146156282Y-103870482D01*
X145789259Y-104237505D01*
X145500890Y-104669079D01*
X145302258Y-105148619D01*
X145200997Y-105657695D01*
X90626000Y-105657695D01*
X90626000Y-94863475D01*
X183072280Y-94863475D01*
X183072280Y-95382525D01*
X183173541Y-95891601D01*
X183372173Y-96371141D01*
X183660542Y-96802715D01*
X184027565Y-97169738D01*
X184459139Y-97458107D01*
X184938679Y-97656739D01*
X185447755Y-97758000D01*
X185966805Y-97758000D01*
X186475881Y-97656739D01*
X186955421Y-97458107D01*
X187386995Y-97169738D01*
X187754018Y-96802715D01*
X188042387Y-96371141D01*
X188241019Y-95891601D01*
X188342280Y-95382525D01*
X188342280Y-94863475D01*
X188241019Y-94354399D01*
X188042387Y-93874859D01*
X187754018Y-93443285D01*
X187386995Y-93076262D01*
X186955421Y-92787893D01*
X186475881Y-92589261D01*
X185966805Y-92488000D01*
X185447755Y-92488000D01*
X184938679Y-92589261D01*
X184459139Y-92787893D01*
X184027565Y-93076262D01*
X183660542Y-93443285D01*
X183372173Y-93874859D01*
X183173541Y-94354399D01*
X183072280Y-94863475D01*
X90626000Y-94863475D01*
X90626000Y-61756728D01*
X90652098Y-61490554D01*
X90719315Y-61267919D01*
X90828495Y-61062581D01*
X90975479Y-60882361D01*
X91154668Y-60734123D01*
X91359240Y-60623511D01*
X91581397Y-60554742D01*
X91845344Y-60527000D01*
X110848446Y-60527000D01*
X110883323Y-60530435D01*
X110918200Y-60527000D01*
X111022507Y-60516727D01*
X111156343Y-60476128D01*
X111279686Y-60410200D01*
X111387798Y-60321475D01*
X111476523Y-60213363D01*
X111542451Y-60090020D01*
X111583050Y-59956184D01*
X111596758Y-59817000D01*
X111593323Y-59782123D01*
X111593323Y-59319249D01*
X126511562Y-59319249D01*
X126511562Y-59838299D01*
X126612823Y-60347375D01*
X126811455Y-60826915D01*
X127099824Y-61258489D01*
X127466847Y-61625512D01*
X127898421Y-61913881D01*
X128377961Y-62112513D01*
X128887037Y-62213774D01*
X129406087Y-62213774D01*
X129915163Y-62112513D01*
X130394703Y-61913881D01*
X130826277Y-61625512D01*
X131193300Y-61258489D01*
X131481669Y-60826915D01*
X131680301Y-60347375D01*
X131781562Y-59838299D01*
X131781562Y-59319249D01*
X131680301Y-58810173D01*
X131481669Y-58330633D01*
X131193300Y-57899059D01*
X130826277Y-57532036D01*
X130394703Y-57243667D01*
X129915163Y-57045035D01*
X129406087Y-56943774D01*
X128887037Y-56943774D01*
X128377961Y-57045035D01*
X127898421Y-57243667D01*
X127466847Y-57532036D01*
X127099824Y-57899059D01*
X126811455Y-58330633D01*
X126612823Y-58810173D01*
X126511562Y-59319249D01*
X111593323Y-59319249D01*
X111593323Y-56763475D01*
X183039000Y-56763475D01*
X183039000Y-57282525D01*
X183140261Y-57791601D01*
X183338893Y-58271141D01*
X183627262Y-58702715D01*
X183994285Y-59069738D01*
X184425859Y-59358107D01*
X184905399Y-59556739D01*
X185414475Y-59658000D01*
X185933525Y-59658000D01*
X186442601Y-59556739D01*
X186922141Y-59358107D01*
X187353715Y-59069738D01*
X187720738Y-58702715D01*
X188009107Y-58271141D01*
X188207739Y-57791601D01*
X188309000Y-57282525D01*
X188309000Y-56763475D01*
X188207739Y-56254399D01*
X188009107Y-55774859D01*
X187720738Y-55343285D01*
X187353715Y-54976262D01*
X186922141Y-54687893D01*
X186442601Y-54489261D01*
X185933525Y-54388000D01*
X185414475Y-54388000D01*
X184905399Y-54489261D01*
X184425859Y-54687893D01*
X183994285Y-54976262D01*
X183627262Y-55343285D01*
X183338893Y-55774859D01*
X183140261Y-56254399D01*
X183039000Y-56763475D01*
X111593323Y-56763475D01*
X111593323Y-41291126D01*
X114995491Y-40021479D01*
X118897354Y-38726151D01*
X122844020Y-37574686D01*
X126830251Y-36568608D01*
X130850653Y-35709280D01*
X134899877Y-34997846D01*
X138972408Y-34435274D01*
X143062840Y-34022310D01*
X147165665Y-33759512D01*
X151275347Y-33647234D01*
X155386403Y-33685626D01*
G04 #@! TA.AperFunction,NonConductor*
D12*
G36*
X155386403Y-33685626D02*
G01*
X159493263Y-33874634D01*
X163590472Y-34214009D01*
X167672482Y-34703291D01*
X171733814Y-35341824D01*
X175769020Y-36128750D01*
X179772667Y-37063009D01*
X183739423Y-38143358D01*
X187663908Y-39368333D01*
X191540885Y-40736299D01*
X195365092Y-42245396D01*
X199131472Y-43893630D01*
X202835607Y-45679101D01*
X205665001Y-47165077D01*
X205665000Y-102454271D01*
X205638901Y-102720449D01*
X205571684Y-102943084D01*
X205462506Y-103148417D01*
X205315522Y-103328637D01*
X205136333Y-103476876D01*
X204931761Y-103587488D01*
X204709606Y-103656257D01*
X204445655Y-103684000D01*
X187359877Y-103684000D01*
X187325000Y-103680565D01*
X187290123Y-103684000D01*
X187185816Y-103694273D01*
X187051980Y-103734872D01*
X186928637Y-103800800D01*
X186820525Y-103889525D01*
X186731800Y-103997637D01*
X186665872Y-104120980D01*
X186625273Y-104254816D01*
X186611565Y-104394000D01*
X186615001Y-104428887D01*
X186615000Y-112487271D01*
X186588901Y-112753449D01*
X186521684Y-112976084D01*
X186412506Y-113181417D01*
X186265522Y-113361637D01*
X186086333Y-113509876D01*
X185881761Y-113620488D01*
X185659606Y-113689257D01*
X185395655Y-113717000D01*
X156937123Y-113717000D01*
X156929824Y-113717719D01*
X156452785Y-113727556D01*
X156444328Y-113727908D01*
X156435825Y-113728108D01*
X152865016Y-113887186D01*
X152835341Y-113889131D01*
X149274326Y-114197599D01*
X149244758Y-114200785D01*
X145699785Y-114658102D01*
X145670377Y-114662524D01*
X142147663Y-115267888D01*
X142118466Y-115273537D01*
X138624192Y-116025886D01*
X138595257Y-116032753D01*
X138595245Y-116032756D01*
X135135554Y-116930766D01*
X135106932Y-116938839D01*
X131687867Y-117980943D01*
X131659608Y-117990207D01*
X131659593Y-117990213D01*
X128287183Y-119174572D01*
X128259337Y-119185011D01*
X124939464Y-120509560D01*
X124912079Y-120521156D01*
X121650587Y-121983564D01*
X121623712Y-121996297D01*
X121623693Y-121996307D01*
X118426318Y-123594000D01*
X118400000Y-123607847D01*
X118399980Y-123607859D01*
X115272316Y-125338042D01*
X115246601Y-125352979D01*
X115246580Y-125352992D01*
X112194114Y-127212630D01*
X112169047Y-127228630D01*
X109197111Y-129214474D01*
X109172736Y-129231510D01*
X106286566Y-131340064D01*
X106276334Y-131347874D01*
X106262926Y-131358106D01*
X103486274Y-133570777D01*
X103477266Y-133577013D01*
X98251070Y-138011930D01*
X98021917Y-138200158D01*
X97816958Y-138310056D01*
X97594566Y-138378048D01*
X97363200Y-138401550D01*
X97131669Y-138379663D01*
X96908806Y-138313225D01*
X96703090Y-138204763D01*
X96522441Y-138058477D01*
X86533886Y-125568131D01*
X86533880Y-125568121D01*
X86533763Y-125567977D01*
X86511714Y-125540405D01*
X86508470Y-125537077D01*
X86335842Y-125326917D01*
X86225944Y-125121958D01*
X86157952Y-124899566D01*
X86134450Y-124668200D01*
X86156337Y-124436670D01*
X86222775Y-124213806D01*
X86331239Y-124008087D01*
X86478373Y-123826391D01*
X90309659Y-120736645D01*
X90312363Y-120735200D01*
X90364055Y-120692777D01*
X90388852Y-120672780D01*
X90391025Y-120670644D01*
X90420475Y-120646475D01*
X90440778Y-120621735D01*
X90463597Y-120599304D01*
X90485029Y-120567815D01*
X90509200Y-120538363D01*
X90524288Y-120510136D01*
X90542291Y-120483685D01*
X90557168Y-120448621D01*
X90575128Y-120415020D01*
X90584419Y-120384391D01*
X90596916Y-120354937D01*
X90604666Y-120317646D01*
X90615727Y-120281184D01*
X90618864Y-120249334D01*
X90625375Y-120218005D01*
X90625701Y-120179913D01*
X90626000Y-120176877D01*
X90626000Y-120144982D01*
X90626572Y-120078152D01*
X90626000Y-120075142D01*
X90626000Y-120024715D01*
X105315000Y-120024715D01*
X105315000Y-120543765D01*
X105416261Y-121052841D01*
X105614893Y-121532381D01*
X105903262Y-121963955D01*
X106270285Y-122330978D01*
X106701859Y-122619347D01*
X107181399Y-122817979D01*
X107690475Y-122919240D01*
X108209525Y-122919240D01*
X108718601Y-122817979D01*
X109198141Y-122619347D01*
X109629715Y-122330978D01*
X109996738Y-121963955D01*
X110285107Y-121532381D01*
X110483739Y-121052841D01*
X110585000Y-120543765D01*
X110585000Y-120024715D01*
X110483739Y-119515639D01*
X110285107Y-119036099D01*
X109996738Y-118604525D01*
X109629715Y-118237502D01*
X109198141Y-117949133D01*
X108718601Y-117750501D01*
X108209525Y-117649240D01*
X107690475Y-117649240D01*
X107181399Y-117750501D01*
X106701859Y-117949133D01*
X106270285Y-118237502D01*
X105903262Y-118604525D01*
X105614893Y-119036099D01*
X105416261Y-119515639D01*
X105315000Y-120024715D01*
X90626000Y-120024715D01*
X90626000Y-105657695D01*
X145200997Y-105657695D01*
X145200997Y-106176745D01*
X145302258Y-106685821D01*
X145500890Y-107165361D01*
X145789259Y-107596935D01*
X146156282Y-107963958D01*
X146587856Y-108252327D01*
X147067396Y-108450959D01*
X147576472Y-108552220D01*
X148095522Y-108552220D01*
X148604598Y-108450959D01*
X149084138Y-108252327D01*
X149515712Y-107963958D01*
X149882735Y-107596935D01*
X150171104Y-107165361D01*
X150369736Y-106685821D01*
X150470997Y-106176745D01*
X150470997Y-105657695D01*
X150369736Y-105148619D01*
X150171104Y-104669079D01*
X149882735Y-104237505D01*
X149515712Y-103870482D01*
X149084138Y-103582113D01*
X148604598Y-103383481D01*
X148095522Y-103282220D01*
X147576472Y-103282220D01*
X147067396Y-103383481D01*
X146587856Y-103582113D01*
X146156282Y-103870482D01*
X145789259Y-104237505D01*
X145500890Y-104669079D01*
X145302258Y-105148619D01*
X145200997Y-105657695D01*
X90626000Y-105657695D01*
X90626000Y-94863475D01*
X183072280Y-94863475D01*
X183072280Y-95382525D01*
X183173541Y-95891601D01*
X183372173Y-96371141D01*
X183660542Y-96802715D01*
X184027565Y-97169738D01*
X184459139Y-97458107D01*
X184938679Y-97656739D01*
X185447755Y-97758000D01*
X185966805Y-97758000D01*
X186475881Y-97656739D01*
X186955421Y-97458107D01*
X187386995Y-97169738D01*
X187754018Y-96802715D01*
X188042387Y-96371141D01*
X188241019Y-95891601D01*
X188342280Y-95382525D01*
X188342280Y-94863475D01*
X188241019Y-94354399D01*
X188042387Y-93874859D01*
X187754018Y-93443285D01*
X187386995Y-93076262D01*
X186955421Y-92787893D01*
X186475881Y-92589261D01*
X185966805Y-92488000D01*
X185447755Y-92488000D01*
X184938679Y-92589261D01*
X184459139Y-92787893D01*
X184027565Y-93076262D01*
X183660542Y-93443285D01*
X183372173Y-93874859D01*
X183173541Y-94354399D01*
X183072280Y-94863475D01*
X90626000Y-94863475D01*
X90626000Y-61756728D01*
X90652098Y-61490554D01*
X90719315Y-61267919D01*
X90828495Y-61062581D01*
X90975479Y-60882361D01*
X91154668Y-60734123D01*
X91359240Y-60623511D01*
X91581397Y-60554742D01*
X91845344Y-60527000D01*
X110848446Y-60527000D01*
X110883323Y-60530435D01*
X110918200Y-60527000D01*
X111022507Y-60516727D01*
X111156343Y-60476128D01*
X111279686Y-60410200D01*
X111387798Y-60321475D01*
X111476523Y-60213363D01*
X111542451Y-60090020D01*
X111583050Y-59956184D01*
X111596758Y-59817000D01*
X111593323Y-59782123D01*
X111593323Y-59319249D01*
X126511562Y-59319249D01*
X126511562Y-59838299D01*
X126612823Y-60347375D01*
X126811455Y-60826915D01*
X127099824Y-61258489D01*
X127466847Y-61625512D01*
X127898421Y-61913881D01*
X128377961Y-62112513D01*
X128887037Y-62213774D01*
X129406087Y-62213774D01*
X129915163Y-62112513D01*
X130394703Y-61913881D01*
X130826277Y-61625512D01*
X131193300Y-61258489D01*
X131481669Y-60826915D01*
X131680301Y-60347375D01*
X131781562Y-59838299D01*
X131781562Y-59319249D01*
X131680301Y-58810173D01*
X131481669Y-58330633D01*
X131193300Y-57899059D01*
X130826277Y-57532036D01*
X130394703Y-57243667D01*
X129915163Y-57045035D01*
X129406087Y-56943774D01*
X128887037Y-56943774D01*
X128377961Y-57045035D01*
X127898421Y-57243667D01*
X127466847Y-57532036D01*
X127099824Y-57899059D01*
X126811455Y-58330633D01*
X126612823Y-58810173D01*
X126511562Y-59319249D01*
X111593323Y-59319249D01*
X111593323Y-56763475D01*
X183039000Y-56763475D01*
X183039000Y-57282525D01*
X183140261Y-57791601D01*
X183338893Y-58271141D01*
X183627262Y-58702715D01*
X183994285Y-59069738D01*
X184425859Y-59358107D01*
X184905399Y-59556739D01*
X185414475Y-59658000D01*
X185933525Y-59658000D01*
X186442601Y-59556739D01*
X186922141Y-59358107D01*
X187353715Y-59069738D01*
X187720738Y-58702715D01*
X188009107Y-58271141D01*
X188207739Y-57791601D01*
X188309000Y-57282525D01*
X188309000Y-56763475D01*
X188207739Y-56254399D01*
X188009107Y-55774859D01*
X187720738Y-55343285D01*
X187353715Y-54976262D01*
X186922141Y-54687893D01*
X186442601Y-54489261D01*
X185933525Y-54388000D01*
X185414475Y-54388000D01*
X184905399Y-54489261D01*
X184425859Y-54687893D01*
X183994285Y-54976262D01*
X183627262Y-55343285D01*
X183338893Y-55774859D01*
X183140261Y-56254399D01*
X183039000Y-56763475D01*
X111593323Y-56763475D01*
X111593323Y-41291126D01*
X114995491Y-40021479D01*
X118897354Y-38726151D01*
X122844020Y-37574686D01*
X126830251Y-36568608D01*
X130850653Y-35709280D01*
X134899877Y-34997846D01*
X138972408Y-34435274D01*
X143062840Y-34022310D01*
X147165665Y-33759512D01*
X151275347Y-33647234D01*
X155386403Y-33685626D01*
G37*
G04 #@! TD.AperFunction*
M02*
