M48
; DRILL file {KiCad 5.1.8} date Tue Dec  1 13:34:04 2020
; FORMAT={-:-/ absolute / inch / decimal}
; #@! TF.CreationDate,2020-12-01T13:34:04+01:00
; #@! TF.GenerationSoftware,Kicad,Pcbnew,5.1.8
; #@! TF.FileFunction,Plated,1,2,PTH
FMAT,2
INCH
T1C0.0118
T2C0.0157
T3C0.0394
T4C0.0430
T5C0.0512
T6C0.1614
%
G90
G05
T1
X3.5006Y-5.015
X4.04Y-4.61
X4.215Y-4.48
X4.41Y-1.765
X4.4103Y-3.2697
X4.4127Y-2.5177
X4.8382Y-4.1968
X5.03Y-4.13
X5.0727Y-2.5177
X5.0777Y-1.7677
X5.0797Y-3.2697
X5.155Y-2.455
X5.1557Y-1.6693
X5.1563Y-3.1713
X5.6888Y-3.9588
X5.8237Y-3.1713
X5.8243Y-1.6693
X5.8243Y-2.4193
X5.9063Y-1.5713
X5.9063Y-2.3213
X5.9072Y-3.0728
X5.9087Y-3.9213
X6.5728Y-3.0728
X6.5737Y-1.5713
X6.5737Y-2.3213
X6.5763Y-3.9213
X6.65Y-3.92
X6.6507Y-1.6693
X6.6507Y-2.4193
X6.6523Y-3.1673
X7.3223Y-3.1673
X7.3243Y-1.6693
X7.3243Y-2.4193
X7.3243Y-3.9193
X7.4014Y-2.7736
X7.4023Y-3.5177
X7.4036Y-2.0236
X8.0677Y-3.5177
X8.0686Y-2.0236
X8.0686Y-2.7736
T2
X6.1732Y-2.087
X6.3071Y-2.087
X6.1732Y-3.5886
X6.3071Y-3.5886
X6.1752Y-3.8071
X6.3091Y-3.8071
X7.6693Y-3.4035
X7.8031Y-3.4035
X6.1732Y-2.2071
X6.3071Y-2.2071
X4.6772Y-2.4035
X4.811Y-2.4035
X6.9213Y-2.3051
X7.0551Y-2.3051
X5.4252Y-2.3051
X5.5591Y-2.3051
X5.4252Y-2.185
X5.5591Y-2.185
X4.6772Y-3.7854
X4.811Y-3.7854
X5.4252Y-3.687
X5.5591Y-3.687
X6.9213Y-3.6831
X7.0551Y-3.6831
X7.6693Y-2.6594
X7.8031Y-2.6594
X6.9213Y-2.185
X7.0551Y-2.185
X6.9213Y-3.8051
X7.0551Y-3.8051
X4.6772Y-2.2835
X4.811Y-2.2835
X3.6319Y-4.7551
X3.736Y-4.6709
X4.4Y-4.2478
X4.5203Y-4.1891
X5.2625Y-3.9263
X5.3929Y-3.8962
X7.6693Y-1.9094
X7.8031Y-1.9094
T4
X3.628Y-2.5125
X3.628Y-2.7125
X3.628Y-2.9125
X3.628Y-3.1125
X3.628Y-3.3125
X3.628Y-3.5125
X3.646Y-2.6125
X3.646Y-2.8125
X3.646Y-3.0125
X3.646Y-3.2125
X3.646Y-3.4125
X3.646Y-3.6125
X4.228Y-2.6125
X4.228Y-2.8125
X4.228Y-3.0125
X4.228Y-3.2125
X4.228Y-3.4125
X4.228Y-3.6125
X4.246Y-2.5125
X4.246Y-2.7125
X4.246Y-2.9125
X4.246Y-3.1125
X4.246Y-3.3125
X4.246Y-3.5125
T5
X3.66Y-4.167
X3.66Y-4.423
T6
X7.31Y-3.745
X5.82Y-4.17
X5.085Y-2.345
X4.25Y-4.735
X7.31Y-2.245
T3
G00X3.7001Y-3.7673
M15
G01X3.7198Y-3.7673
M16
G05
G00X3.7001Y-4.0016
M15
G01X3.7198Y-4.0016
M16
G05
G00X3.8182Y-3.7673
M15
G01X3.8379Y-3.7673
M16
G05
G00X3.8182Y-4.0016
M15
G01X3.8379Y-4.0016
M16
G05
G00X3.9757Y-3.7673
M15
G01X3.9954Y-3.7673
M16
G05
G00X3.9757Y-4.0016
M15
G01X3.9954Y-4.0016
M16
G05
G00X4.0347Y-3.8362
M15
G01X4.0544Y-3.8362
M16
G05
G00X4.0347Y-3.9327
M15
G01X4.0544Y-3.9327
M16
G05
T0
M30
