G04 #@! TF.GenerationSoftware,KiCad,Pcbnew,5.1.8*
G04 #@! TF.CreationDate,2020-12-01T11:33:55+01:00*
G04 #@! TF.ProjectId,puggle,70756767-6c65-42e6-9b69-6361645f7063,rev?*
G04 #@! TF.SameCoordinates,Original*
G04 #@! TF.FileFunction,Legend,Bot*
G04 #@! TF.FilePolarity,Positive*
%FSLAX46Y46*%
G04 Gerber Fmt 4.6, Leading zero omitted, Abs format (unit mm)*
G04 Created by KiCad (PCBNEW 5.1.8) date 2020-12-01 11:33:55*
%MOMM*%
%LPD*%
G01*
G04 APERTURE LIST*
%ADD10C,0.150000*%
%ADD11C,0.381000*%
G04 APERTURE END LIST*
D10*
X94764000Y-106093000D02*
X94764000Y-111993000D01*
X94764000Y-106093000D02*
X94764000Y-112093000D01*
X91264000Y-112093000D02*
X91264000Y-106093000D01*
X94764000Y-112093000D02*
X94064000Y-112093000D01*
X91264000Y-112093000D02*
X91864000Y-112093000D01*
X91264000Y-106093000D02*
X91864000Y-106093000D01*
X94764000Y-106093000D02*
X94064000Y-106093000D01*
X102932000Y-102540000D02*
X90932000Y-102540000D01*
X102932000Y-96540000D02*
X102932000Y-102540000D01*
X90932000Y-96540000D02*
X102932000Y-96540000D01*
X90932000Y-102540000D02*
X90932000Y-96540000D01*
D11*
X93650000Y-62547500D02*
X91110000Y-62547500D01*
X108890000Y-60007500D02*
X91110000Y-60007500D01*
X91110000Y-60007500D02*
X91110000Y-93027500D01*
X91110000Y-93027500D02*
X108890000Y-93027500D01*
X108890000Y-93027500D02*
X108890000Y-60007500D01*
D10*
G36*
X105844635Y-68436530D02*
G01*
X105844635Y-68536530D01*
X106344635Y-68536530D01*
X106344635Y-68436530D01*
X105844635Y-68436530D01*
G37*
X105844635Y-68436530D02*
X105844635Y-68536530D01*
X106344635Y-68536530D01*
X106344635Y-68436530D01*
X105844635Y-68436530D01*
G36*
X105844635Y-68436530D02*
G01*
X105844635Y-68736530D01*
X105944635Y-68736530D01*
X105944635Y-68436530D01*
X105844635Y-68436530D01*
G37*
X105844635Y-68436530D02*
X105844635Y-68736530D01*
X105944635Y-68736530D01*
X105944635Y-68436530D01*
X105844635Y-68436530D01*
G36*
X105844635Y-69036530D02*
G01*
X105844635Y-69236530D01*
X105944635Y-69236530D01*
X105944635Y-69036530D01*
X105844635Y-69036530D01*
G37*
X105844635Y-69036530D02*
X105844635Y-69236530D01*
X105944635Y-69236530D01*
X105944635Y-69036530D01*
X105844635Y-69036530D01*
G36*
X106244635Y-68436530D02*
G01*
X106244635Y-69236530D01*
X106344635Y-69236530D01*
X106344635Y-68436530D01*
X106244635Y-68436530D01*
G37*
X106244635Y-68436530D02*
X106244635Y-69236530D01*
X106344635Y-69236530D01*
X106344635Y-68436530D01*
X106244635Y-68436530D01*
G36*
X106044635Y-68836530D02*
G01*
X106044635Y-68936530D01*
X106144635Y-68936530D01*
X106144635Y-68836530D01*
X106044635Y-68836530D01*
G37*
X106044635Y-68836530D02*
X106044635Y-68936530D01*
X106144635Y-68936530D01*
X106144635Y-68836530D01*
X106044635Y-68836530D01*
D11*
X93650000Y-62547500D02*
X93650000Y-65087500D01*
X93650000Y-65087500D02*
X91110000Y-65087500D01*
D10*
X182300000Y-101800000D02*
X177250000Y-101846000D01*
X182300000Y-101754000D02*
X182300000Y-97846000D01*
X182300000Y-97846000D02*
X173675000Y-97846000D01*
X171400000Y-99800000D02*
X171400000Y-103745000D01*
X171400000Y-103754000D02*
X175010000Y-103754000D01*
X175015001Y-103729999D02*
G75*
G02*
X177275000Y-101850000I2069999J-190000D01*
G01*
X171411000Y-99730000D02*
G75*
G02*
X173675000Y-97846000I2074000J-190000D01*
G01*
X152450000Y-103804000D02*
X156060000Y-103804000D01*
X152450000Y-99850000D02*
X152450000Y-103795000D01*
X163350000Y-97896000D02*
X154725000Y-97896000D01*
X163350000Y-101804000D02*
X163350000Y-97896000D01*
X163350000Y-101850000D02*
X158300000Y-101896000D01*
X152461000Y-99780000D02*
G75*
G02*
X154725000Y-97896000I2074000J-190000D01*
G01*
X156065001Y-103779999D02*
G75*
G02*
X158325000Y-101900000I2069999J-190000D01*
G01*
X141159278Y-103284531D02*
X136249057Y-104465355D01*
X141148930Y-103239710D02*
X140269821Y-99431872D01*
X140269821Y-99431872D02*
X131865880Y-101372075D01*
X130088742Y-103787758D02*
X130976174Y-107631648D01*
X130978198Y-107640417D02*
X134495674Y-106828344D01*
X134495148Y-106803833D02*
G75*
G02*
X136274316Y-104463629I2059686J280518D01*
G01*
X130083714Y-103717077D02*
G75*
G02*
X131865880Y-101372075I2063584J281418D01*
G01*
X119860002Y-109674122D02*
X115341257Y-111929241D01*
X119839837Y-109632778D02*
X118126682Y-106120291D01*
X118126682Y-106120291D02*
X110374583Y-109901242D01*
X109186404Y-112654780D02*
X110915778Y-116200522D01*
X110919724Y-116208612D02*
X114164370Y-114626092D01*
X114158344Y-114602327D02*
G75*
G02*
X115365480Y-111921877I1943793J736657D01*
G01*
X109165605Y-112587042D02*
G75*
G02*
X110374583Y-109901242I1947389J738411D01*
G01*
X100543971Y-120691243D02*
X96648332Y-123905060D01*
X100515022Y-120655494D02*
X98055638Y-117618408D01*
X98055638Y-117618408D02*
X91352754Y-123046296D01*
X90814439Y-125996543D02*
X93297108Y-129062384D01*
X93302772Y-129069379D02*
X96108268Y-126797532D01*
X96097050Y-126775733D02*
G75*
G02*
X96670278Y-123892435I1728263J1155035D01*
G01*
X90778935Y-125935221D02*
G75*
G02*
X91352754Y-123046296I1731372J1157553D01*
G01*
X201300000Y-91600000D02*
X196250000Y-91646000D01*
X201300000Y-91554000D02*
X201300000Y-87646000D01*
X201300000Y-87646000D02*
X192675000Y-87646000D01*
X190400000Y-89600000D02*
X190400000Y-93545000D01*
X190400000Y-93554000D02*
X194010000Y-93554000D01*
X194015001Y-93529999D02*
G75*
G02*
X196275000Y-91650000I2069999J-190000D01*
G01*
X190411000Y-89530000D02*
G75*
G02*
X192675000Y-87646000I2074000J-190000D01*
G01*
X182300000Y-82700000D02*
X177250000Y-82746000D01*
X182300000Y-82654000D02*
X182300000Y-78746000D01*
X182300000Y-78746000D02*
X173675000Y-78746000D01*
X171400000Y-80700000D02*
X171400000Y-84645000D01*
X171400000Y-84654000D02*
X175010000Y-84654000D01*
X175015001Y-84629999D02*
G75*
G02*
X177275000Y-82750000I2069999J-190000D01*
G01*
X171411000Y-80630000D02*
G75*
G02*
X173675000Y-78746000I2074000J-190000D01*
G01*
X163300000Y-80300000D02*
X158250000Y-80346000D01*
X163300000Y-80254000D02*
X163300000Y-76346000D01*
X163300000Y-76346000D02*
X154675000Y-76346000D01*
X152400000Y-78300000D02*
X152400000Y-82245000D01*
X152400000Y-82254000D02*
X156010000Y-82254000D01*
X156015001Y-82229999D02*
G75*
G02*
X158275000Y-80350000I2069999J-190000D01*
G01*
X152411000Y-78230000D02*
G75*
G02*
X154675000Y-76346000I2074000J-190000D01*
G01*
X144300000Y-82800000D02*
X139250000Y-82846000D01*
X144300000Y-82754000D02*
X144300000Y-78846000D01*
X144300000Y-78846000D02*
X135675000Y-78846000D01*
X133400000Y-80800000D02*
X133400000Y-84745000D01*
X133400000Y-84754000D02*
X137010000Y-84754000D01*
X137015001Y-84729999D02*
G75*
G02*
X139275000Y-82850000I2069999J-190000D01*
G01*
X133411000Y-80730000D02*
G75*
G02*
X135675000Y-78846000I2074000J-190000D01*
G01*
X125300000Y-85300000D02*
X120250000Y-85346000D01*
X125300000Y-85254000D02*
X125300000Y-81346000D01*
X125300000Y-81346000D02*
X116675000Y-81346000D01*
X114400000Y-83300000D02*
X114400000Y-87245000D01*
X114400000Y-87254000D02*
X118010000Y-87254000D01*
X118015001Y-87229999D02*
G75*
G02*
X120275000Y-85350000I2069999J-190000D01*
G01*
X114411000Y-83230000D02*
G75*
G02*
X116675000Y-81346000I2074000J-190000D01*
G01*
X201300000Y-72700000D02*
X196250000Y-72746000D01*
X201300000Y-72654000D02*
X201300000Y-68746000D01*
X201300000Y-68746000D02*
X192675000Y-68746000D01*
X190400000Y-70700000D02*
X190400000Y-74645000D01*
X190400000Y-74654000D02*
X194010000Y-74654000D01*
X194015001Y-74629999D02*
G75*
G02*
X196275000Y-72750000I2069999J-190000D01*
G01*
X190411000Y-70630000D02*
G75*
G02*
X192675000Y-68746000I2074000J-190000D01*
G01*
X182300000Y-63700000D02*
X177250000Y-63746000D01*
X182300000Y-63654000D02*
X182300000Y-59746000D01*
X182300000Y-59746000D02*
X173675000Y-59746000D01*
X171400000Y-61700000D02*
X171400000Y-65645000D01*
X171400000Y-65654000D02*
X175010000Y-65654000D01*
X175015001Y-65629999D02*
G75*
G02*
X177275000Y-63750000I2069999J-190000D01*
G01*
X171411000Y-61630000D02*
G75*
G02*
X173675000Y-59746000I2074000J-190000D01*
G01*
X163300000Y-61210000D02*
X158250000Y-61256000D01*
X163300000Y-61164000D02*
X163300000Y-57256000D01*
X163300000Y-57256000D02*
X154675000Y-57256000D01*
X152400000Y-59210000D02*
X152400000Y-63155000D01*
X152400000Y-63164000D02*
X156010000Y-63164000D01*
X156015001Y-63139999D02*
G75*
G02*
X158275000Y-61260000I2069999J-190000D01*
G01*
X152411000Y-59140000D02*
G75*
G02*
X154675000Y-57256000I2074000J-190000D01*
G01*
X144300000Y-63700000D02*
X139250000Y-63746000D01*
X144300000Y-63654000D02*
X144300000Y-59746000D01*
X144300000Y-59746000D02*
X135675000Y-59746000D01*
X133400000Y-61700000D02*
X133400000Y-65645000D01*
X133400000Y-65654000D02*
X137010000Y-65654000D01*
X137015001Y-65629999D02*
G75*
G02*
X139275000Y-63750000I2069999J-190000D01*
G01*
X133411000Y-61630000D02*
G75*
G02*
X135675000Y-59746000I2074000J-190000D01*
G01*
X125300000Y-66200000D02*
X120250000Y-66246000D01*
X125300000Y-66154000D02*
X125300000Y-62246000D01*
X125300000Y-62246000D02*
X116675000Y-62246000D01*
X114400000Y-64200000D02*
X114400000Y-68145000D01*
X114400000Y-68154000D02*
X118010000Y-68154000D01*
X118015001Y-68129999D02*
G75*
G02*
X120275000Y-66250000I2069999J-190000D01*
G01*
X114411000Y-64130000D02*
G75*
G02*
X116675000Y-62246000I2074000J-190000D01*
G01*
X201300000Y-53650000D02*
X196250000Y-53696000D01*
X201300000Y-53604000D02*
X201300000Y-49696000D01*
X201300000Y-49696000D02*
X192675000Y-49696000D01*
X190400000Y-51650000D02*
X190400000Y-55595000D01*
X190400000Y-55604000D02*
X194010000Y-55604000D01*
X194015001Y-55579999D02*
G75*
G02*
X196275000Y-53700000I2069999J-190000D01*
G01*
X190411000Y-51580000D02*
G75*
G02*
X192675000Y-49696000I2074000J-190000D01*
G01*
X182300000Y-44650000D02*
X177250000Y-44696000D01*
X182300000Y-44604000D02*
X182300000Y-40696000D01*
X182300000Y-40696000D02*
X173675000Y-40696000D01*
X171400000Y-42650000D02*
X171400000Y-46595000D01*
X171400000Y-46604000D02*
X175010000Y-46604000D01*
X175015001Y-46579999D02*
G75*
G02*
X177275000Y-44700000I2069999J-190000D01*
G01*
X171411000Y-42580000D02*
G75*
G02*
X173675000Y-40696000I2074000J-190000D01*
G01*
X163300000Y-42160000D02*
X158250000Y-42206000D01*
X163300000Y-42114000D02*
X163300000Y-38206000D01*
X163300000Y-38206000D02*
X154675000Y-38206000D01*
X152400000Y-40160000D02*
X152400000Y-44105000D01*
X152400000Y-44114000D02*
X156010000Y-44114000D01*
X156015001Y-44089999D02*
G75*
G02*
X158275000Y-42210000I2069999J-190000D01*
G01*
X152411000Y-40090000D02*
G75*
G02*
X154675000Y-38206000I2074000J-190000D01*
G01*
X144300000Y-44650000D02*
X139250000Y-44696000D01*
X144300000Y-44604000D02*
X144300000Y-40696000D01*
X144300000Y-40696000D02*
X135675000Y-40696000D01*
X133400000Y-42650000D02*
X133400000Y-46595000D01*
X133400000Y-46604000D02*
X137010000Y-46604000D01*
X137015001Y-46579999D02*
G75*
G02*
X139275000Y-44700000I2069999J-190000D01*
G01*
X133411000Y-42580000D02*
G75*
G02*
X135675000Y-40696000I2074000J-190000D01*
G01*
X125300000Y-47150000D02*
X120250000Y-47196000D01*
X125300000Y-47104000D02*
X125300000Y-43196000D01*
X125300000Y-43196000D02*
X116675000Y-43196000D01*
X114400000Y-45150000D02*
X114400000Y-49095000D01*
X114400000Y-49104000D02*
X118010000Y-49104000D01*
X118015001Y-49079999D02*
G75*
G02*
X120275000Y-47200000I2069999J-190000D01*
G01*
X114411000Y-45080000D02*
G75*
G02*
X116675000Y-43196000I2074000J-190000D01*
G01*
X177000000Y-95950000D02*
X177000000Y-97350000D01*
X177900000Y-97350000D02*
X177000000Y-96650000D01*
X177900000Y-95950000D02*
X177900000Y-97350000D01*
X177000000Y-96650000D02*
X177900000Y-95950000D01*
X158050000Y-96700000D02*
X158950000Y-96000000D01*
X158950000Y-96000000D02*
X158950000Y-97400000D01*
X158950000Y-97400000D02*
X158050000Y-96700000D01*
X158050000Y-96000000D02*
X158050000Y-97400000D01*
X134679153Y-98776707D02*
X134994085Y-100140826D01*
X135871018Y-99938370D02*
X134836619Y-99458767D01*
X135556086Y-98574252D02*
X135871018Y-99938370D01*
X134836619Y-99458767D02*
X135556086Y-98574252D01*
X112531922Y-106739545D02*
X113145642Y-107997856D01*
X113954556Y-107603322D02*
X112838782Y-107368701D01*
X113340837Y-106345011D02*
X113954556Y-107603322D01*
X112838782Y-107368701D02*
X113340837Y-106345011D01*
X92743573Y-119480337D02*
X93624621Y-120568341D01*
X94324053Y-120001953D02*
X93184097Y-120024339D01*
X93443004Y-118913949D02*
X94324053Y-120001953D01*
X93184097Y-120024339D02*
X93443004Y-118913949D01*
X196000000Y-85750000D02*
X196000000Y-87150000D01*
X196900000Y-87150000D02*
X196000000Y-86450000D01*
X196900000Y-85750000D02*
X196900000Y-87150000D01*
X196000000Y-86450000D02*
X196900000Y-85750000D01*
X177000000Y-92850000D02*
X177000000Y-94250000D01*
X177900000Y-94250000D02*
X177000000Y-93550000D01*
X177900000Y-92850000D02*
X177900000Y-94250000D01*
X177000000Y-93550000D02*
X177900000Y-92850000D01*
X158000000Y-90450000D02*
X158000000Y-91850000D01*
X158900000Y-91850000D02*
X158000000Y-91150000D01*
X158900000Y-90450000D02*
X158900000Y-91850000D01*
X158000000Y-91150000D02*
X158900000Y-90450000D01*
X139000000Y-92950000D02*
X139000000Y-94350000D01*
X139900000Y-94350000D02*
X139000000Y-93650000D01*
X139900000Y-92950000D02*
X139900000Y-94350000D01*
X139000000Y-93650000D02*
X139900000Y-92950000D01*
X120000000Y-95450000D02*
X120000000Y-96850000D01*
X120900000Y-96850000D02*
X120000000Y-96150000D01*
X120900000Y-95450000D02*
X120900000Y-96850000D01*
X120000000Y-96150000D02*
X120900000Y-95450000D01*
X196000000Y-66850000D02*
X196000000Y-68250000D01*
X196900000Y-68250000D02*
X196000000Y-67550000D01*
X196900000Y-66850000D02*
X196900000Y-68250000D01*
X196000000Y-67550000D02*
X196900000Y-66850000D01*
X177000000Y-57850000D02*
X177000000Y-59250000D01*
X177900000Y-59250000D02*
X177000000Y-58550000D01*
X177900000Y-57850000D02*
X177900000Y-59250000D01*
X177000000Y-58550000D02*
X177900000Y-57850000D01*
X158000000Y-55360000D02*
X158000000Y-56760000D01*
X158900000Y-56760000D02*
X158000000Y-56060000D01*
X158900000Y-55360000D02*
X158900000Y-56760000D01*
X158000000Y-56060000D02*
X158900000Y-55360000D01*
X139000000Y-57850000D02*
X139000000Y-59250000D01*
X139900000Y-59250000D02*
X139000000Y-58550000D01*
X139900000Y-57850000D02*
X139900000Y-59250000D01*
X139000000Y-58550000D02*
X139900000Y-57850000D01*
X120000000Y-60350000D02*
X120000000Y-61750000D01*
X120900000Y-61750000D02*
X120000000Y-61050000D01*
X120900000Y-60350000D02*
X120900000Y-61750000D01*
X120000000Y-61050000D02*
X120900000Y-60350000D01*
X196000000Y-47800000D02*
X196000000Y-49200000D01*
X196900000Y-49200000D02*
X196000000Y-48500000D01*
X196900000Y-47800000D02*
X196900000Y-49200000D01*
X196000000Y-48500000D02*
X196900000Y-47800000D01*
X177000000Y-54800000D02*
X177000000Y-56200000D01*
X177900000Y-56200000D02*
X177000000Y-55500000D01*
X177900000Y-54800000D02*
X177900000Y-56200000D01*
X177000000Y-55500000D02*
X177900000Y-54800000D01*
X158000000Y-52310000D02*
X158000000Y-53710000D01*
X158900000Y-53710000D02*
X158000000Y-53010000D01*
X158900000Y-52310000D02*
X158900000Y-53710000D01*
X158000000Y-53010000D02*
X158900000Y-52310000D01*
X139000000Y-54800000D02*
X139000000Y-56200000D01*
X139900000Y-56200000D02*
X139000000Y-55500000D01*
X139900000Y-54800000D02*
X139900000Y-56200000D01*
X139000000Y-55500000D02*
X139900000Y-54800000D01*
X120000000Y-57300000D02*
X120000000Y-58700000D01*
X120900000Y-58700000D02*
X120000000Y-58000000D01*
X120900000Y-57300000D02*
X120900000Y-58700000D01*
X120000000Y-58000000D02*
X120900000Y-57300000D01*
X93325904Y-107931095D02*
X92944952Y-107664428D01*
X93325904Y-107473952D02*
X92525904Y-107473952D01*
X92525904Y-107778714D01*
X92564000Y-107854904D01*
X92602095Y-107893000D01*
X92678285Y-107931095D01*
X92792571Y-107931095D01*
X92868761Y-107893000D01*
X92906857Y-107854904D01*
X92944952Y-107778714D01*
X92944952Y-107473952D01*
X92906857Y-108273952D02*
X92906857Y-108540619D01*
X93325904Y-108654904D02*
X93325904Y-108273952D01*
X92525904Y-108273952D01*
X92525904Y-108654904D01*
X93287809Y-108959666D02*
X93325904Y-109073952D01*
X93325904Y-109264428D01*
X93287809Y-109340619D01*
X93249714Y-109378714D01*
X93173523Y-109416809D01*
X93097333Y-109416809D01*
X93021142Y-109378714D01*
X92983047Y-109340619D01*
X92944952Y-109264428D01*
X92906857Y-109112047D01*
X92868761Y-109035857D01*
X92830666Y-108997761D01*
X92754476Y-108959666D01*
X92678285Y-108959666D01*
X92602095Y-108997761D01*
X92564000Y-109035857D01*
X92525904Y-109112047D01*
X92525904Y-109302523D01*
X92564000Y-109416809D01*
X92906857Y-109759666D02*
X92906857Y-110026333D01*
X93325904Y-110140619D02*
X93325904Y-109759666D01*
X92525904Y-109759666D01*
X92525904Y-110140619D01*
X92525904Y-110369190D02*
X92525904Y-110826333D01*
X93325904Y-110597761D02*
X92525904Y-110597761D01*
X98618604Y-63379404D02*
X98161461Y-63379404D01*
X98390032Y-64179404D02*
X98390032Y-63379404D01*
X97970985Y-63379404D02*
X97437651Y-64179404D01*
X97437651Y-63379404D02*
X97970985Y-64179404D01*
X96980508Y-63379404D02*
X96904318Y-63379404D01*
X96828128Y-63417500D01*
X96790032Y-63455595D01*
X96751937Y-63531785D01*
X96713842Y-63684166D01*
X96713842Y-63874642D01*
X96751937Y-64027023D01*
X96790032Y-64103214D01*
X96828128Y-64141309D01*
X96904318Y-64179404D01*
X96980508Y-64179404D01*
X97056699Y-64141309D01*
X97094794Y-64103214D01*
X97132889Y-64027023D01*
X97170985Y-63874642D01*
X97170985Y-63684166D01*
X97132889Y-63531785D01*
X97094794Y-63455595D01*
X97056699Y-63417500D01*
X96980508Y-63379404D01*
X95799556Y-63341309D02*
X96485270Y-64369880D01*
X95532889Y-64179404D02*
X95532889Y-63379404D01*
X95342413Y-63379404D01*
X95228128Y-63417500D01*
X95151937Y-63493690D01*
X95113842Y-63569880D01*
X95075747Y-63722261D01*
X95075747Y-63836547D01*
X95113842Y-63988928D01*
X95151937Y-64065119D01*
X95228128Y-64141309D01*
X95342413Y-64179404D01*
X95532889Y-64179404D01*
X94809080Y-63379404D02*
X94313842Y-63379404D01*
X94580508Y-63684166D01*
X94466223Y-63684166D01*
X94390032Y-63722261D01*
X94351937Y-63760357D01*
X94313842Y-63836547D01*
X94313842Y-64027023D01*
X94351937Y-64103214D01*
X94390032Y-64141309D01*
X94466223Y-64179404D01*
X94694794Y-64179404D01*
X94770985Y-64141309D01*
X94809080Y-64103214D01*
X98618604Y-63379404D02*
X98161461Y-63379404D01*
X98390032Y-64179404D02*
X98390032Y-63379404D01*
X97970985Y-63379404D02*
X97437651Y-64179404D01*
X97437651Y-63379404D02*
X97970985Y-64179404D01*
X96980508Y-63379404D02*
X96904318Y-63379404D01*
X96828128Y-63417500D01*
X96790032Y-63455595D01*
X96751937Y-63531785D01*
X96713842Y-63684166D01*
X96713842Y-63874642D01*
X96751937Y-64027023D01*
X96790032Y-64103214D01*
X96828128Y-64141309D01*
X96904318Y-64179404D01*
X96980508Y-64179404D01*
X97056699Y-64141309D01*
X97094794Y-64103214D01*
X97132889Y-64027023D01*
X97170985Y-63874642D01*
X97170985Y-63684166D01*
X97132889Y-63531785D01*
X97094794Y-63455595D01*
X97056699Y-63417500D01*
X96980508Y-63379404D01*
X95799556Y-63341309D02*
X96485270Y-64369880D01*
X95532889Y-64179404D02*
X95532889Y-63379404D01*
X95342413Y-63379404D01*
X95228128Y-63417500D01*
X95151937Y-63493690D01*
X95113842Y-63569880D01*
X95075747Y-63722261D01*
X95075747Y-63836547D01*
X95113842Y-63988928D01*
X95151937Y-64065119D01*
X95228128Y-64141309D01*
X95342413Y-64179404D01*
X95532889Y-64179404D01*
X94809080Y-63379404D02*
X94313842Y-63379404D01*
X94580508Y-63684166D01*
X94466223Y-63684166D01*
X94390032Y-63722261D01*
X94351937Y-63760357D01*
X94313842Y-63836547D01*
X94313842Y-64027023D01*
X94351937Y-64103214D01*
X94390032Y-64141309D01*
X94466223Y-64179404D01*
X94694794Y-64179404D01*
X94770985Y-64141309D01*
X94809080Y-64103214D01*
X95129476Y-66719404D02*
X95129476Y-65919404D01*
X94939000Y-65919404D01*
X94824714Y-65957500D01*
X94748523Y-66033690D01*
X94710428Y-66109880D01*
X94672333Y-66262261D01*
X94672333Y-66376547D01*
X94710428Y-66528928D01*
X94748523Y-66605119D01*
X94824714Y-66681309D01*
X94939000Y-66719404D01*
X95129476Y-66719404D01*
X94367571Y-65995595D02*
X94329476Y-65957500D01*
X94253285Y-65919404D01*
X94062809Y-65919404D01*
X93986619Y-65957500D01*
X93948523Y-65995595D01*
X93910428Y-66071785D01*
X93910428Y-66147976D01*
X93948523Y-66262261D01*
X94405666Y-66719404D01*
X93910428Y-66719404D01*
X95129476Y-76879404D02*
X95129476Y-76079404D01*
X94939000Y-76079404D01*
X94824714Y-76117500D01*
X94748523Y-76193690D01*
X94710428Y-76269880D01*
X94672333Y-76422261D01*
X94672333Y-76536547D01*
X94710428Y-76688928D01*
X94748523Y-76765119D01*
X94824714Y-76841309D01*
X94939000Y-76879404D01*
X95129476Y-76879404D01*
X94177095Y-76079404D02*
X94100904Y-76079404D01*
X94024714Y-76117500D01*
X93986619Y-76155595D01*
X93948523Y-76231785D01*
X93910428Y-76384166D01*
X93910428Y-76574642D01*
X93948523Y-76727023D01*
X93986619Y-76803214D01*
X94024714Y-76841309D01*
X94100904Y-76879404D01*
X94177095Y-76879404D01*
X94253285Y-76841309D01*
X94291380Y-76803214D01*
X94329476Y-76727023D01*
X94367571Y-76574642D01*
X94367571Y-76384166D01*
X94329476Y-76231785D01*
X94291380Y-76155595D01*
X94253285Y-76117500D01*
X94177095Y-76079404D01*
X95129476Y-74339404D02*
X95129476Y-73539404D01*
X94939000Y-73539404D01*
X94824714Y-73577500D01*
X94748523Y-73653690D01*
X94710428Y-73729880D01*
X94672333Y-73882261D01*
X94672333Y-73996547D01*
X94710428Y-74148928D01*
X94748523Y-74225119D01*
X94824714Y-74301309D01*
X94939000Y-74339404D01*
X95129476Y-74339404D01*
X93910428Y-74339404D02*
X94367571Y-74339404D01*
X94139000Y-74339404D02*
X94139000Y-73539404D01*
X94215190Y-73653690D01*
X94291380Y-73729880D01*
X94367571Y-73767976D01*
X95148523Y-71037500D02*
X95224714Y-70999404D01*
X95339000Y-70999404D01*
X95453285Y-71037500D01*
X95529476Y-71113690D01*
X95567571Y-71189880D01*
X95605666Y-71342261D01*
X95605666Y-71456547D01*
X95567571Y-71608928D01*
X95529476Y-71685119D01*
X95453285Y-71761309D01*
X95339000Y-71799404D01*
X95262809Y-71799404D01*
X95148523Y-71761309D01*
X95110428Y-71723214D01*
X95110428Y-71456547D01*
X95262809Y-71456547D01*
X94767571Y-71799404D02*
X94767571Y-70999404D01*
X94310428Y-71799404D01*
X94310428Y-70999404D01*
X93929476Y-71799404D02*
X93929476Y-70999404D01*
X93739000Y-70999404D01*
X93624714Y-71037500D01*
X93548523Y-71113690D01*
X93510428Y-71189880D01*
X93472333Y-71342261D01*
X93472333Y-71456547D01*
X93510428Y-71608928D01*
X93548523Y-71685119D01*
X93624714Y-71761309D01*
X93739000Y-71799404D01*
X93929476Y-71799404D01*
X95129476Y-79419404D02*
X95129476Y-78619404D01*
X94939000Y-78619404D01*
X94824714Y-78657500D01*
X94748523Y-78733690D01*
X94710428Y-78809880D01*
X94672333Y-78962261D01*
X94672333Y-79076547D01*
X94710428Y-79228928D01*
X94748523Y-79305119D01*
X94824714Y-79381309D01*
X94939000Y-79419404D01*
X95129476Y-79419404D01*
X93986619Y-78886071D02*
X93986619Y-79419404D01*
X94177095Y-78581309D02*
X94367571Y-79152738D01*
X93872333Y-79152738D01*
X94672333Y-81883214D02*
X94710428Y-81921309D01*
X94824714Y-81959404D01*
X94900904Y-81959404D01*
X95015190Y-81921309D01*
X95091380Y-81845119D01*
X95129476Y-81768928D01*
X95167571Y-81616547D01*
X95167571Y-81502261D01*
X95129476Y-81349880D01*
X95091380Y-81273690D01*
X95015190Y-81197500D01*
X94900904Y-81159404D01*
X94824714Y-81159404D01*
X94710428Y-81197500D01*
X94672333Y-81235595D01*
X93986619Y-81159404D02*
X94139000Y-81159404D01*
X94215190Y-81197500D01*
X94253285Y-81235595D01*
X94329476Y-81349880D01*
X94367571Y-81502261D01*
X94367571Y-81807023D01*
X94329476Y-81883214D01*
X94291380Y-81921309D01*
X94215190Y-81959404D01*
X94062809Y-81959404D01*
X93986619Y-81921309D01*
X93948523Y-81883214D01*
X93910428Y-81807023D01*
X93910428Y-81616547D01*
X93948523Y-81540357D01*
X93986619Y-81502261D01*
X94062809Y-81464166D01*
X94215190Y-81464166D01*
X94291380Y-81502261D01*
X94329476Y-81540357D01*
X94367571Y-81616547D01*
X95129476Y-84499404D02*
X95129476Y-83699404D01*
X94939000Y-83699404D01*
X94824714Y-83737500D01*
X94748523Y-83813690D01*
X94710428Y-83889880D01*
X94672333Y-84042261D01*
X94672333Y-84156547D01*
X94710428Y-84308928D01*
X94748523Y-84385119D01*
X94824714Y-84461309D01*
X94939000Y-84499404D01*
X95129476Y-84499404D01*
X94405666Y-83699404D02*
X93872333Y-83699404D01*
X94215190Y-84499404D01*
X95091380Y-86620357D02*
X94824714Y-86620357D01*
X94710428Y-87039404D02*
X95091380Y-87039404D01*
X95091380Y-86239404D01*
X94710428Y-86239404D01*
X94024714Y-86239404D02*
X94177095Y-86239404D01*
X94253285Y-86277500D01*
X94291380Y-86315595D01*
X94367571Y-86429880D01*
X94405666Y-86582261D01*
X94405666Y-86887023D01*
X94367571Y-86963214D01*
X94329476Y-87001309D01*
X94253285Y-87039404D01*
X94100904Y-87039404D01*
X94024714Y-87001309D01*
X93986619Y-86963214D01*
X93948523Y-86887023D01*
X93948523Y-86696547D01*
X93986619Y-86620357D01*
X94024714Y-86582261D01*
X94100904Y-86544166D01*
X94253285Y-86544166D01*
X94329476Y-86582261D01*
X94367571Y-86620357D01*
X94405666Y-86696547D01*
X94862809Y-89160357D02*
X94748523Y-89198452D01*
X94710428Y-89236547D01*
X94672333Y-89312738D01*
X94672333Y-89427023D01*
X94710428Y-89503214D01*
X94748523Y-89541309D01*
X94824714Y-89579404D01*
X95129476Y-89579404D01*
X95129476Y-88779404D01*
X94862809Y-88779404D01*
X94786619Y-88817500D01*
X94748523Y-88855595D01*
X94710428Y-88931785D01*
X94710428Y-89007976D01*
X94748523Y-89084166D01*
X94786619Y-89122261D01*
X94862809Y-89160357D01*
X95129476Y-89160357D01*
X93986619Y-89046071D02*
X93986619Y-89579404D01*
X94177095Y-88741309D02*
X94367571Y-89312738D01*
X93872333Y-89312738D01*
X94862809Y-91700357D02*
X94748523Y-91738452D01*
X94710428Y-91776547D01*
X94672333Y-91852738D01*
X94672333Y-91967023D01*
X94710428Y-92043214D01*
X94748523Y-92081309D01*
X94824714Y-92119404D01*
X95129476Y-92119404D01*
X95129476Y-91319404D01*
X94862809Y-91319404D01*
X94786619Y-91357500D01*
X94748523Y-91395595D01*
X94710428Y-91471785D01*
X94710428Y-91547976D01*
X94748523Y-91624166D01*
X94786619Y-91662261D01*
X94862809Y-91700357D01*
X95129476Y-91700357D01*
X93948523Y-91319404D02*
X94329476Y-91319404D01*
X94367571Y-91700357D01*
X94329476Y-91662261D01*
X94253285Y-91624166D01*
X94062809Y-91624166D01*
X93986619Y-91662261D01*
X93948523Y-91700357D01*
X93910428Y-91776547D01*
X93910428Y-91967023D01*
X93948523Y-92043214D01*
X93986619Y-92081309D01*
X94062809Y-92119404D01*
X94253285Y-92119404D01*
X94329476Y-92081309D01*
X94367571Y-92043214D01*
X105784809Y-91700357D02*
X105670523Y-91738452D01*
X105632428Y-91776547D01*
X105594333Y-91852738D01*
X105594333Y-91967023D01*
X105632428Y-92043214D01*
X105670523Y-92081309D01*
X105746714Y-92119404D01*
X106051476Y-92119404D01*
X106051476Y-91319404D01*
X105784809Y-91319404D01*
X105708619Y-91357500D01*
X105670523Y-91395595D01*
X105632428Y-91471785D01*
X105632428Y-91547976D01*
X105670523Y-91624166D01*
X105708619Y-91662261D01*
X105784809Y-91700357D01*
X106051476Y-91700357D01*
X104908619Y-91319404D02*
X105061000Y-91319404D01*
X105137190Y-91357500D01*
X105175285Y-91395595D01*
X105251476Y-91509880D01*
X105289571Y-91662261D01*
X105289571Y-91967023D01*
X105251476Y-92043214D01*
X105213380Y-92081309D01*
X105137190Y-92119404D01*
X104984809Y-92119404D01*
X104908619Y-92081309D01*
X104870523Y-92043214D01*
X104832428Y-91967023D01*
X104832428Y-91776547D01*
X104870523Y-91700357D01*
X104908619Y-91662261D01*
X104984809Y-91624166D01*
X105137190Y-91624166D01*
X105213380Y-91662261D01*
X105251476Y-91700357D01*
X105289571Y-91776547D01*
X105784809Y-86620357D02*
X105670523Y-86658452D01*
X105632428Y-86696547D01*
X105594333Y-86772738D01*
X105594333Y-86887023D01*
X105632428Y-86963214D01*
X105670523Y-87001309D01*
X105746714Y-87039404D01*
X106051476Y-87039404D01*
X106051476Y-86239404D01*
X105784809Y-86239404D01*
X105708619Y-86277500D01*
X105670523Y-86315595D01*
X105632428Y-86391785D01*
X105632428Y-86467976D01*
X105670523Y-86544166D01*
X105708619Y-86582261D01*
X105784809Y-86620357D01*
X106051476Y-86620357D01*
X105327666Y-86239404D02*
X104832428Y-86239404D01*
X105099095Y-86544166D01*
X104984809Y-86544166D01*
X104908619Y-86582261D01*
X104870523Y-86620357D01*
X104832428Y-86696547D01*
X104832428Y-86887023D01*
X104870523Y-86963214D01*
X104908619Y-87001309D01*
X104984809Y-87039404D01*
X105213380Y-87039404D01*
X105289571Y-87001309D01*
X105327666Y-86963214D01*
X105784809Y-84080357D02*
X105670523Y-84118452D01*
X105632428Y-84156547D01*
X105594333Y-84232738D01*
X105594333Y-84347023D01*
X105632428Y-84423214D01*
X105670523Y-84461309D01*
X105746714Y-84499404D01*
X106051476Y-84499404D01*
X106051476Y-83699404D01*
X105784809Y-83699404D01*
X105708619Y-83737500D01*
X105670523Y-83775595D01*
X105632428Y-83851785D01*
X105632428Y-83927976D01*
X105670523Y-84004166D01*
X105708619Y-84042261D01*
X105784809Y-84080357D01*
X106051476Y-84080357D01*
X104832428Y-84499404D02*
X105289571Y-84499404D01*
X105061000Y-84499404D02*
X105061000Y-83699404D01*
X105137190Y-83813690D01*
X105213380Y-83889880D01*
X105289571Y-83927976D01*
X105727666Y-73920357D02*
X105994333Y-73920357D01*
X105994333Y-74339404D02*
X105994333Y-73539404D01*
X105613380Y-73539404D01*
X104965761Y-73806071D02*
X104965761Y-74339404D01*
X105156238Y-73501309D02*
X105346714Y-74072738D01*
X104851476Y-74072738D01*
X106527666Y-70999404D02*
X106261000Y-71799404D01*
X105994333Y-70999404D01*
X105270523Y-71723214D02*
X105308619Y-71761309D01*
X105422904Y-71799404D01*
X105499095Y-71799404D01*
X105613380Y-71761309D01*
X105689571Y-71685119D01*
X105727666Y-71608928D01*
X105765761Y-71456547D01*
X105765761Y-71342261D01*
X105727666Y-71189880D01*
X105689571Y-71113690D01*
X105613380Y-71037500D01*
X105499095Y-70999404D01*
X105422904Y-70999404D01*
X105308619Y-71037500D01*
X105270523Y-71075595D01*
X104470523Y-71723214D02*
X104508619Y-71761309D01*
X104622904Y-71799404D01*
X104699095Y-71799404D01*
X104813380Y-71761309D01*
X104889571Y-71685119D01*
X104927666Y-71608928D01*
X104965761Y-71456547D01*
X104965761Y-71342261D01*
X104927666Y-71189880D01*
X104889571Y-71113690D01*
X104813380Y-71037500D01*
X104699095Y-70999404D01*
X104622904Y-70999404D01*
X104508619Y-71037500D01*
X104470523Y-71075595D01*
X106013380Y-64179404D02*
X106280047Y-63798452D01*
X106470523Y-64179404D02*
X106470523Y-63379404D01*
X106165761Y-63379404D01*
X106089571Y-63417500D01*
X106051476Y-63455595D01*
X106013380Y-63531785D01*
X106013380Y-63646071D01*
X106051476Y-63722261D01*
X106089571Y-63760357D01*
X106165761Y-63798452D01*
X106470523Y-63798452D01*
X105708619Y-63950833D02*
X105327666Y-63950833D01*
X105784809Y-64179404D02*
X105518142Y-63379404D01*
X105251476Y-64179404D01*
X105061000Y-63379404D02*
X104870523Y-64179404D01*
X104718142Y-63607976D01*
X104565761Y-64179404D01*
X104375285Y-63379404D01*
X106013380Y-64179404D02*
X106280047Y-63798452D01*
X106470523Y-64179404D02*
X106470523Y-63379404D01*
X106165761Y-63379404D01*
X106089571Y-63417500D01*
X106051476Y-63455595D01*
X106013380Y-63531785D01*
X106013380Y-63646071D01*
X106051476Y-63722261D01*
X106089571Y-63760357D01*
X106165761Y-63798452D01*
X106470523Y-63798452D01*
X105708619Y-63950833D02*
X105327666Y-63950833D01*
X105784809Y-64179404D02*
X105518142Y-63379404D01*
X105251476Y-64179404D01*
X105061000Y-63379404D02*
X104870523Y-64179404D01*
X104718142Y-63607976D01*
X104565761Y-64179404D01*
X104375285Y-63379404D01*
X106070523Y-65957500D02*
X106146714Y-65919404D01*
X106261000Y-65919404D01*
X106375285Y-65957500D01*
X106451476Y-66033690D01*
X106489571Y-66109880D01*
X106527666Y-66262261D01*
X106527666Y-66376547D01*
X106489571Y-66528928D01*
X106451476Y-66605119D01*
X106375285Y-66681309D01*
X106261000Y-66719404D01*
X106184809Y-66719404D01*
X106070523Y-66681309D01*
X106032428Y-66643214D01*
X106032428Y-66376547D01*
X106184809Y-66376547D01*
X105689571Y-66719404D02*
X105689571Y-65919404D01*
X105232428Y-66719404D01*
X105232428Y-65919404D01*
X104851476Y-66719404D02*
X104851476Y-65919404D01*
X104661000Y-65919404D01*
X104546714Y-65957500D01*
X104470523Y-66033690D01*
X104432428Y-66109880D01*
X104394333Y-66262261D01*
X104394333Y-66376547D01*
X104432428Y-66528928D01*
X104470523Y-66605119D01*
X104546714Y-66681309D01*
X104661000Y-66719404D01*
X104851476Y-66719404D01*
X106527666Y-70999404D02*
X106261000Y-71799404D01*
X105994333Y-70999404D01*
X105270523Y-71723214D02*
X105308619Y-71761309D01*
X105422904Y-71799404D01*
X105499095Y-71799404D01*
X105613380Y-71761309D01*
X105689571Y-71685119D01*
X105727666Y-71608928D01*
X105765761Y-71456547D01*
X105765761Y-71342261D01*
X105727666Y-71189880D01*
X105689571Y-71113690D01*
X105613380Y-71037500D01*
X105499095Y-70999404D01*
X105422904Y-70999404D01*
X105308619Y-71037500D01*
X105270523Y-71075595D01*
X104470523Y-71723214D02*
X104508619Y-71761309D01*
X104622904Y-71799404D01*
X104699095Y-71799404D01*
X104813380Y-71761309D01*
X104889571Y-71685119D01*
X104927666Y-71608928D01*
X104965761Y-71456547D01*
X104965761Y-71342261D01*
X104927666Y-71189880D01*
X104889571Y-71113690D01*
X104813380Y-71037500D01*
X104699095Y-70999404D01*
X104622904Y-70999404D01*
X104508619Y-71037500D01*
X104470523Y-71075595D01*
X105727666Y-73920357D02*
X105994333Y-73920357D01*
X105994333Y-74339404D02*
X105994333Y-73539404D01*
X105613380Y-73539404D01*
X104965761Y-73806071D02*
X104965761Y-74339404D01*
X105156238Y-73501309D02*
X105346714Y-74072738D01*
X104851476Y-74072738D01*
X105784809Y-84080357D02*
X105670523Y-84118452D01*
X105632428Y-84156547D01*
X105594333Y-84232738D01*
X105594333Y-84347023D01*
X105632428Y-84423214D01*
X105670523Y-84461309D01*
X105746714Y-84499404D01*
X106051476Y-84499404D01*
X106051476Y-83699404D01*
X105784809Y-83699404D01*
X105708619Y-83737500D01*
X105670523Y-83775595D01*
X105632428Y-83851785D01*
X105632428Y-83927976D01*
X105670523Y-84004166D01*
X105708619Y-84042261D01*
X105784809Y-84080357D01*
X106051476Y-84080357D01*
X104832428Y-84499404D02*
X105289571Y-84499404D01*
X105061000Y-84499404D02*
X105061000Y-83699404D01*
X105137190Y-83813690D01*
X105213380Y-83889880D01*
X105289571Y-83927976D01*
X105784809Y-86620357D02*
X105670523Y-86658452D01*
X105632428Y-86696547D01*
X105594333Y-86772738D01*
X105594333Y-86887023D01*
X105632428Y-86963214D01*
X105670523Y-87001309D01*
X105746714Y-87039404D01*
X106051476Y-87039404D01*
X106051476Y-86239404D01*
X105784809Y-86239404D01*
X105708619Y-86277500D01*
X105670523Y-86315595D01*
X105632428Y-86391785D01*
X105632428Y-86467976D01*
X105670523Y-86544166D01*
X105708619Y-86582261D01*
X105784809Y-86620357D01*
X106051476Y-86620357D01*
X105327666Y-86239404D02*
X104832428Y-86239404D01*
X105099095Y-86544166D01*
X104984809Y-86544166D01*
X104908619Y-86582261D01*
X104870523Y-86620357D01*
X104832428Y-86696547D01*
X104832428Y-86887023D01*
X104870523Y-86963214D01*
X104908619Y-87001309D01*
X104984809Y-87039404D01*
X105213380Y-87039404D01*
X105289571Y-87001309D01*
X105327666Y-86963214D01*
X105784809Y-91700357D02*
X105670523Y-91738452D01*
X105632428Y-91776547D01*
X105594333Y-91852738D01*
X105594333Y-91967023D01*
X105632428Y-92043214D01*
X105670523Y-92081309D01*
X105746714Y-92119404D01*
X106051476Y-92119404D01*
X106051476Y-91319404D01*
X105784809Y-91319404D01*
X105708619Y-91357500D01*
X105670523Y-91395595D01*
X105632428Y-91471785D01*
X105632428Y-91547976D01*
X105670523Y-91624166D01*
X105708619Y-91662261D01*
X105784809Y-91700357D01*
X106051476Y-91700357D01*
X104908619Y-91319404D02*
X105061000Y-91319404D01*
X105137190Y-91357500D01*
X105175285Y-91395595D01*
X105251476Y-91509880D01*
X105289571Y-91662261D01*
X105289571Y-91967023D01*
X105251476Y-92043214D01*
X105213380Y-92081309D01*
X105137190Y-92119404D01*
X104984809Y-92119404D01*
X104908619Y-92081309D01*
X104870523Y-92043214D01*
X104832428Y-91967023D01*
X104832428Y-91776547D01*
X104870523Y-91700357D01*
X104908619Y-91662261D01*
X104984809Y-91624166D01*
X105137190Y-91624166D01*
X105213380Y-91662261D01*
X105251476Y-91700357D01*
X105289571Y-91776547D01*
X94862809Y-91700357D02*
X94748523Y-91738452D01*
X94710428Y-91776547D01*
X94672333Y-91852738D01*
X94672333Y-91967023D01*
X94710428Y-92043214D01*
X94748523Y-92081309D01*
X94824714Y-92119404D01*
X95129476Y-92119404D01*
X95129476Y-91319404D01*
X94862809Y-91319404D01*
X94786619Y-91357500D01*
X94748523Y-91395595D01*
X94710428Y-91471785D01*
X94710428Y-91547976D01*
X94748523Y-91624166D01*
X94786619Y-91662261D01*
X94862809Y-91700357D01*
X95129476Y-91700357D01*
X93948523Y-91319404D02*
X94329476Y-91319404D01*
X94367571Y-91700357D01*
X94329476Y-91662261D01*
X94253285Y-91624166D01*
X94062809Y-91624166D01*
X93986619Y-91662261D01*
X93948523Y-91700357D01*
X93910428Y-91776547D01*
X93910428Y-91967023D01*
X93948523Y-92043214D01*
X93986619Y-92081309D01*
X94062809Y-92119404D01*
X94253285Y-92119404D01*
X94329476Y-92081309D01*
X94367571Y-92043214D01*
X94862809Y-89160357D02*
X94748523Y-89198452D01*
X94710428Y-89236547D01*
X94672333Y-89312738D01*
X94672333Y-89427023D01*
X94710428Y-89503214D01*
X94748523Y-89541309D01*
X94824714Y-89579404D01*
X95129476Y-89579404D01*
X95129476Y-88779404D01*
X94862809Y-88779404D01*
X94786619Y-88817500D01*
X94748523Y-88855595D01*
X94710428Y-88931785D01*
X94710428Y-89007976D01*
X94748523Y-89084166D01*
X94786619Y-89122261D01*
X94862809Y-89160357D01*
X95129476Y-89160357D01*
X93986619Y-89046071D02*
X93986619Y-89579404D01*
X94177095Y-88741309D02*
X94367571Y-89312738D01*
X93872333Y-89312738D01*
X95091380Y-86620357D02*
X94824714Y-86620357D01*
X94710428Y-87039404D02*
X95091380Y-87039404D01*
X95091380Y-86239404D01*
X94710428Y-86239404D01*
X94024714Y-86239404D02*
X94177095Y-86239404D01*
X94253285Y-86277500D01*
X94291380Y-86315595D01*
X94367571Y-86429880D01*
X94405666Y-86582261D01*
X94405666Y-86887023D01*
X94367571Y-86963214D01*
X94329476Y-87001309D01*
X94253285Y-87039404D01*
X94100904Y-87039404D01*
X94024714Y-87001309D01*
X93986619Y-86963214D01*
X93948523Y-86887023D01*
X93948523Y-86696547D01*
X93986619Y-86620357D01*
X94024714Y-86582261D01*
X94100904Y-86544166D01*
X94253285Y-86544166D01*
X94329476Y-86582261D01*
X94367571Y-86620357D01*
X94405666Y-86696547D01*
X95129476Y-84499404D02*
X95129476Y-83699404D01*
X94939000Y-83699404D01*
X94824714Y-83737500D01*
X94748523Y-83813690D01*
X94710428Y-83889880D01*
X94672333Y-84042261D01*
X94672333Y-84156547D01*
X94710428Y-84308928D01*
X94748523Y-84385119D01*
X94824714Y-84461309D01*
X94939000Y-84499404D01*
X95129476Y-84499404D01*
X94405666Y-83699404D02*
X93872333Y-83699404D01*
X94215190Y-84499404D01*
X94672333Y-81883214D02*
X94710428Y-81921309D01*
X94824714Y-81959404D01*
X94900904Y-81959404D01*
X95015190Y-81921309D01*
X95091380Y-81845119D01*
X95129476Y-81768928D01*
X95167571Y-81616547D01*
X95167571Y-81502261D01*
X95129476Y-81349880D01*
X95091380Y-81273690D01*
X95015190Y-81197500D01*
X94900904Y-81159404D01*
X94824714Y-81159404D01*
X94710428Y-81197500D01*
X94672333Y-81235595D01*
X93986619Y-81159404D02*
X94139000Y-81159404D01*
X94215190Y-81197500D01*
X94253285Y-81235595D01*
X94329476Y-81349880D01*
X94367571Y-81502261D01*
X94367571Y-81807023D01*
X94329476Y-81883214D01*
X94291380Y-81921309D01*
X94215190Y-81959404D01*
X94062809Y-81959404D01*
X93986619Y-81921309D01*
X93948523Y-81883214D01*
X93910428Y-81807023D01*
X93910428Y-81616547D01*
X93948523Y-81540357D01*
X93986619Y-81502261D01*
X94062809Y-81464166D01*
X94215190Y-81464166D01*
X94291380Y-81502261D01*
X94329476Y-81540357D01*
X94367571Y-81616547D01*
X95129476Y-79419404D02*
X95129476Y-78619404D01*
X94939000Y-78619404D01*
X94824714Y-78657500D01*
X94748523Y-78733690D01*
X94710428Y-78809880D01*
X94672333Y-78962261D01*
X94672333Y-79076547D01*
X94710428Y-79228928D01*
X94748523Y-79305119D01*
X94824714Y-79381309D01*
X94939000Y-79419404D01*
X95129476Y-79419404D01*
X93986619Y-78886071D02*
X93986619Y-79419404D01*
X94177095Y-78581309D02*
X94367571Y-79152738D01*
X93872333Y-79152738D01*
X95148523Y-68497500D02*
X95224714Y-68459404D01*
X95339000Y-68459404D01*
X95453285Y-68497500D01*
X95529476Y-68573690D01*
X95567571Y-68649880D01*
X95605666Y-68802261D01*
X95605666Y-68916547D01*
X95567571Y-69068928D01*
X95529476Y-69145119D01*
X95453285Y-69221309D01*
X95339000Y-69259404D01*
X95262809Y-69259404D01*
X95148523Y-69221309D01*
X95110428Y-69183214D01*
X95110428Y-68916547D01*
X95262809Y-68916547D01*
X94767571Y-69259404D02*
X94767571Y-68459404D01*
X94310428Y-69259404D01*
X94310428Y-68459404D01*
X93929476Y-69259404D02*
X93929476Y-68459404D01*
X93739000Y-68459404D01*
X93624714Y-68497500D01*
X93548523Y-68573690D01*
X93510428Y-68649880D01*
X93472333Y-68802261D01*
X93472333Y-68916547D01*
X93510428Y-69068928D01*
X93548523Y-69145119D01*
X93624714Y-69221309D01*
X93739000Y-69259404D01*
X93929476Y-69259404D01*
X95148523Y-71037500D02*
X95224714Y-70999404D01*
X95339000Y-70999404D01*
X95453285Y-71037500D01*
X95529476Y-71113690D01*
X95567571Y-71189880D01*
X95605666Y-71342261D01*
X95605666Y-71456547D01*
X95567571Y-71608928D01*
X95529476Y-71685119D01*
X95453285Y-71761309D01*
X95339000Y-71799404D01*
X95262809Y-71799404D01*
X95148523Y-71761309D01*
X95110428Y-71723214D01*
X95110428Y-71456547D01*
X95262809Y-71456547D01*
X94767571Y-71799404D02*
X94767571Y-70999404D01*
X94310428Y-71799404D01*
X94310428Y-70999404D01*
X93929476Y-71799404D02*
X93929476Y-70999404D01*
X93739000Y-70999404D01*
X93624714Y-71037500D01*
X93548523Y-71113690D01*
X93510428Y-71189880D01*
X93472333Y-71342261D01*
X93472333Y-71456547D01*
X93510428Y-71608928D01*
X93548523Y-71685119D01*
X93624714Y-71761309D01*
X93739000Y-71799404D01*
X93929476Y-71799404D01*
X95129476Y-74339404D02*
X95129476Y-73539404D01*
X94939000Y-73539404D01*
X94824714Y-73577500D01*
X94748523Y-73653690D01*
X94710428Y-73729880D01*
X94672333Y-73882261D01*
X94672333Y-73996547D01*
X94710428Y-74148928D01*
X94748523Y-74225119D01*
X94824714Y-74301309D01*
X94939000Y-74339404D01*
X95129476Y-74339404D01*
X93910428Y-74339404D02*
X94367571Y-74339404D01*
X94139000Y-74339404D02*
X94139000Y-73539404D01*
X94215190Y-73653690D01*
X94291380Y-73729880D01*
X94367571Y-73767976D01*
X95129476Y-76879404D02*
X95129476Y-76079404D01*
X94939000Y-76079404D01*
X94824714Y-76117500D01*
X94748523Y-76193690D01*
X94710428Y-76269880D01*
X94672333Y-76422261D01*
X94672333Y-76536547D01*
X94710428Y-76688928D01*
X94748523Y-76765119D01*
X94824714Y-76841309D01*
X94939000Y-76879404D01*
X95129476Y-76879404D01*
X94177095Y-76079404D02*
X94100904Y-76079404D01*
X94024714Y-76117500D01*
X93986619Y-76155595D01*
X93948523Y-76231785D01*
X93910428Y-76384166D01*
X93910428Y-76574642D01*
X93948523Y-76727023D01*
X93986619Y-76803214D01*
X94024714Y-76841309D01*
X94100904Y-76879404D01*
X94177095Y-76879404D01*
X94253285Y-76841309D01*
X94291380Y-76803214D01*
X94329476Y-76727023D01*
X94367571Y-76574642D01*
X94367571Y-76384166D01*
X94329476Y-76231785D01*
X94291380Y-76155595D01*
X94253285Y-76117500D01*
X94177095Y-76079404D01*
X95129476Y-66719404D02*
X95129476Y-65919404D01*
X94939000Y-65919404D01*
X94824714Y-65957500D01*
X94748523Y-66033690D01*
X94710428Y-66109880D01*
X94672333Y-66262261D01*
X94672333Y-66376547D01*
X94710428Y-66528928D01*
X94748523Y-66605119D01*
X94824714Y-66681309D01*
X94939000Y-66719404D01*
X95129476Y-66719404D01*
X94367571Y-65995595D02*
X94329476Y-65957500D01*
X94253285Y-65919404D01*
X94062809Y-65919404D01*
X93986619Y-65957500D01*
X93948523Y-65995595D01*
X93910428Y-66071785D01*
X93910428Y-66147976D01*
X93948523Y-66262261D01*
X94405666Y-66719404D01*
X93910428Y-66719404D01*
M02*
