M48
; DRILL file {KiCad 5.1.8} date Tue Dec  1 13:34:04 2020
; FORMAT={-:-/ absolute / inch / decimal}
; #@! TF.CreationDate,2020-12-01T13:34:04+01:00
; #@! TF.GenerationSoftware,Kicad,Pcbnew,5.1.8
; #@! TF.FileFunction,NonPlated,1,2,NPTH
FMAT,2
INCH
T1C0.0472
T2C0.0669
T3C0.1181
T4C0.1575
%
G90
G05
T1
X3.6391Y-3.85
X3.6391Y-3.9189
X3.9146Y-3.85
X3.9146Y-3.9189
T2
X4.4185Y-4.5892
X4.778Y-4.4139
X6.7882Y-3.3681
X7.1882Y-3.3681
X6.7882Y-1.8701
X7.1882Y-1.8701
X7.5362Y-2.2244
X7.9362Y-2.2244
X6.0421Y-4.122
X6.4421Y-4.122
X4.5441Y-1.9685
X4.9441Y-1.9685
X5.2037Y-4.2631
X5.5934Y-4.1732
X4.5441Y-2.7185
X4.9441Y-2.7185
X7.5362Y-2.9744
X7.9362Y-2.9744
X5.2921Y-3.372
X5.6921Y-3.372
X6.0402Y-2.522
X6.4402Y-2.522
X4.5441Y-3.4705
X4.9441Y-3.4705
X6.7882Y-2.6201
X7.1882Y-2.6201
X6.0402Y-3.2736
X6.4402Y-3.2736
X7.5362Y-3.7185
X7.9362Y-3.7185
X6.7882Y-4.1201
X7.1882Y-4.1201
X3.7267Y-5.0836
X4.0376Y-4.8319
X6.0402Y-1.772
X6.4402Y-1.772
X5.2921Y-2.6201
X5.6921Y-2.6201
X5.2921Y-1.8701
X5.6921Y-1.8701
T3
X3.6786Y-4.8653
X3.7027Y-4.9744
X3.834Y-4.7394
X3.9358Y-4.7856
X6.0902Y-1.672
X6.1402Y-1.572
X6.3402Y-1.572
X6.3902Y-1.672
X5.3421Y-2.5201
X5.3921Y-2.4201
X5.5921Y-2.4201
X5.6421Y-2.5201
X5.3421Y-1.7701
X5.3921Y-1.6701
X5.5921Y-1.6701
X5.6421Y-1.7701
X4.4196Y-4.4774
X4.4207Y-4.3656
X4.6004Y-4.278
X4.6892Y-4.3459
X6.8382Y-3.2681
X6.8882Y-3.1681
X7.0882Y-3.1681
X7.1382Y-3.2681
X6.8382Y-1.7701
X6.8882Y-1.6701
X7.0882Y-1.6701
X7.1382Y-1.7701
X7.5862Y-2.1244
X7.6362Y-2.0244
X7.8362Y-2.0244
X7.8862Y-2.1244
X6.0921Y-4.022
X6.1421Y-3.922
X6.3421Y-3.922
X6.3921Y-4.022
X4.5941Y-1.8685
X4.6441Y-1.7685
X4.8441Y-1.7685
X4.8941Y-1.8685
X5.2299Y-4.1545
X5.2561Y-4.0458
X5.451Y-4.0008
X5.5222Y-4.087
X4.5941Y-2.6185
X4.6441Y-2.5185
X4.8441Y-2.5185
X4.8941Y-2.6185
X7.5862Y-2.8744
X7.6362Y-2.7744
X7.8362Y-2.7744
X7.8862Y-2.8744
X5.3421Y-3.272
X5.3921Y-3.172
X5.5921Y-3.172
X5.6421Y-3.272
X6.0902Y-2.422
X6.1402Y-2.322
X6.3402Y-2.322
X6.3902Y-2.422
X4.5941Y-3.3705
X4.6441Y-3.2705
X4.8441Y-3.2705
X4.8941Y-3.3705
X6.8382Y-2.5201
X6.8882Y-2.4201
X7.0882Y-2.4201
X7.1382Y-2.5201
X6.0902Y-3.1736
X6.1402Y-3.0736
X6.3402Y-3.0736
X6.3902Y-3.1736
X7.5862Y-3.6185
X7.6362Y-3.5185
X7.8362Y-3.5185
X7.8862Y-3.6185
X6.8382Y-4.0201
X6.8882Y-3.9201
X7.0882Y-3.9201
X7.1382Y-4.0201
T4
X6.9882Y-2.6201
X6.2402Y-3.2736
X7.7362Y-3.7185
X6.9882Y-4.1201
X3.8822Y-4.9577
X6.2402Y-1.772
X5.4921Y-2.6201
X5.4921Y-1.8701
X4.5982Y-4.5016
X6.9882Y-3.3681
X6.9882Y-1.8701
X7.7362Y-2.2244
X6.2421Y-4.122
X4.7441Y-1.9685
X5.3986Y-4.2182
X4.7441Y-2.7185
X7.7362Y-2.9744
X5.4921Y-3.372
X6.2402Y-2.522
X4.7441Y-3.4705
T0
M30
