G04 #@! TF.GenerationSoftware,KiCad,Pcbnew,5.1.8*
G04 #@! TF.CreationDate,2020-12-01T13:34:08+01:00*
G04 #@! TF.ProjectId,puggle,70756767-6c65-42e6-9b69-6361645f7063,rev?*
G04 #@! TF.SameCoordinates,Original*
G04 #@! TF.FileFunction,Soldermask,Top*
G04 #@! TF.FilePolarity,Negative*
%FSLAX46Y46*%
G04 Gerber Fmt 4.6, Leading zero omitted, Abs format (unit mm)*
G04 Created by KiCad (PCBNEW 5.1.8) date 2020-12-01 13:34:08*
%MOMM*%
%LPD*%
G01*
G04 APERTURE LIST*
%ADD10C,2.400000*%
%ADD11C,1.600000*%
%ADD12O,2.900000X2.100000*%
%ADD13C,2.152600*%
%ADD14C,3.400000*%
%ADD15C,4.400000*%
%ADD16C,2.100000*%
%ADD17C,0.100000*%
%ADD18C,5.100000*%
G04 APERTURE END LIST*
D10*
X92964000Y-105843000D03*
X92964000Y-112343000D03*
D11*
X99432000Y-99540000D03*
X92432000Y-99540000D03*
D12*
X101232000Y-101640000D03*
X102732000Y-97440000D03*
X94232000Y-101640000D03*
X97232000Y-101640000D03*
D11*
X92432000Y-97790000D03*
X99432000Y-97790000D03*
D12*
X94232000Y-95690000D03*
X97232000Y-95690000D03*
X101232000Y-95690000D03*
X102732000Y-99890000D03*
D13*
X107848600Y-63817500D03*
X92608600Y-91757500D03*
X107391400Y-66357500D03*
X107848600Y-68897500D03*
X107391400Y-71437500D03*
X107848600Y-73977500D03*
X107391400Y-76517500D03*
X107848600Y-79057500D03*
X107391400Y-81597500D03*
X107848600Y-84137500D03*
X107391400Y-86677500D03*
X107848600Y-89217500D03*
X107391400Y-91757500D03*
X92151400Y-89217500D03*
X92608600Y-86677500D03*
X92151400Y-84137500D03*
X92608600Y-81597500D03*
X92151400Y-79057500D03*
X92608600Y-76517500D03*
X92151400Y-73977500D03*
X92608600Y-71437500D03*
X92151400Y-68897500D03*
X92608600Y-66357500D03*
G36*
G01*
X91275100Y-62741200D02*
X93027700Y-62741200D01*
G75*
G02*
X93227700Y-62941200I0J-200000D01*
G01*
X93227700Y-64693800D01*
G75*
G02*
X93027700Y-64893800I-200000J0D01*
G01*
X91275100Y-64893800D01*
G75*
G02*
X91075100Y-64693800I0J200000D01*
G01*
X91075100Y-62941200D01*
G75*
G02*
X91275100Y-62741200I200000J0D01*
G01*
G37*
D14*
X181310000Y-102110000D03*
X174960000Y-99570000D03*
X180040000Y-99570000D03*
D15*
X177500000Y-104650000D03*
D16*
X182580000Y-104650000D03*
X172420000Y-104650000D03*
D14*
X173690000Y-102109999D03*
D17*
G36*
X185619608Y-100700963D02*
G01*
X185629363Y-100701924D01*
X185667810Y-100709572D01*
X185677189Y-100712417D01*
X185713416Y-100727423D01*
X185722061Y-100732044D01*
X185754664Y-100753830D01*
X185762240Y-100760048D01*
X185789952Y-100787760D01*
X185796170Y-100795336D01*
X185817956Y-100827939D01*
X185822577Y-100836584D01*
X185837583Y-100872811D01*
X185840428Y-100882190D01*
X185848076Y-100920637D01*
X185849037Y-100930392D01*
X185850000Y-100950000D01*
X185850000Y-101200000D01*
X186350000Y-101200000D01*
X186389018Y-101203843D01*
X186426537Y-101215224D01*
X186461114Y-101233706D01*
X186491421Y-101258579D01*
X186516294Y-101288886D01*
X186534776Y-101323463D01*
X186546157Y-101360982D01*
X186550000Y-101400000D01*
X186550000Y-102900000D01*
X186546157Y-102939018D01*
X186534776Y-102976537D01*
X186516294Y-103011114D01*
X186491421Y-103041421D01*
X186461114Y-103066294D01*
X186426537Y-103084776D01*
X186389018Y-103096157D01*
X186350000Y-103100000D01*
X185850000Y-103100000D01*
X185850000Y-103350000D01*
X185849037Y-103369608D01*
X185848076Y-103379363D01*
X185840428Y-103417810D01*
X185837583Y-103427189D01*
X185822577Y-103463416D01*
X185817956Y-103472061D01*
X185796170Y-103504664D01*
X185789952Y-103512240D01*
X185762240Y-103539952D01*
X185754664Y-103546170D01*
X185722061Y-103567956D01*
X185713416Y-103572577D01*
X185677189Y-103587583D01*
X185667810Y-103590428D01*
X185629363Y-103598076D01*
X185619608Y-103599037D01*
X185600000Y-103600000D01*
X183200000Y-103600000D01*
X183180392Y-103599037D01*
X183170637Y-103598076D01*
X183132190Y-103590428D01*
X183122811Y-103587583D01*
X183086584Y-103572577D01*
X183077939Y-103567956D01*
X183045336Y-103546170D01*
X183037760Y-103539952D01*
X183010048Y-103512240D01*
X183003830Y-103504664D01*
X182982044Y-103472061D01*
X182977423Y-103463416D01*
X182962417Y-103427189D01*
X182959572Y-103417810D01*
X182951924Y-103379363D01*
X182950963Y-103369608D01*
X182950000Y-103350000D01*
X182950000Y-100950000D01*
X182950963Y-100930392D01*
X182951924Y-100920637D01*
X182959572Y-100882190D01*
X182962417Y-100872811D01*
X182977423Y-100836584D01*
X182982044Y-100827939D01*
X183003830Y-100795336D01*
X183010048Y-100787760D01*
X183037760Y-100760048D01*
X183045336Y-100753830D01*
X183077939Y-100732044D01*
X183086584Y-100727423D01*
X183122811Y-100712417D01*
X183132190Y-100709572D01*
X183170637Y-100701924D01*
X183180392Y-100700963D01*
X183200000Y-100700000D01*
X185600000Y-100700000D01*
X185619608Y-100700963D01*
G37*
G36*
X173019608Y-98100963D02*
G01*
X173029363Y-98101924D01*
X173067810Y-98109572D01*
X173077189Y-98112417D01*
X173113416Y-98127423D01*
X173122061Y-98132044D01*
X173154664Y-98153830D01*
X173162240Y-98160048D01*
X173189952Y-98187760D01*
X173196170Y-98195336D01*
X173217956Y-98227939D01*
X173222577Y-98236584D01*
X173237583Y-98272811D01*
X173240428Y-98282190D01*
X173248076Y-98320637D01*
X173249037Y-98330392D01*
X173250000Y-98350000D01*
X173250000Y-100350000D01*
X173249037Y-100369608D01*
X173248076Y-100379363D01*
X173240428Y-100417810D01*
X173237583Y-100427189D01*
X173222577Y-100463416D01*
X173217956Y-100472061D01*
X173196170Y-100504664D01*
X173189952Y-100512240D01*
X173162166Y-100540013D01*
X173154546Y-100546261D01*
X173138675Y-100558013D01*
X172538675Y-100958013D01*
X172521824Y-100968089D01*
X172513175Y-100972700D01*
X172476932Y-100987666D01*
X172467549Y-100990501D01*
X172429212Y-100998095D01*
X172419509Y-100999046D01*
X172400000Y-101000000D01*
X170600000Y-101000000D01*
X170580392Y-100999037D01*
X170570637Y-100998076D01*
X170532190Y-100990428D01*
X170522811Y-100987583D01*
X170486584Y-100972577D01*
X170477939Y-100967956D01*
X170445336Y-100946170D01*
X170437760Y-100939952D01*
X170410048Y-100912240D01*
X170403830Y-100904664D01*
X170382044Y-100872061D01*
X170377423Y-100863416D01*
X170362417Y-100827189D01*
X170359572Y-100817810D01*
X170351924Y-100779363D01*
X170350963Y-100769608D01*
X170350000Y-100750000D01*
X170350000Y-100500000D01*
X169950000Y-100500000D01*
X169910982Y-100496157D01*
X169873463Y-100484776D01*
X169838886Y-100466294D01*
X169808579Y-100441421D01*
X169783706Y-100411114D01*
X169765224Y-100376537D01*
X169753843Y-100339018D01*
X169750000Y-100300000D01*
X169750000Y-98800000D01*
X169753843Y-98760982D01*
X169765224Y-98723463D01*
X169783706Y-98688886D01*
X169808579Y-98658579D01*
X169838886Y-98633706D01*
X169873463Y-98615224D01*
X169910982Y-98603843D01*
X169950000Y-98600000D01*
X170350000Y-98600000D01*
X170350000Y-98350000D01*
X170350963Y-98330392D01*
X170351924Y-98320637D01*
X170359572Y-98282190D01*
X170362417Y-98272811D01*
X170377423Y-98236584D01*
X170382044Y-98227939D01*
X170403830Y-98195336D01*
X170410048Y-98187760D01*
X170437760Y-98160048D01*
X170445336Y-98153830D01*
X170477939Y-98132044D01*
X170486584Y-98127423D01*
X170522811Y-98112417D01*
X170532190Y-98109572D01*
X170570637Y-98101924D01*
X170580392Y-98100963D01*
X170600000Y-98100000D01*
X173000000Y-98100000D01*
X173019608Y-98100963D01*
G37*
G36*
X154069608Y-98150963D02*
G01*
X154079363Y-98151924D01*
X154117810Y-98159572D01*
X154127189Y-98162417D01*
X154163416Y-98177423D01*
X154172061Y-98182044D01*
X154204664Y-98203830D01*
X154212240Y-98210048D01*
X154239952Y-98237760D01*
X154246170Y-98245336D01*
X154267956Y-98277939D01*
X154272577Y-98286584D01*
X154287583Y-98322811D01*
X154290428Y-98332190D01*
X154298076Y-98370637D01*
X154299037Y-98380392D01*
X154300000Y-98400000D01*
X154300000Y-100400000D01*
X154299037Y-100419608D01*
X154298076Y-100429363D01*
X154290428Y-100467810D01*
X154287583Y-100477189D01*
X154272577Y-100513416D01*
X154267956Y-100522061D01*
X154246170Y-100554664D01*
X154239952Y-100562240D01*
X154212166Y-100590013D01*
X154204546Y-100596261D01*
X154188675Y-100608013D01*
X153588675Y-101008013D01*
X153571824Y-101018089D01*
X153563175Y-101022700D01*
X153526932Y-101037666D01*
X153517549Y-101040501D01*
X153479212Y-101048095D01*
X153469509Y-101049046D01*
X153450000Y-101050000D01*
X151650000Y-101050000D01*
X151630392Y-101049037D01*
X151620637Y-101048076D01*
X151582190Y-101040428D01*
X151572811Y-101037583D01*
X151536584Y-101022577D01*
X151527939Y-101017956D01*
X151495336Y-100996170D01*
X151487760Y-100989952D01*
X151460048Y-100962240D01*
X151453830Y-100954664D01*
X151432044Y-100922061D01*
X151427423Y-100913416D01*
X151412417Y-100877189D01*
X151409572Y-100867810D01*
X151401924Y-100829363D01*
X151400963Y-100819608D01*
X151400000Y-100800000D01*
X151400000Y-100550000D01*
X151000000Y-100550000D01*
X150960982Y-100546157D01*
X150923463Y-100534776D01*
X150888886Y-100516294D01*
X150858579Y-100491421D01*
X150833706Y-100461114D01*
X150815224Y-100426537D01*
X150803843Y-100389018D01*
X150800000Y-100350000D01*
X150800000Y-98850000D01*
X150803843Y-98810982D01*
X150815224Y-98773463D01*
X150833706Y-98738886D01*
X150858579Y-98708579D01*
X150888886Y-98683706D01*
X150923463Y-98665224D01*
X150960982Y-98653843D01*
X151000000Y-98650000D01*
X151400000Y-98650000D01*
X151400000Y-98400000D01*
X151400963Y-98380392D01*
X151401924Y-98370637D01*
X151409572Y-98332190D01*
X151412417Y-98322811D01*
X151427423Y-98286584D01*
X151432044Y-98277939D01*
X151453830Y-98245336D01*
X151460048Y-98237760D01*
X151487760Y-98210048D01*
X151495336Y-98203830D01*
X151527939Y-98182044D01*
X151536584Y-98177423D01*
X151572811Y-98162417D01*
X151582190Y-98159572D01*
X151620637Y-98151924D01*
X151630392Y-98150963D01*
X151650000Y-98150000D01*
X154050000Y-98150000D01*
X154069608Y-98150963D01*
G37*
G36*
X166669608Y-100750963D02*
G01*
X166679363Y-100751924D01*
X166717810Y-100759572D01*
X166727189Y-100762417D01*
X166763416Y-100777423D01*
X166772061Y-100782044D01*
X166804664Y-100803830D01*
X166812240Y-100810048D01*
X166839952Y-100837760D01*
X166846170Y-100845336D01*
X166867956Y-100877939D01*
X166872577Y-100886584D01*
X166887583Y-100922811D01*
X166890428Y-100932190D01*
X166898076Y-100970637D01*
X166899037Y-100980392D01*
X166900000Y-101000000D01*
X166900000Y-101250000D01*
X167400000Y-101250000D01*
X167439018Y-101253843D01*
X167476537Y-101265224D01*
X167511114Y-101283706D01*
X167541421Y-101308579D01*
X167566294Y-101338886D01*
X167584776Y-101373463D01*
X167596157Y-101410982D01*
X167600000Y-101450000D01*
X167600000Y-102950000D01*
X167596157Y-102989018D01*
X167584776Y-103026537D01*
X167566294Y-103061114D01*
X167541421Y-103091421D01*
X167511114Y-103116294D01*
X167476537Y-103134776D01*
X167439018Y-103146157D01*
X167400000Y-103150000D01*
X166900000Y-103150000D01*
X166900000Y-103400000D01*
X166899037Y-103419608D01*
X166898076Y-103429363D01*
X166890428Y-103467810D01*
X166887583Y-103477189D01*
X166872577Y-103513416D01*
X166867956Y-103522061D01*
X166846170Y-103554664D01*
X166839952Y-103562240D01*
X166812240Y-103589952D01*
X166804664Y-103596170D01*
X166772061Y-103617956D01*
X166763416Y-103622577D01*
X166727189Y-103637583D01*
X166717810Y-103640428D01*
X166679363Y-103648076D01*
X166669608Y-103649037D01*
X166650000Y-103650000D01*
X164250000Y-103650000D01*
X164230392Y-103649037D01*
X164220637Y-103648076D01*
X164182190Y-103640428D01*
X164172811Y-103637583D01*
X164136584Y-103622577D01*
X164127939Y-103617956D01*
X164095336Y-103596170D01*
X164087760Y-103589952D01*
X164060048Y-103562240D01*
X164053830Y-103554664D01*
X164032044Y-103522061D01*
X164027423Y-103513416D01*
X164012417Y-103477189D01*
X164009572Y-103467810D01*
X164001924Y-103429363D01*
X164000963Y-103419608D01*
X164000000Y-103400000D01*
X164000000Y-101000000D01*
X164000963Y-100980392D01*
X164001924Y-100970637D01*
X164009572Y-100932190D01*
X164012417Y-100922811D01*
X164027423Y-100886584D01*
X164032044Y-100877939D01*
X164053830Y-100845336D01*
X164060048Y-100837760D01*
X164087760Y-100810048D01*
X164095336Y-100803830D01*
X164127939Y-100782044D01*
X164136584Y-100777423D01*
X164172811Y-100762417D01*
X164182190Y-100759572D01*
X164220637Y-100751924D01*
X164230392Y-100750963D01*
X164250000Y-100750000D01*
X166650000Y-100750000D01*
X166669608Y-100750963D01*
G37*
D14*
X154740000Y-102159999D03*
D16*
X153470000Y-104700000D03*
X163630000Y-104700000D03*
D15*
X158550000Y-104700000D03*
D14*
X161090000Y-99620000D03*
X156010000Y-99620000D03*
X162360000Y-102160000D03*
X140264386Y-103809288D03*
X133505761Y-102762827D03*
X138455561Y-101620075D03*
D15*
X137123412Y-107141251D03*
D16*
X142073212Y-105998500D03*
X132173612Y-108284002D03*
D14*
X132839686Y-105523414D03*
D17*
G36*
X144146575Y-101466913D02*
G01*
X144156296Y-101465655D01*
X144195478Y-101464459D01*
X144205257Y-101465121D01*
X144243931Y-101471593D01*
X144253394Y-101474151D01*
X144290062Y-101488044D01*
X144298843Y-101492399D01*
X144332078Y-101513167D01*
X144339841Y-101519150D01*
X144368403Y-101546016D01*
X144374850Y-101553400D01*
X144397621Y-101585323D01*
X144402503Y-101593822D01*
X144418603Y-101629563D01*
X144421734Y-101638852D01*
X144427083Y-101657741D01*
X144483321Y-101901333D01*
X144970506Y-101788858D01*
X145009388Y-101783825D01*
X145048506Y-101786474D01*
X145086354Y-101796704D01*
X145121480Y-101814122D01*
X145152533Y-101838057D01*
X145178319Y-101867591D01*
X145197849Y-101901588D01*
X145210370Y-101938741D01*
X145547797Y-103400296D01*
X145552829Y-103439179D01*
X145550180Y-103478296D01*
X145539950Y-103516145D01*
X145522532Y-103551270D01*
X145498597Y-103582323D01*
X145469064Y-103608110D01*
X145435067Y-103627639D01*
X145397913Y-103640161D01*
X144910728Y-103752636D01*
X144966966Y-103996229D01*
X144970438Y-104015551D01*
X144971696Y-104025272D01*
X144972893Y-104064454D01*
X144972231Y-104074233D01*
X144965759Y-104112907D01*
X144963201Y-104122370D01*
X144949307Y-104159038D01*
X144944953Y-104167818D01*
X144924185Y-104201054D01*
X144918202Y-104208817D01*
X144891335Y-104237379D01*
X144883951Y-104243826D01*
X144852028Y-104266597D01*
X144843530Y-104271478D01*
X144807789Y-104287579D01*
X144798500Y-104290710D01*
X144779611Y-104296059D01*
X142441123Y-104835942D01*
X142421801Y-104839414D01*
X142412080Y-104840672D01*
X142372898Y-104841869D01*
X142363119Y-104841207D01*
X142324445Y-104834734D01*
X142314982Y-104832177D01*
X142278314Y-104818283D01*
X142269533Y-104813929D01*
X142236298Y-104793161D01*
X142228535Y-104787178D01*
X142199973Y-104760311D01*
X142193526Y-104752927D01*
X142170755Y-104721004D01*
X142165873Y-104712506D01*
X142149772Y-104676764D01*
X142146642Y-104667476D01*
X142141293Y-104648587D01*
X141601410Y-102310099D01*
X141597938Y-102290777D01*
X141596679Y-102281055D01*
X141595483Y-102241873D01*
X141596145Y-102232095D01*
X141602617Y-102193421D01*
X141605175Y-102183958D01*
X141619069Y-102147290D01*
X141623423Y-102138509D01*
X141644191Y-102105273D01*
X141650174Y-102097511D01*
X141677041Y-102068949D01*
X141684424Y-102062502D01*
X141716347Y-102039731D01*
X141724846Y-102034849D01*
X141760587Y-102018748D01*
X141769876Y-102015618D01*
X141788765Y-102010268D01*
X144127253Y-101470386D01*
X144146575Y-101466913D01*
G37*
G36*
X131284639Y-101767934D02*
G01*
X131294360Y-101766676D01*
X131333542Y-101765479D01*
X131343321Y-101766142D01*
X131381995Y-101772614D01*
X131391458Y-101775172D01*
X131428126Y-101789065D01*
X131436907Y-101793419D01*
X131470142Y-101814187D01*
X131477905Y-101820170D01*
X131506467Y-101847037D01*
X131512914Y-101854421D01*
X131535685Y-101886344D01*
X131540567Y-101894843D01*
X131556668Y-101930584D01*
X131559798Y-101939872D01*
X131565147Y-101958761D01*
X132015050Y-103907501D01*
X132018522Y-103926824D01*
X132019780Y-103936545D01*
X132020977Y-103975727D01*
X132020315Y-103985505D01*
X132013842Y-104024179D01*
X132011285Y-104033642D01*
X131997391Y-104070311D01*
X131993037Y-104079091D01*
X131972210Y-104112403D01*
X131966191Y-104120205D01*
X131953371Y-104135226D01*
X131458729Y-104659944D01*
X131444576Y-104673553D01*
X131437186Y-104679991D01*
X131405239Y-104702727D01*
X131396734Y-104707600D01*
X131361088Y-104723623D01*
X131351848Y-104726732D01*
X131333053Y-104732050D01*
X129579187Y-105136962D01*
X129559865Y-105140435D01*
X129550144Y-105141693D01*
X129510962Y-105142890D01*
X129501183Y-105142227D01*
X129462509Y-105135755D01*
X129453046Y-105133197D01*
X129416378Y-105119304D01*
X129407597Y-105114949D01*
X129374362Y-105094181D01*
X129366599Y-105088198D01*
X129338037Y-105061332D01*
X129331590Y-105053948D01*
X129308819Y-105022025D01*
X129303937Y-105013526D01*
X129287837Y-104977785D01*
X129284706Y-104968496D01*
X129279357Y-104949608D01*
X129223119Y-104706015D01*
X128833371Y-104795995D01*
X128794489Y-104801028D01*
X128755371Y-104798379D01*
X128717523Y-104788149D01*
X128682397Y-104770731D01*
X128651344Y-104746796D01*
X128625558Y-104717262D01*
X128606028Y-104683265D01*
X128593507Y-104646112D01*
X128256080Y-103184557D01*
X128251048Y-103145674D01*
X128253697Y-103106557D01*
X128263927Y-103068708D01*
X128281345Y-103033583D01*
X128305280Y-103002530D01*
X128334813Y-102976743D01*
X128368810Y-102957214D01*
X128405964Y-102944692D01*
X128795712Y-102854712D01*
X128739474Y-102611119D01*
X128736002Y-102591797D01*
X128734744Y-102582076D01*
X128733547Y-102542894D01*
X128734209Y-102533116D01*
X128740681Y-102494441D01*
X128743239Y-102484978D01*
X128757133Y-102448310D01*
X128761487Y-102439530D01*
X128782255Y-102406294D01*
X128788238Y-102398531D01*
X128815105Y-102369970D01*
X128822489Y-102363522D01*
X128854412Y-102340752D01*
X128862910Y-102335870D01*
X128898651Y-102319769D01*
X128907940Y-102316638D01*
X128926829Y-102311289D01*
X131265317Y-101771407D01*
X131284639Y-101767934D01*
G37*
D14*
X119106091Y-110386736D03*
X112285286Y-110887456D03*
X116851159Y-108660531D03*
D15*
X116795148Y-114339867D03*
D16*
X121361022Y-112112942D03*
X112229274Y-116566792D03*
D14*
X112257280Y-113727123D03*
D17*
G36*
X122361860Y-107231094D02*
G01*
X122371049Y-107227681D01*
X122408958Y-107217701D01*
X122418634Y-107216147D01*
X122457773Y-107213753D01*
X122467569Y-107214117D01*
X122506423Y-107219406D01*
X122515958Y-107221674D01*
X122553013Y-107234433D01*
X122561923Y-107238516D01*
X122595797Y-107258269D01*
X122603740Y-107264014D01*
X122633108Y-107289996D01*
X122639776Y-107297179D01*
X122663504Y-107328382D01*
X122668644Y-107336728D01*
X122678106Y-107353930D01*
X122787698Y-107578628D01*
X123237095Y-107359443D01*
X123273849Y-107345792D01*
X123312560Y-107339574D01*
X123351740Y-107341028D01*
X123389883Y-107350098D01*
X123425524Y-107366434D01*
X123457294Y-107389410D01*
X123483970Y-107418143D01*
X123504528Y-107451527D01*
X124162085Y-108799718D01*
X124175735Y-108836472D01*
X124181953Y-108875183D01*
X124180500Y-108914363D01*
X124171430Y-108952506D01*
X124155093Y-108988148D01*
X124132118Y-109019917D01*
X124103385Y-109046593D01*
X124070001Y-109067151D01*
X123620603Y-109286337D01*
X123730196Y-109511036D01*
X123737926Y-109529081D01*
X123741339Y-109538270D01*
X123751319Y-109576179D01*
X123752873Y-109585856D01*
X123755267Y-109624995D01*
X123754903Y-109634790D01*
X123749614Y-109673644D01*
X123747347Y-109683179D01*
X123734588Y-109720235D01*
X123730504Y-109729145D01*
X123710751Y-109763018D01*
X123705007Y-109770961D01*
X123679024Y-109800329D01*
X123671842Y-109806998D01*
X123640638Y-109830726D01*
X123632292Y-109835866D01*
X123615091Y-109845327D01*
X121457985Y-110897418D01*
X121439939Y-110905148D01*
X121430750Y-110908560D01*
X121392842Y-110918540D01*
X121383165Y-110920095D01*
X121344026Y-110922488D01*
X121334230Y-110922125D01*
X121295376Y-110916836D01*
X121285841Y-110914568D01*
X121248786Y-110901809D01*
X121239876Y-110897725D01*
X121206003Y-110877972D01*
X121198059Y-110872228D01*
X121168691Y-110846246D01*
X121162023Y-110839063D01*
X121138295Y-110807860D01*
X121133155Y-110799513D01*
X121123694Y-110782312D01*
X120071603Y-108625206D01*
X120063873Y-108607160D01*
X120060460Y-108597971D01*
X120050480Y-108560063D01*
X120048926Y-108550386D01*
X120046532Y-108511247D01*
X120046896Y-108501451D01*
X120052185Y-108462598D01*
X120054452Y-108453062D01*
X120067211Y-108416007D01*
X120071295Y-108407097D01*
X120091048Y-108373224D01*
X120096792Y-108365281D01*
X120122775Y-108335913D01*
X120129957Y-108329244D01*
X120161161Y-108305516D01*
X120169507Y-108300376D01*
X120186709Y-108290915D01*
X122343814Y-107238824D01*
X122361860Y-107231094D01*
G37*
G36*
X109897289Y-110417706D02*
G01*
X109906478Y-110414294D01*
X109944387Y-110404314D01*
X109954064Y-110402759D01*
X109993203Y-110400366D01*
X110002999Y-110400729D01*
X110041852Y-110406018D01*
X110051387Y-110408286D01*
X110088443Y-110421045D01*
X110097353Y-110425129D01*
X110131226Y-110444882D01*
X110139169Y-110450626D01*
X110168537Y-110476609D01*
X110175206Y-110483791D01*
X110198934Y-110514994D01*
X110204074Y-110523341D01*
X110213535Y-110540542D01*
X111090277Y-112338130D01*
X111098007Y-112356176D01*
X111101420Y-112365365D01*
X111111400Y-112403274D01*
X111112954Y-112412951D01*
X111115348Y-112452089D01*
X111114984Y-112461885D01*
X111109696Y-112500739D01*
X111107428Y-112510274D01*
X111094629Y-112547417D01*
X111090519Y-112556373D01*
X111081406Y-112573893D01*
X110717478Y-113196433D01*
X110706749Y-113212876D01*
X110700997Y-113220812D01*
X110674983Y-113250151D01*
X110667792Y-113256813D01*
X110636664Y-113280444D01*
X110628360Y-113285552D01*
X110611244Y-113294962D01*
X108993414Y-114084030D01*
X108975369Y-114091760D01*
X108966180Y-114095173D01*
X108928271Y-114105153D01*
X108918594Y-114106707D01*
X108879455Y-114109101D01*
X108869660Y-114108737D01*
X108830806Y-114103448D01*
X108821271Y-114101181D01*
X108784215Y-114088421D01*
X108775305Y-114084338D01*
X108741432Y-114064585D01*
X108733489Y-114058840D01*
X108704121Y-114032858D01*
X108697452Y-114025675D01*
X108673724Y-113994472D01*
X108668584Y-113986126D01*
X108659123Y-113968924D01*
X108549530Y-113744226D01*
X108190013Y-113919574D01*
X108153259Y-113933225D01*
X108114548Y-113939443D01*
X108075368Y-113937989D01*
X108037225Y-113928919D01*
X108001584Y-113912583D01*
X107969814Y-113889607D01*
X107943138Y-113860874D01*
X107922580Y-113827490D01*
X107265023Y-112479299D01*
X107251373Y-112442545D01*
X107245155Y-112403834D01*
X107246608Y-112364654D01*
X107255678Y-112326511D01*
X107272015Y-112290869D01*
X107294990Y-112259100D01*
X107323723Y-112232424D01*
X107357107Y-112211866D01*
X107716625Y-112036517D01*
X107607032Y-111811819D01*
X107599302Y-111793773D01*
X107595890Y-111784584D01*
X107585910Y-111746675D01*
X107584355Y-111736998D01*
X107581962Y-111697860D01*
X107582325Y-111688064D01*
X107587614Y-111649210D01*
X107589882Y-111639675D01*
X107602641Y-111602619D01*
X107606724Y-111593710D01*
X107626478Y-111559836D01*
X107632222Y-111551893D01*
X107658204Y-111522525D01*
X107665387Y-111515856D01*
X107696590Y-111492128D01*
X107704937Y-111486988D01*
X107722138Y-111477527D01*
X109879244Y-110425437D01*
X109897289Y-110417706D01*
G37*
D14*
X99969685Y-121555186D03*
X93436335Y-123577419D03*
X97384236Y-120380472D03*
D15*
X98607233Y-125926847D03*
D16*
X102555134Y-122729899D03*
X94659332Y-129123795D03*
D14*
X94047832Y-126350606D03*
D17*
G36*
X102432144Y-117748034D02*
G01*
X102440330Y-117742642D01*
X102475022Y-117724390D01*
X102484101Y-117720699D01*
X102521699Y-117709562D01*
X102531325Y-117707713D01*
X102570373Y-117704126D01*
X102580174Y-117704191D01*
X102619150Y-117708287D01*
X102628750Y-117710262D01*
X102666198Y-117721889D01*
X102675230Y-117725699D01*
X102709690Y-117744409D01*
X102717804Y-117749907D01*
X102747943Y-117774973D01*
X102754829Y-117781950D01*
X102767917Y-117796582D01*
X102925247Y-117990868D01*
X103313820Y-117676208D01*
X103346561Y-117654640D01*
X103382881Y-117639873D01*
X103421383Y-117632476D01*
X103460589Y-117632734D01*
X103498992Y-117640633D01*
X103535115Y-117655874D01*
X103567572Y-117677869D01*
X103595113Y-117705773D01*
X104539094Y-118871492D01*
X104560662Y-118904233D01*
X104575429Y-118940553D01*
X104582825Y-118979056D01*
X104582568Y-119018262D01*
X104574668Y-119056665D01*
X104559428Y-119092788D01*
X104537433Y-119125244D01*
X104509528Y-119152786D01*
X104120955Y-119467446D01*
X104278286Y-119661732D01*
X104289877Y-119677577D01*
X104295269Y-119685762D01*
X104313521Y-119720454D01*
X104317212Y-119729534D01*
X104328349Y-119767131D01*
X104330198Y-119776757D01*
X104333785Y-119815805D01*
X104333720Y-119825606D01*
X104329624Y-119864582D01*
X104327649Y-119874182D01*
X104316022Y-119911630D01*
X104312212Y-119920662D01*
X104293502Y-119955122D01*
X104288004Y-119963236D01*
X104262938Y-119993375D01*
X104255961Y-120000261D01*
X104241329Y-120013349D01*
X102376179Y-121523718D01*
X102360335Y-121535309D01*
X102352149Y-121540701D01*
X102317457Y-121558953D01*
X102308377Y-121562645D01*
X102270780Y-121573781D01*
X102261154Y-121575630D01*
X102222106Y-121579217D01*
X102212305Y-121579153D01*
X102173329Y-121575056D01*
X102163729Y-121573082D01*
X102126281Y-121561455D01*
X102117249Y-121557644D01*
X102082789Y-121538934D01*
X102074675Y-121533436D01*
X102044536Y-121508370D01*
X102037650Y-121501394D01*
X102024562Y-121486761D01*
X100514193Y-119621611D01*
X100502602Y-119605767D01*
X100497210Y-119597581D01*
X100478958Y-119562889D01*
X100475267Y-119553810D01*
X100464130Y-119516212D01*
X100462281Y-119506586D01*
X100458694Y-119467538D01*
X100458758Y-119457737D01*
X100462855Y-119418761D01*
X100464830Y-119409161D01*
X100476456Y-119371713D01*
X100480267Y-119362681D01*
X100498977Y-119328221D01*
X100504475Y-119320108D01*
X100529541Y-119289968D01*
X100536517Y-119283083D01*
X100551150Y-119269994D01*
X102416300Y-117759626D01*
X102432144Y-117748034D01*
G37*
G36*
X91003872Y-123656891D02*
G01*
X91012058Y-123651499D01*
X91046750Y-123633247D01*
X91055829Y-123629556D01*
X91093426Y-123618419D01*
X91103053Y-123616570D01*
X91142100Y-123612983D01*
X91151901Y-123613047D01*
X91190877Y-123617144D01*
X91200477Y-123619119D01*
X91237926Y-123630745D01*
X91246957Y-123634556D01*
X91281418Y-123653266D01*
X91289531Y-123658764D01*
X91319670Y-123683830D01*
X91326556Y-123690806D01*
X91339644Y-123705439D01*
X92598285Y-125259731D01*
X92609876Y-125275575D01*
X92615268Y-125283761D01*
X92633520Y-125318453D01*
X92637212Y-125327532D01*
X92648348Y-125365129D01*
X92650198Y-125374756D01*
X92653784Y-125413803D01*
X92653720Y-125423604D01*
X92649604Y-125462674D01*
X92647614Y-125472325D01*
X92642676Y-125491446D01*
X92428117Y-126179897D01*
X92421362Y-126198332D01*
X92417542Y-126207358D01*
X92398794Y-126241798D01*
X92393287Y-126249906D01*
X92368272Y-126279934D01*
X92361330Y-126286779D01*
X92346769Y-126299798D01*
X90947906Y-127432575D01*
X90932062Y-127444166D01*
X90923876Y-127449558D01*
X90889184Y-127467810D01*
X90880105Y-127471501D01*
X90842508Y-127482638D01*
X90832881Y-127484487D01*
X90793834Y-127488074D01*
X90784033Y-127488009D01*
X90745057Y-127483913D01*
X90735457Y-127481938D01*
X90698008Y-127470311D01*
X90688976Y-127466501D01*
X90654516Y-127447791D01*
X90646403Y-127442293D01*
X90616264Y-127417227D01*
X90609378Y-127410250D01*
X90596290Y-127395618D01*
X90438960Y-127201332D01*
X90128101Y-127453060D01*
X90095360Y-127474628D01*
X90059040Y-127489395D01*
X90020538Y-127496792D01*
X89981332Y-127496534D01*
X89942929Y-127488635D01*
X89906806Y-127473394D01*
X89874349Y-127451399D01*
X89846808Y-127423495D01*
X88902827Y-126257776D01*
X88881259Y-126225035D01*
X88866492Y-126188715D01*
X88859096Y-126150212D01*
X88859353Y-126111006D01*
X88867253Y-126072603D01*
X88882493Y-126036480D01*
X88904488Y-126004024D01*
X88932393Y-125976482D01*
X89243251Y-125724754D01*
X89085921Y-125530468D01*
X89074330Y-125514624D01*
X89068937Y-125506438D01*
X89050685Y-125471746D01*
X89046994Y-125462666D01*
X89035858Y-125425069D01*
X89034008Y-125415443D01*
X89030421Y-125376395D01*
X89030486Y-125366594D01*
X89034582Y-125327618D01*
X89036557Y-125318018D01*
X89048184Y-125280570D01*
X89051994Y-125271538D01*
X89070704Y-125237078D01*
X89076203Y-125228964D01*
X89101269Y-125198825D01*
X89108245Y-125191939D01*
X89122877Y-125178851D01*
X90988028Y-123668482D01*
X91003872Y-123656891D01*
G37*
D14*
X200310000Y-91910000D03*
X193960000Y-89370000D03*
X199040000Y-89370000D03*
D15*
X196500000Y-94450000D03*
D16*
X201580000Y-94450000D03*
X191420000Y-94450000D03*
D14*
X192690000Y-91909999D03*
D17*
G36*
X204619608Y-90500963D02*
G01*
X204629363Y-90501924D01*
X204667810Y-90509572D01*
X204677189Y-90512417D01*
X204713416Y-90527423D01*
X204722061Y-90532044D01*
X204754664Y-90553830D01*
X204762240Y-90560048D01*
X204789952Y-90587760D01*
X204796170Y-90595336D01*
X204817956Y-90627939D01*
X204822577Y-90636584D01*
X204837583Y-90672811D01*
X204840428Y-90682190D01*
X204848076Y-90720637D01*
X204849037Y-90730392D01*
X204850000Y-90750000D01*
X204850000Y-91000000D01*
X205350000Y-91000000D01*
X205389018Y-91003843D01*
X205426537Y-91015224D01*
X205461114Y-91033706D01*
X205491421Y-91058579D01*
X205516294Y-91088886D01*
X205534776Y-91123463D01*
X205546157Y-91160982D01*
X205550000Y-91200000D01*
X205550000Y-92700000D01*
X205546157Y-92739018D01*
X205534776Y-92776537D01*
X205516294Y-92811114D01*
X205491421Y-92841421D01*
X205461114Y-92866294D01*
X205426537Y-92884776D01*
X205389018Y-92896157D01*
X205350000Y-92900000D01*
X204850000Y-92900000D01*
X204850000Y-93150000D01*
X204849037Y-93169608D01*
X204848076Y-93179363D01*
X204840428Y-93217810D01*
X204837583Y-93227189D01*
X204822577Y-93263416D01*
X204817956Y-93272061D01*
X204796170Y-93304664D01*
X204789952Y-93312240D01*
X204762240Y-93339952D01*
X204754664Y-93346170D01*
X204722061Y-93367956D01*
X204713416Y-93372577D01*
X204677189Y-93387583D01*
X204667810Y-93390428D01*
X204629363Y-93398076D01*
X204619608Y-93399037D01*
X204600000Y-93400000D01*
X202200000Y-93400000D01*
X202180392Y-93399037D01*
X202170637Y-93398076D01*
X202132190Y-93390428D01*
X202122811Y-93387583D01*
X202086584Y-93372577D01*
X202077939Y-93367956D01*
X202045336Y-93346170D01*
X202037760Y-93339952D01*
X202010048Y-93312240D01*
X202003830Y-93304664D01*
X201982044Y-93272061D01*
X201977423Y-93263416D01*
X201962417Y-93227189D01*
X201959572Y-93217810D01*
X201951924Y-93179363D01*
X201950963Y-93169608D01*
X201950000Y-93150000D01*
X201950000Y-90750000D01*
X201950963Y-90730392D01*
X201951924Y-90720637D01*
X201959572Y-90682190D01*
X201962417Y-90672811D01*
X201977423Y-90636584D01*
X201982044Y-90627939D01*
X202003830Y-90595336D01*
X202010048Y-90587760D01*
X202037760Y-90560048D01*
X202045336Y-90553830D01*
X202077939Y-90532044D01*
X202086584Y-90527423D01*
X202122811Y-90512417D01*
X202132190Y-90509572D01*
X202170637Y-90501924D01*
X202180392Y-90500963D01*
X202200000Y-90500000D01*
X204600000Y-90500000D01*
X204619608Y-90500963D01*
G37*
G36*
X192019608Y-87900963D02*
G01*
X192029363Y-87901924D01*
X192067810Y-87909572D01*
X192077189Y-87912417D01*
X192113416Y-87927423D01*
X192122061Y-87932044D01*
X192154664Y-87953830D01*
X192162240Y-87960048D01*
X192189952Y-87987760D01*
X192196170Y-87995336D01*
X192217956Y-88027939D01*
X192222577Y-88036584D01*
X192237583Y-88072811D01*
X192240428Y-88082190D01*
X192248076Y-88120637D01*
X192249037Y-88130392D01*
X192250000Y-88150000D01*
X192250000Y-90150000D01*
X192249037Y-90169608D01*
X192248076Y-90179363D01*
X192240428Y-90217810D01*
X192237583Y-90227189D01*
X192222577Y-90263416D01*
X192217956Y-90272061D01*
X192196170Y-90304664D01*
X192189952Y-90312240D01*
X192162166Y-90340013D01*
X192154546Y-90346261D01*
X192138675Y-90358013D01*
X191538675Y-90758013D01*
X191521824Y-90768089D01*
X191513175Y-90772700D01*
X191476932Y-90787666D01*
X191467549Y-90790501D01*
X191429212Y-90798095D01*
X191419509Y-90799046D01*
X191400000Y-90800000D01*
X189600000Y-90800000D01*
X189580392Y-90799037D01*
X189570637Y-90798076D01*
X189532190Y-90790428D01*
X189522811Y-90787583D01*
X189486584Y-90772577D01*
X189477939Y-90767956D01*
X189445336Y-90746170D01*
X189437760Y-90739952D01*
X189410048Y-90712240D01*
X189403830Y-90704664D01*
X189382044Y-90672061D01*
X189377423Y-90663416D01*
X189362417Y-90627189D01*
X189359572Y-90617810D01*
X189351924Y-90579363D01*
X189350963Y-90569608D01*
X189350000Y-90550000D01*
X189350000Y-90300000D01*
X188950000Y-90300000D01*
X188910982Y-90296157D01*
X188873463Y-90284776D01*
X188838886Y-90266294D01*
X188808579Y-90241421D01*
X188783706Y-90211114D01*
X188765224Y-90176537D01*
X188753843Y-90139018D01*
X188750000Y-90100000D01*
X188750000Y-88600000D01*
X188753843Y-88560982D01*
X188765224Y-88523463D01*
X188783706Y-88488886D01*
X188808579Y-88458579D01*
X188838886Y-88433706D01*
X188873463Y-88415224D01*
X188910982Y-88403843D01*
X188950000Y-88400000D01*
X189350000Y-88400000D01*
X189350000Y-88150000D01*
X189350963Y-88130392D01*
X189351924Y-88120637D01*
X189359572Y-88082190D01*
X189362417Y-88072811D01*
X189377423Y-88036584D01*
X189382044Y-88027939D01*
X189403830Y-87995336D01*
X189410048Y-87987760D01*
X189437760Y-87960048D01*
X189445336Y-87953830D01*
X189477939Y-87932044D01*
X189486584Y-87927423D01*
X189522811Y-87912417D01*
X189532190Y-87909572D01*
X189570637Y-87901924D01*
X189580392Y-87900963D01*
X189600000Y-87900000D01*
X192000000Y-87900000D01*
X192019608Y-87900963D01*
G37*
D14*
X181310000Y-83010000D03*
X174960000Y-80470000D03*
X180040000Y-80470000D03*
D15*
X177500000Y-85550000D03*
D16*
X182580000Y-85550000D03*
X172420000Y-85550000D03*
D14*
X173690000Y-83009999D03*
D17*
G36*
X185619608Y-81600963D02*
G01*
X185629363Y-81601924D01*
X185667810Y-81609572D01*
X185677189Y-81612417D01*
X185713416Y-81627423D01*
X185722061Y-81632044D01*
X185754664Y-81653830D01*
X185762240Y-81660048D01*
X185789952Y-81687760D01*
X185796170Y-81695336D01*
X185817956Y-81727939D01*
X185822577Y-81736584D01*
X185837583Y-81772811D01*
X185840428Y-81782190D01*
X185848076Y-81820637D01*
X185849037Y-81830392D01*
X185850000Y-81850000D01*
X185850000Y-82100000D01*
X186350000Y-82100000D01*
X186389018Y-82103843D01*
X186426537Y-82115224D01*
X186461114Y-82133706D01*
X186491421Y-82158579D01*
X186516294Y-82188886D01*
X186534776Y-82223463D01*
X186546157Y-82260982D01*
X186550000Y-82300000D01*
X186550000Y-83800000D01*
X186546157Y-83839018D01*
X186534776Y-83876537D01*
X186516294Y-83911114D01*
X186491421Y-83941421D01*
X186461114Y-83966294D01*
X186426537Y-83984776D01*
X186389018Y-83996157D01*
X186350000Y-84000000D01*
X185850000Y-84000000D01*
X185850000Y-84250000D01*
X185849037Y-84269608D01*
X185848076Y-84279363D01*
X185840428Y-84317810D01*
X185837583Y-84327189D01*
X185822577Y-84363416D01*
X185817956Y-84372061D01*
X185796170Y-84404664D01*
X185789952Y-84412240D01*
X185762240Y-84439952D01*
X185754664Y-84446170D01*
X185722061Y-84467956D01*
X185713416Y-84472577D01*
X185677189Y-84487583D01*
X185667810Y-84490428D01*
X185629363Y-84498076D01*
X185619608Y-84499037D01*
X185600000Y-84500000D01*
X183200000Y-84500000D01*
X183180392Y-84499037D01*
X183170637Y-84498076D01*
X183132190Y-84490428D01*
X183122811Y-84487583D01*
X183086584Y-84472577D01*
X183077939Y-84467956D01*
X183045336Y-84446170D01*
X183037760Y-84439952D01*
X183010048Y-84412240D01*
X183003830Y-84404664D01*
X182982044Y-84372061D01*
X182977423Y-84363416D01*
X182962417Y-84327189D01*
X182959572Y-84317810D01*
X182951924Y-84279363D01*
X182950963Y-84269608D01*
X182950000Y-84250000D01*
X182950000Y-81850000D01*
X182950963Y-81830392D01*
X182951924Y-81820637D01*
X182959572Y-81782190D01*
X182962417Y-81772811D01*
X182977423Y-81736584D01*
X182982044Y-81727939D01*
X183003830Y-81695336D01*
X183010048Y-81687760D01*
X183037760Y-81660048D01*
X183045336Y-81653830D01*
X183077939Y-81632044D01*
X183086584Y-81627423D01*
X183122811Y-81612417D01*
X183132190Y-81609572D01*
X183170637Y-81601924D01*
X183180392Y-81600963D01*
X183200000Y-81600000D01*
X185600000Y-81600000D01*
X185619608Y-81600963D01*
G37*
G36*
X173019608Y-79000963D02*
G01*
X173029363Y-79001924D01*
X173067810Y-79009572D01*
X173077189Y-79012417D01*
X173113416Y-79027423D01*
X173122061Y-79032044D01*
X173154664Y-79053830D01*
X173162240Y-79060048D01*
X173189952Y-79087760D01*
X173196170Y-79095336D01*
X173217956Y-79127939D01*
X173222577Y-79136584D01*
X173237583Y-79172811D01*
X173240428Y-79182190D01*
X173248076Y-79220637D01*
X173249037Y-79230392D01*
X173250000Y-79250000D01*
X173250000Y-81250000D01*
X173249037Y-81269608D01*
X173248076Y-81279363D01*
X173240428Y-81317810D01*
X173237583Y-81327189D01*
X173222577Y-81363416D01*
X173217956Y-81372061D01*
X173196170Y-81404664D01*
X173189952Y-81412240D01*
X173162166Y-81440013D01*
X173154546Y-81446261D01*
X173138675Y-81458013D01*
X172538675Y-81858013D01*
X172521824Y-81868089D01*
X172513175Y-81872700D01*
X172476932Y-81887666D01*
X172467549Y-81890501D01*
X172429212Y-81898095D01*
X172419509Y-81899046D01*
X172400000Y-81900000D01*
X170600000Y-81900000D01*
X170580392Y-81899037D01*
X170570637Y-81898076D01*
X170532190Y-81890428D01*
X170522811Y-81887583D01*
X170486584Y-81872577D01*
X170477939Y-81867956D01*
X170445336Y-81846170D01*
X170437760Y-81839952D01*
X170410048Y-81812240D01*
X170403830Y-81804664D01*
X170382044Y-81772061D01*
X170377423Y-81763416D01*
X170362417Y-81727189D01*
X170359572Y-81717810D01*
X170351924Y-81679363D01*
X170350963Y-81669608D01*
X170350000Y-81650000D01*
X170350000Y-81400000D01*
X169950000Y-81400000D01*
X169910982Y-81396157D01*
X169873463Y-81384776D01*
X169838886Y-81366294D01*
X169808579Y-81341421D01*
X169783706Y-81311114D01*
X169765224Y-81276537D01*
X169753843Y-81239018D01*
X169750000Y-81200000D01*
X169750000Y-79700000D01*
X169753843Y-79660982D01*
X169765224Y-79623463D01*
X169783706Y-79588886D01*
X169808579Y-79558579D01*
X169838886Y-79533706D01*
X169873463Y-79515224D01*
X169910982Y-79503843D01*
X169950000Y-79500000D01*
X170350000Y-79500000D01*
X170350000Y-79250000D01*
X170350963Y-79230392D01*
X170351924Y-79220637D01*
X170359572Y-79182190D01*
X170362417Y-79172811D01*
X170377423Y-79136584D01*
X170382044Y-79127939D01*
X170403830Y-79095336D01*
X170410048Y-79087760D01*
X170437760Y-79060048D01*
X170445336Y-79053830D01*
X170477939Y-79032044D01*
X170486584Y-79027423D01*
X170522811Y-79012417D01*
X170532190Y-79009572D01*
X170570637Y-79001924D01*
X170580392Y-79000963D01*
X170600000Y-79000000D01*
X173000000Y-79000000D01*
X173019608Y-79000963D01*
G37*
D14*
X162310000Y-80610000D03*
X155960000Y-78070000D03*
X161040000Y-78070000D03*
D15*
X158500000Y-83150000D03*
D16*
X163580000Y-83150000D03*
X153420000Y-83150000D03*
D14*
X154690000Y-80609999D03*
D17*
G36*
X166619608Y-79200963D02*
G01*
X166629363Y-79201924D01*
X166667810Y-79209572D01*
X166677189Y-79212417D01*
X166713416Y-79227423D01*
X166722061Y-79232044D01*
X166754664Y-79253830D01*
X166762240Y-79260048D01*
X166789952Y-79287760D01*
X166796170Y-79295336D01*
X166817956Y-79327939D01*
X166822577Y-79336584D01*
X166837583Y-79372811D01*
X166840428Y-79382190D01*
X166848076Y-79420637D01*
X166849037Y-79430392D01*
X166850000Y-79450000D01*
X166850000Y-79700000D01*
X167350000Y-79700000D01*
X167389018Y-79703843D01*
X167426537Y-79715224D01*
X167461114Y-79733706D01*
X167491421Y-79758579D01*
X167516294Y-79788886D01*
X167534776Y-79823463D01*
X167546157Y-79860982D01*
X167550000Y-79900000D01*
X167550000Y-81400000D01*
X167546157Y-81439018D01*
X167534776Y-81476537D01*
X167516294Y-81511114D01*
X167491421Y-81541421D01*
X167461114Y-81566294D01*
X167426537Y-81584776D01*
X167389018Y-81596157D01*
X167350000Y-81600000D01*
X166850000Y-81600000D01*
X166850000Y-81850000D01*
X166849037Y-81869608D01*
X166848076Y-81879363D01*
X166840428Y-81917810D01*
X166837583Y-81927189D01*
X166822577Y-81963416D01*
X166817956Y-81972061D01*
X166796170Y-82004664D01*
X166789952Y-82012240D01*
X166762240Y-82039952D01*
X166754664Y-82046170D01*
X166722061Y-82067956D01*
X166713416Y-82072577D01*
X166677189Y-82087583D01*
X166667810Y-82090428D01*
X166629363Y-82098076D01*
X166619608Y-82099037D01*
X166600000Y-82100000D01*
X164200000Y-82100000D01*
X164180392Y-82099037D01*
X164170637Y-82098076D01*
X164132190Y-82090428D01*
X164122811Y-82087583D01*
X164086584Y-82072577D01*
X164077939Y-82067956D01*
X164045336Y-82046170D01*
X164037760Y-82039952D01*
X164010048Y-82012240D01*
X164003830Y-82004664D01*
X163982044Y-81972061D01*
X163977423Y-81963416D01*
X163962417Y-81927189D01*
X163959572Y-81917810D01*
X163951924Y-81879363D01*
X163950963Y-81869608D01*
X163950000Y-81850000D01*
X163950000Y-79450000D01*
X163950963Y-79430392D01*
X163951924Y-79420637D01*
X163959572Y-79382190D01*
X163962417Y-79372811D01*
X163977423Y-79336584D01*
X163982044Y-79327939D01*
X164003830Y-79295336D01*
X164010048Y-79287760D01*
X164037760Y-79260048D01*
X164045336Y-79253830D01*
X164077939Y-79232044D01*
X164086584Y-79227423D01*
X164122811Y-79212417D01*
X164132190Y-79209572D01*
X164170637Y-79201924D01*
X164180392Y-79200963D01*
X164200000Y-79200000D01*
X166600000Y-79200000D01*
X166619608Y-79200963D01*
G37*
G36*
X154019608Y-76600963D02*
G01*
X154029363Y-76601924D01*
X154067810Y-76609572D01*
X154077189Y-76612417D01*
X154113416Y-76627423D01*
X154122061Y-76632044D01*
X154154664Y-76653830D01*
X154162240Y-76660048D01*
X154189952Y-76687760D01*
X154196170Y-76695336D01*
X154217956Y-76727939D01*
X154222577Y-76736584D01*
X154237583Y-76772811D01*
X154240428Y-76782190D01*
X154248076Y-76820637D01*
X154249037Y-76830392D01*
X154250000Y-76850000D01*
X154250000Y-78850000D01*
X154249037Y-78869608D01*
X154248076Y-78879363D01*
X154240428Y-78917810D01*
X154237583Y-78927189D01*
X154222577Y-78963416D01*
X154217956Y-78972061D01*
X154196170Y-79004664D01*
X154189952Y-79012240D01*
X154162166Y-79040013D01*
X154154546Y-79046261D01*
X154138675Y-79058013D01*
X153538675Y-79458013D01*
X153521824Y-79468089D01*
X153513175Y-79472700D01*
X153476932Y-79487666D01*
X153467549Y-79490501D01*
X153429212Y-79498095D01*
X153419509Y-79499046D01*
X153400000Y-79500000D01*
X151600000Y-79500000D01*
X151580392Y-79499037D01*
X151570637Y-79498076D01*
X151532190Y-79490428D01*
X151522811Y-79487583D01*
X151486584Y-79472577D01*
X151477939Y-79467956D01*
X151445336Y-79446170D01*
X151437760Y-79439952D01*
X151410048Y-79412240D01*
X151403830Y-79404664D01*
X151382044Y-79372061D01*
X151377423Y-79363416D01*
X151362417Y-79327189D01*
X151359572Y-79317810D01*
X151351924Y-79279363D01*
X151350963Y-79269608D01*
X151350000Y-79250000D01*
X151350000Y-79000000D01*
X150950000Y-79000000D01*
X150910982Y-78996157D01*
X150873463Y-78984776D01*
X150838886Y-78966294D01*
X150808579Y-78941421D01*
X150783706Y-78911114D01*
X150765224Y-78876537D01*
X150753843Y-78839018D01*
X150750000Y-78800000D01*
X150750000Y-77300000D01*
X150753843Y-77260982D01*
X150765224Y-77223463D01*
X150783706Y-77188886D01*
X150808579Y-77158579D01*
X150838886Y-77133706D01*
X150873463Y-77115224D01*
X150910982Y-77103843D01*
X150950000Y-77100000D01*
X151350000Y-77100000D01*
X151350000Y-76850000D01*
X151350963Y-76830392D01*
X151351924Y-76820637D01*
X151359572Y-76782190D01*
X151362417Y-76772811D01*
X151377423Y-76736584D01*
X151382044Y-76727939D01*
X151403830Y-76695336D01*
X151410048Y-76687760D01*
X151437760Y-76660048D01*
X151445336Y-76653830D01*
X151477939Y-76632044D01*
X151486584Y-76627423D01*
X151522811Y-76612417D01*
X151532190Y-76609572D01*
X151570637Y-76601924D01*
X151580392Y-76600963D01*
X151600000Y-76600000D01*
X154000000Y-76600000D01*
X154019608Y-76600963D01*
G37*
D14*
X143310000Y-83110000D03*
X136960000Y-80570000D03*
X142040000Y-80570000D03*
D15*
X139500000Y-85650000D03*
D16*
X144580000Y-85650000D03*
X134420000Y-85650000D03*
D14*
X135690000Y-83109999D03*
D17*
G36*
X147619608Y-81700963D02*
G01*
X147629363Y-81701924D01*
X147667810Y-81709572D01*
X147677189Y-81712417D01*
X147713416Y-81727423D01*
X147722061Y-81732044D01*
X147754664Y-81753830D01*
X147762240Y-81760048D01*
X147789952Y-81787760D01*
X147796170Y-81795336D01*
X147817956Y-81827939D01*
X147822577Y-81836584D01*
X147837583Y-81872811D01*
X147840428Y-81882190D01*
X147848076Y-81920637D01*
X147849037Y-81930392D01*
X147850000Y-81950000D01*
X147850000Y-82200000D01*
X148350000Y-82200000D01*
X148389018Y-82203843D01*
X148426537Y-82215224D01*
X148461114Y-82233706D01*
X148491421Y-82258579D01*
X148516294Y-82288886D01*
X148534776Y-82323463D01*
X148546157Y-82360982D01*
X148550000Y-82400000D01*
X148550000Y-83900000D01*
X148546157Y-83939018D01*
X148534776Y-83976537D01*
X148516294Y-84011114D01*
X148491421Y-84041421D01*
X148461114Y-84066294D01*
X148426537Y-84084776D01*
X148389018Y-84096157D01*
X148350000Y-84100000D01*
X147850000Y-84100000D01*
X147850000Y-84350000D01*
X147849037Y-84369608D01*
X147848076Y-84379363D01*
X147840428Y-84417810D01*
X147837583Y-84427189D01*
X147822577Y-84463416D01*
X147817956Y-84472061D01*
X147796170Y-84504664D01*
X147789952Y-84512240D01*
X147762240Y-84539952D01*
X147754664Y-84546170D01*
X147722061Y-84567956D01*
X147713416Y-84572577D01*
X147677189Y-84587583D01*
X147667810Y-84590428D01*
X147629363Y-84598076D01*
X147619608Y-84599037D01*
X147600000Y-84600000D01*
X145200000Y-84600000D01*
X145180392Y-84599037D01*
X145170637Y-84598076D01*
X145132190Y-84590428D01*
X145122811Y-84587583D01*
X145086584Y-84572577D01*
X145077939Y-84567956D01*
X145045336Y-84546170D01*
X145037760Y-84539952D01*
X145010048Y-84512240D01*
X145003830Y-84504664D01*
X144982044Y-84472061D01*
X144977423Y-84463416D01*
X144962417Y-84427189D01*
X144959572Y-84417810D01*
X144951924Y-84379363D01*
X144950963Y-84369608D01*
X144950000Y-84350000D01*
X144950000Y-81950000D01*
X144950963Y-81930392D01*
X144951924Y-81920637D01*
X144959572Y-81882190D01*
X144962417Y-81872811D01*
X144977423Y-81836584D01*
X144982044Y-81827939D01*
X145003830Y-81795336D01*
X145010048Y-81787760D01*
X145037760Y-81760048D01*
X145045336Y-81753830D01*
X145077939Y-81732044D01*
X145086584Y-81727423D01*
X145122811Y-81712417D01*
X145132190Y-81709572D01*
X145170637Y-81701924D01*
X145180392Y-81700963D01*
X145200000Y-81700000D01*
X147600000Y-81700000D01*
X147619608Y-81700963D01*
G37*
G36*
X135019608Y-79100963D02*
G01*
X135029363Y-79101924D01*
X135067810Y-79109572D01*
X135077189Y-79112417D01*
X135113416Y-79127423D01*
X135122061Y-79132044D01*
X135154664Y-79153830D01*
X135162240Y-79160048D01*
X135189952Y-79187760D01*
X135196170Y-79195336D01*
X135217956Y-79227939D01*
X135222577Y-79236584D01*
X135237583Y-79272811D01*
X135240428Y-79282190D01*
X135248076Y-79320637D01*
X135249037Y-79330392D01*
X135250000Y-79350000D01*
X135250000Y-81350000D01*
X135249037Y-81369608D01*
X135248076Y-81379363D01*
X135240428Y-81417810D01*
X135237583Y-81427189D01*
X135222577Y-81463416D01*
X135217956Y-81472061D01*
X135196170Y-81504664D01*
X135189952Y-81512240D01*
X135162166Y-81540013D01*
X135154546Y-81546261D01*
X135138675Y-81558013D01*
X134538675Y-81958013D01*
X134521824Y-81968089D01*
X134513175Y-81972700D01*
X134476932Y-81987666D01*
X134467549Y-81990501D01*
X134429212Y-81998095D01*
X134419509Y-81999046D01*
X134400000Y-82000000D01*
X132600000Y-82000000D01*
X132580392Y-81999037D01*
X132570637Y-81998076D01*
X132532190Y-81990428D01*
X132522811Y-81987583D01*
X132486584Y-81972577D01*
X132477939Y-81967956D01*
X132445336Y-81946170D01*
X132437760Y-81939952D01*
X132410048Y-81912240D01*
X132403830Y-81904664D01*
X132382044Y-81872061D01*
X132377423Y-81863416D01*
X132362417Y-81827189D01*
X132359572Y-81817810D01*
X132351924Y-81779363D01*
X132350963Y-81769608D01*
X132350000Y-81750000D01*
X132350000Y-81500000D01*
X131950000Y-81500000D01*
X131910982Y-81496157D01*
X131873463Y-81484776D01*
X131838886Y-81466294D01*
X131808579Y-81441421D01*
X131783706Y-81411114D01*
X131765224Y-81376537D01*
X131753843Y-81339018D01*
X131750000Y-81300000D01*
X131750000Y-79800000D01*
X131753843Y-79760982D01*
X131765224Y-79723463D01*
X131783706Y-79688886D01*
X131808579Y-79658579D01*
X131838886Y-79633706D01*
X131873463Y-79615224D01*
X131910982Y-79603843D01*
X131950000Y-79600000D01*
X132350000Y-79600000D01*
X132350000Y-79350000D01*
X132350963Y-79330392D01*
X132351924Y-79320637D01*
X132359572Y-79282190D01*
X132362417Y-79272811D01*
X132377423Y-79236584D01*
X132382044Y-79227939D01*
X132403830Y-79195336D01*
X132410048Y-79187760D01*
X132437760Y-79160048D01*
X132445336Y-79153830D01*
X132477939Y-79132044D01*
X132486584Y-79127423D01*
X132522811Y-79112417D01*
X132532190Y-79109572D01*
X132570637Y-79101924D01*
X132580392Y-79100963D01*
X132600000Y-79100000D01*
X135000000Y-79100000D01*
X135019608Y-79100963D01*
G37*
D14*
X124310000Y-85610000D03*
X117960000Y-83070000D03*
X123040000Y-83070000D03*
D15*
X120500000Y-88150000D03*
D16*
X125580000Y-88150000D03*
X115420000Y-88150000D03*
D14*
X116690000Y-85609999D03*
D17*
G36*
X128619608Y-84200963D02*
G01*
X128629363Y-84201924D01*
X128667810Y-84209572D01*
X128677189Y-84212417D01*
X128713416Y-84227423D01*
X128722061Y-84232044D01*
X128754664Y-84253830D01*
X128762240Y-84260048D01*
X128789952Y-84287760D01*
X128796170Y-84295336D01*
X128817956Y-84327939D01*
X128822577Y-84336584D01*
X128837583Y-84372811D01*
X128840428Y-84382190D01*
X128848076Y-84420637D01*
X128849037Y-84430392D01*
X128850000Y-84450000D01*
X128850000Y-84700000D01*
X129350000Y-84700000D01*
X129389018Y-84703843D01*
X129426537Y-84715224D01*
X129461114Y-84733706D01*
X129491421Y-84758579D01*
X129516294Y-84788886D01*
X129534776Y-84823463D01*
X129546157Y-84860982D01*
X129550000Y-84900000D01*
X129550000Y-86400000D01*
X129546157Y-86439018D01*
X129534776Y-86476537D01*
X129516294Y-86511114D01*
X129491421Y-86541421D01*
X129461114Y-86566294D01*
X129426537Y-86584776D01*
X129389018Y-86596157D01*
X129350000Y-86600000D01*
X128850000Y-86600000D01*
X128850000Y-86850000D01*
X128849037Y-86869608D01*
X128848076Y-86879363D01*
X128840428Y-86917810D01*
X128837583Y-86927189D01*
X128822577Y-86963416D01*
X128817956Y-86972061D01*
X128796170Y-87004664D01*
X128789952Y-87012240D01*
X128762240Y-87039952D01*
X128754664Y-87046170D01*
X128722061Y-87067956D01*
X128713416Y-87072577D01*
X128677189Y-87087583D01*
X128667810Y-87090428D01*
X128629363Y-87098076D01*
X128619608Y-87099037D01*
X128600000Y-87100000D01*
X126200000Y-87100000D01*
X126180392Y-87099037D01*
X126170637Y-87098076D01*
X126132190Y-87090428D01*
X126122811Y-87087583D01*
X126086584Y-87072577D01*
X126077939Y-87067956D01*
X126045336Y-87046170D01*
X126037760Y-87039952D01*
X126010048Y-87012240D01*
X126003830Y-87004664D01*
X125982044Y-86972061D01*
X125977423Y-86963416D01*
X125962417Y-86927189D01*
X125959572Y-86917810D01*
X125951924Y-86879363D01*
X125950963Y-86869608D01*
X125950000Y-86850000D01*
X125950000Y-84450000D01*
X125950963Y-84430392D01*
X125951924Y-84420637D01*
X125959572Y-84382190D01*
X125962417Y-84372811D01*
X125977423Y-84336584D01*
X125982044Y-84327939D01*
X126003830Y-84295336D01*
X126010048Y-84287760D01*
X126037760Y-84260048D01*
X126045336Y-84253830D01*
X126077939Y-84232044D01*
X126086584Y-84227423D01*
X126122811Y-84212417D01*
X126132190Y-84209572D01*
X126170637Y-84201924D01*
X126180392Y-84200963D01*
X126200000Y-84200000D01*
X128600000Y-84200000D01*
X128619608Y-84200963D01*
G37*
G36*
X116019608Y-81600963D02*
G01*
X116029363Y-81601924D01*
X116067810Y-81609572D01*
X116077189Y-81612417D01*
X116113416Y-81627423D01*
X116122061Y-81632044D01*
X116154664Y-81653830D01*
X116162240Y-81660048D01*
X116189952Y-81687760D01*
X116196170Y-81695336D01*
X116217956Y-81727939D01*
X116222577Y-81736584D01*
X116237583Y-81772811D01*
X116240428Y-81782190D01*
X116248076Y-81820637D01*
X116249037Y-81830392D01*
X116250000Y-81850000D01*
X116250000Y-83850000D01*
X116249037Y-83869608D01*
X116248076Y-83879363D01*
X116240428Y-83917810D01*
X116237583Y-83927189D01*
X116222577Y-83963416D01*
X116217956Y-83972061D01*
X116196170Y-84004664D01*
X116189952Y-84012240D01*
X116162166Y-84040013D01*
X116154546Y-84046261D01*
X116138675Y-84058013D01*
X115538675Y-84458013D01*
X115521824Y-84468089D01*
X115513175Y-84472700D01*
X115476932Y-84487666D01*
X115467549Y-84490501D01*
X115429212Y-84498095D01*
X115419509Y-84499046D01*
X115400000Y-84500000D01*
X113600000Y-84500000D01*
X113580392Y-84499037D01*
X113570637Y-84498076D01*
X113532190Y-84490428D01*
X113522811Y-84487583D01*
X113486584Y-84472577D01*
X113477939Y-84467956D01*
X113445336Y-84446170D01*
X113437760Y-84439952D01*
X113410048Y-84412240D01*
X113403830Y-84404664D01*
X113382044Y-84372061D01*
X113377423Y-84363416D01*
X113362417Y-84327189D01*
X113359572Y-84317810D01*
X113351924Y-84279363D01*
X113350963Y-84269608D01*
X113350000Y-84250000D01*
X113350000Y-84000000D01*
X112950000Y-84000000D01*
X112910982Y-83996157D01*
X112873463Y-83984776D01*
X112838886Y-83966294D01*
X112808579Y-83941421D01*
X112783706Y-83911114D01*
X112765224Y-83876537D01*
X112753843Y-83839018D01*
X112750000Y-83800000D01*
X112750000Y-82300000D01*
X112753843Y-82260982D01*
X112765224Y-82223463D01*
X112783706Y-82188886D01*
X112808579Y-82158579D01*
X112838886Y-82133706D01*
X112873463Y-82115224D01*
X112910982Y-82103843D01*
X112950000Y-82100000D01*
X113350000Y-82100000D01*
X113350000Y-81850000D01*
X113350963Y-81830392D01*
X113351924Y-81820637D01*
X113359572Y-81782190D01*
X113362417Y-81772811D01*
X113377423Y-81736584D01*
X113382044Y-81727939D01*
X113403830Y-81695336D01*
X113410048Y-81687760D01*
X113437760Y-81660048D01*
X113445336Y-81653830D01*
X113477939Y-81632044D01*
X113486584Y-81627423D01*
X113522811Y-81612417D01*
X113532190Y-81609572D01*
X113570637Y-81601924D01*
X113580392Y-81600963D01*
X113600000Y-81600000D01*
X116000000Y-81600000D01*
X116019608Y-81600963D01*
G37*
D14*
X200310000Y-73010000D03*
X193960000Y-70470000D03*
X199040000Y-70470000D03*
D15*
X196500000Y-75550000D03*
D16*
X201580000Y-75550000D03*
X191420000Y-75550000D03*
D14*
X192690000Y-73009999D03*
D17*
G36*
X204619608Y-71600963D02*
G01*
X204629363Y-71601924D01*
X204667810Y-71609572D01*
X204677189Y-71612417D01*
X204713416Y-71627423D01*
X204722061Y-71632044D01*
X204754664Y-71653830D01*
X204762240Y-71660048D01*
X204789952Y-71687760D01*
X204796170Y-71695336D01*
X204817956Y-71727939D01*
X204822577Y-71736584D01*
X204837583Y-71772811D01*
X204840428Y-71782190D01*
X204848076Y-71820637D01*
X204849037Y-71830392D01*
X204850000Y-71850000D01*
X204850000Y-72100000D01*
X205350000Y-72100000D01*
X205389018Y-72103843D01*
X205426537Y-72115224D01*
X205461114Y-72133706D01*
X205491421Y-72158579D01*
X205516294Y-72188886D01*
X205534776Y-72223463D01*
X205546157Y-72260982D01*
X205550000Y-72300000D01*
X205550000Y-73800000D01*
X205546157Y-73839018D01*
X205534776Y-73876537D01*
X205516294Y-73911114D01*
X205491421Y-73941421D01*
X205461114Y-73966294D01*
X205426537Y-73984776D01*
X205389018Y-73996157D01*
X205350000Y-74000000D01*
X204850000Y-74000000D01*
X204850000Y-74250000D01*
X204849037Y-74269608D01*
X204848076Y-74279363D01*
X204840428Y-74317810D01*
X204837583Y-74327189D01*
X204822577Y-74363416D01*
X204817956Y-74372061D01*
X204796170Y-74404664D01*
X204789952Y-74412240D01*
X204762240Y-74439952D01*
X204754664Y-74446170D01*
X204722061Y-74467956D01*
X204713416Y-74472577D01*
X204677189Y-74487583D01*
X204667810Y-74490428D01*
X204629363Y-74498076D01*
X204619608Y-74499037D01*
X204600000Y-74500000D01*
X202200000Y-74500000D01*
X202180392Y-74499037D01*
X202170637Y-74498076D01*
X202132190Y-74490428D01*
X202122811Y-74487583D01*
X202086584Y-74472577D01*
X202077939Y-74467956D01*
X202045336Y-74446170D01*
X202037760Y-74439952D01*
X202010048Y-74412240D01*
X202003830Y-74404664D01*
X201982044Y-74372061D01*
X201977423Y-74363416D01*
X201962417Y-74327189D01*
X201959572Y-74317810D01*
X201951924Y-74279363D01*
X201950963Y-74269608D01*
X201950000Y-74250000D01*
X201950000Y-71850000D01*
X201950963Y-71830392D01*
X201951924Y-71820637D01*
X201959572Y-71782190D01*
X201962417Y-71772811D01*
X201977423Y-71736584D01*
X201982044Y-71727939D01*
X202003830Y-71695336D01*
X202010048Y-71687760D01*
X202037760Y-71660048D01*
X202045336Y-71653830D01*
X202077939Y-71632044D01*
X202086584Y-71627423D01*
X202122811Y-71612417D01*
X202132190Y-71609572D01*
X202170637Y-71601924D01*
X202180392Y-71600963D01*
X202200000Y-71600000D01*
X204600000Y-71600000D01*
X204619608Y-71600963D01*
G37*
G36*
X192019608Y-69000963D02*
G01*
X192029363Y-69001924D01*
X192067810Y-69009572D01*
X192077189Y-69012417D01*
X192113416Y-69027423D01*
X192122061Y-69032044D01*
X192154664Y-69053830D01*
X192162240Y-69060048D01*
X192189952Y-69087760D01*
X192196170Y-69095336D01*
X192217956Y-69127939D01*
X192222577Y-69136584D01*
X192237583Y-69172811D01*
X192240428Y-69182190D01*
X192248076Y-69220637D01*
X192249037Y-69230392D01*
X192250000Y-69250000D01*
X192250000Y-71250000D01*
X192249037Y-71269608D01*
X192248076Y-71279363D01*
X192240428Y-71317810D01*
X192237583Y-71327189D01*
X192222577Y-71363416D01*
X192217956Y-71372061D01*
X192196170Y-71404664D01*
X192189952Y-71412240D01*
X192162166Y-71440013D01*
X192154546Y-71446261D01*
X192138675Y-71458013D01*
X191538675Y-71858013D01*
X191521824Y-71868089D01*
X191513175Y-71872700D01*
X191476932Y-71887666D01*
X191467549Y-71890501D01*
X191429212Y-71898095D01*
X191419509Y-71899046D01*
X191400000Y-71900000D01*
X189600000Y-71900000D01*
X189580392Y-71899037D01*
X189570637Y-71898076D01*
X189532190Y-71890428D01*
X189522811Y-71887583D01*
X189486584Y-71872577D01*
X189477939Y-71867956D01*
X189445336Y-71846170D01*
X189437760Y-71839952D01*
X189410048Y-71812240D01*
X189403830Y-71804664D01*
X189382044Y-71772061D01*
X189377423Y-71763416D01*
X189362417Y-71727189D01*
X189359572Y-71717810D01*
X189351924Y-71679363D01*
X189350963Y-71669608D01*
X189350000Y-71650000D01*
X189350000Y-71400000D01*
X188950000Y-71400000D01*
X188910982Y-71396157D01*
X188873463Y-71384776D01*
X188838886Y-71366294D01*
X188808579Y-71341421D01*
X188783706Y-71311114D01*
X188765224Y-71276537D01*
X188753843Y-71239018D01*
X188750000Y-71200000D01*
X188750000Y-69700000D01*
X188753843Y-69660982D01*
X188765224Y-69623463D01*
X188783706Y-69588886D01*
X188808579Y-69558579D01*
X188838886Y-69533706D01*
X188873463Y-69515224D01*
X188910982Y-69503843D01*
X188950000Y-69500000D01*
X189350000Y-69500000D01*
X189350000Y-69250000D01*
X189350963Y-69230392D01*
X189351924Y-69220637D01*
X189359572Y-69182190D01*
X189362417Y-69172811D01*
X189377423Y-69136584D01*
X189382044Y-69127939D01*
X189403830Y-69095336D01*
X189410048Y-69087760D01*
X189437760Y-69060048D01*
X189445336Y-69053830D01*
X189477939Y-69032044D01*
X189486584Y-69027423D01*
X189522811Y-69012417D01*
X189532190Y-69009572D01*
X189570637Y-69001924D01*
X189580392Y-69000963D01*
X189600000Y-69000000D01*
X192000000Y-69000000D01*
X192019608Y-69000963D01*
G37*
D14*
X181310000Y-64010000D03*
X174960000Y-61470000D03*
X180040000Y-61470000D03*
D15*
X177500000Y-66550000D03*
D16*
X182580000Y-66550000D03*
X172420000Y-66550000D03*
D14*
X173690000Y-64009999D03*
D17*
G36*
X185619608Y-62600963D02*
G01*
X185629363Y-62601924D01*
X185667810Y-62609572D01*
X185677189Y-62612417D01*
X185713416Y-62627423D01*
X185722061Y-62632044D01*
X185754664Y-62653830D01*
X185762240Y-62660048D01*
X185789952Y-62687760D01*
X185796170Y-62695336D01*
X185817956Y-62727939D01*
X185822577Y-62736584D01*
X185837583Y-62772811D01*
X185840428Y-62782190D01*
X185848076Y-62820637D01*
X185849037Y-62830392D01*
X185850000Y-62850000D01*
X185850000Y-63100000D01*
X186350000Y-63100000D01*
X186389018Y-63103843D01*
X186426537Y-63115224D01*
X186461114Y-63133706D01*
X186491421Y-63158579D01*
X186516294Y-63188886D01*
X186534776Y-63223463D01*
X186546157Y-63260982D01*
X186550000Y-63300000D01*
X186550000Y-64800000D01*
X186546157Y-64839018D01*
X186534776Y-64876537D01*
X186516294Y-64911114D01*
X186491421Y-64941421D01*
X186461114Y-64966294D01*
X186426537Y-64984776D01*
X186389018Y-64996157D01*
X186350000Y-65000000D01*
X185850000Y-65000000D01*
X185850000Y-65250000D01*
X185849037Y-65269608D01*
X185848076Y-65279363D01*
X185840428Y-65317810D01*
X185837583Y-65327189D01*
X185822577Y-65363416D01*
X185817956Y-65372061D01*
X185796170Y-65404664D01*
X185789952Y-65412240D01*
X185762240Y-65439952D01*
X185754664Y-65446170D01*
X185722061Y-65467956D01*
X185713416Y-65472577D01*
X185677189Y-65487583D01*
X185667810Y-65490428D01*
X185629363Y-65498076D01*
X185619608Y-65499037D01*
X185600000Y-65500000D01*
X183200000Y-65500000D01*
X183180392Y-65499037D01*
X183170637Y-65498076D01*
X183132190Y-65490428D01*
X183122811Y-65487583D01*
X183086584Y-65472577D01*
X183077939Y-65467956D01*
X183045336Y-65446170D01*
X183037760Y-65439952D01*
X183010048Y-65412240D01*
X183003830Y-65404664D01*
X182982044Y-65372061D01*
X182977423Y-65363416D01*
X182962417Y-65327189D01*
X182959572Y-65317810D01*
X182951924Y-65279363D01*
X182950963Y-65269608D01*
X182950000Y-65250000D01*
X182950000Y-62850000D01*
X182950963Y-62830392D01*
X182951924Y-62820637D01*
X182959572Y-62782190D01*
X182962417Y-62772811D01*
X182977423Y-62736584D01*
X182982044Y-62727939D01*
X183003830Y-62695336D01*
X183010048Y-62687760D01*
X183037760Y-62660048D01*
X183045336Y-62653830D01*
X183077939Y-62632044D01*
X183086584Y-62627423D01*
X183122811Y-62612417D01*
X183132190Y-62609572D01*
X183170637Y-62601924D01*
X183180392Y-62600963D01*
X183200000Y-62600000D01*
X185600000Y-62600000D01*
X185619608Y-62600963D01*
G37*
G36*
X173019608Y-60000963D02*
G01*
X173029363Y-60001924D01*
X173067810Y-60009572D01*
X173077189Y-60012417D01*
X173113416Y-60027423D01*
X173122061Y-60032044D01*
X173154664Y-60053830D01*
X173162240Y-60060048D01*
X173189952Y-60087760D01*
X173196170Y-60095336D01*
X173217956Y-60127939D01*
X173222577Y-60136584D01*
X173237583Y-60172811D01*
X173240428Y-60182190D01*
X173248076Y-60220637D01*
X173249037Y-60230392D01*
X173250000Y-60250000D01*
X173250000Y-62250000D01*
X173249037Y-62269608D01*
X173248076Y-62279363D01*
X173240428Y-62317810D01*
X173237583Y-62327189D01*
X173222577Y-62363416D01*
X173217956Y-62372061D01*
X173196170Y-62404664D01*
X173189952Y-62412240D01*
X173162166Y-62440013D01*
X173154546Y-62446261D01*
X173138675Y-62458013D01*
X172538675Y-62858013D01*
X172521824Y-62868089D01*
X172513175Y-62872700D01*
X172476932Y-62887666D01*
X172467549Y-62890501D01*
X172429212Y-62898095D01*
X172419509Y-62899046D01*
X172400000Y-62900000D01*
X170600000Y-62900000D01*
X170580392Y-62899037D01*
X170570637Y-62898076D01*
X170532190Y-62890428D01*
X170522811Y-62887583D01*
X170486584Y-62872577D01*
X170477939Y-62867956D01*
X170445336Y-62846170D01*
X170437760Y-62839952D01*
X170410048Y-62812240D01*
X170403830Y-62804664D01*
X170382044Y-62772061D01*
X170377423Y-62763416D01*
X170362417Y-62727189D01*
X170359572Y-62717810D01*
X170351924Y-62679363D01*
X170350963Y-62669608D01*
X170350000Y-62650000D01*
X170350000Y-62400000D01*
X169950000Y-62400000D01*
X169910982Y-62396157D01*
X169873463Y-62384776D01*
X169838886Y-62366294D01*
X169808579Y-62341421D01*
X169783706Y-62311114D01*
X169765224Y-62276537D01*
X169753843Y-62239018D01*
X169750000Y-62200000D01*
X169750000Y-60700000D01*
X169753843Y-60660982D01*
X169765224Y-60623463D01*
X169783706Y-60588886D01*
X169808579Y-60558579D01*
X169838886Y-60533706D01*
X169873463Y-60515224D01*
X169910982Y-60503843D01*
X169950000Y-60500000D01*
X170350000Y-60500000D01*
X170350000Y-60250000D01*
X170350963Y-60230392D01*
X170351924Y-60220637D01*
X170359572Y-60182190D01*
X170362417Y-60172811D01*
X170377423Y-60136584D01*
X170382044Y-60127939D01*
X170403830Y-60095336D01*
X170410048Y-60087760D01*
X170437760Y-60060048D01*
X170445336Y-60053830D01*
X170477939Y-60032044D01*
X170486584Y-60027423D01*
X170522811Y-60012417D01*
X170532190Y-60009572D01*
X170570637Y-60001924D01*
X170580392Y-60000963D01*
X170600000Y-60000000D01*
X173000000Y-60000000D01*
X173019608Y-60000963D01*
G37*
D14*
X162310000Y-61520000D03*
X155960000Y-58980000D03*
X161040000Y-58980000D03*
D15*
X158500000Y-64060000D03*
D16*
X163580000Y-64060000D03*
X153420000Y-64060000D03*
D14*
X154690000Y-61519999D03*
D17*
G36*
X166619608Y-60110963D02*
G01*
X166629363Y-60111924D01*
X166667810Y-60119572D01*
X166677189Y-60122417D01*
X166713416Y-60137423D01*
X166722061Y-60142044D01*
X166754664Y-60163830D01*
X166762240Y-60170048D01*
X166789952Y-60197760D01*
X166796170Y-60205336D01*
X166817956Y-60237939D01*
X166822577Y-60246584D01*
X166837583Y-60282811D01*
X166840428Y-60292190D01*
X166848076Y-60330637D01*
X166849037Y-60340392D01*
X166850000Y-60360000D01*
X166850000Y-60610000D01*
X167350000Y-60610000D01*
X167389018Y-60613843D01*
X167426537Y-60625224D01*
X167461114Y-60643706D01*
X167491421Y-60668579D01*
X167516294Y-60698886D01*
X167534776Y-60733463D01*
X167546157Y-60770982D01*
X167550000Y-60810000D01*
X167550000Y-62310000D01*
X167546157Y-62349018D01*
X167534776Y-62386537D01*
X167516294Y-62421114D01*
X167491421Y-62451421D01*
X167461114Y-62476294D01*
X167426537Y-62494776D01*
X167389018Y-62506157D01*
X167350000Y-62510000D01*
X166850000Y-62510000D01*
X166850000Y-62760000D01*
X166849037Y-62779608D01*
X166848076Y-62789363D01*
X166840428Y-62827810D01*
X166837583Y-62837189D01*
X166822577Y-62873416D01*
X166817956Y-62882061D01*
X166796170Y-62914664D01*
X166789952Y-62922240D01*
X166762240Y-62949952D01*
X166754664Y-62956170D01*
X166722061Y-62977956D01*
X166713416Y-62982577D01*
X166677189Y-62997583D01*
X166667810Y-63000428D01*
X166629363Y-63008076D01*
X166619608Y-63009037D01*
X166600000Y-63010000D01*
X164200000Y-63010000D01*
X164180392Y-63009037D01*
X164170637Y-63008076D01*
X164132190Y-63000428D01*
X164122811Y-62997583D01*
X164086584Y-62982577D01*
X164077939Y-62977956D01*
X164045336Y-62956170D01*
X164037760Y-62949952D01*
X164010048Y-62922240D01*
X164003830Y-62914664D01*
X163982044Y-62882061D01*
X163977423Y-62873416D01*
X163962417Y-62837189D01*
X163959572Y-62827810D01*
X163951924Y-62789363D01*
X163950963Y-62779608D01*
X163950000Y-62760000D01*
X163950000Y-60360000D01*
X163950963Y-60340392D01*
X163951924Y-60330637D01*
X163959572Y-60292190D01*
X163962417Y-60282811D01*
X163977423Y-60246584D01*
X163982044Y-60237939D01*
X164003830Y-60205336D01*
X164010048Y-60197760D01*
X164037760Y-60170048D01*
X164045336Y-60163830D01*
X164077939Y-60142044D01*
X164086584Y-60137423D01*
X164122811Y-60122417D01*
X164132190Y-60119572D01*
X164170637Y-60111924D01*
X164180392Y-60110963D01*
X164200000Y-60110000D01*
X166600000Y-60110000D01*
X166619608Y-60110963D01*
G37*
G36*
X154019608Y-57510963D02*
G01*
X154029363Y-57511924D01*
X154067810Y-57519572D01*
X154077189Y-57522417D01*
X154113416Y-57537423D01*
X154122061Y-57542044D01*
X154154664Y-57563830D01*
X154162240Y-57570048D01*
X154189952Y-57597760D01*
X154196170Y-57605336D01*
X154217956Y-57637939D01*
X154222577Y-57646584D01*
X154237583Y-57682811D01*
X154240428Y-57692190D01*
X154248076Y-57730637D01*
X154249037Y-57740392D01*
X154250000Y-57760000D01*
X154250000Y-59760000D01*
X154249037Y-59779608D01*
X154248076Y-59789363D01*
X154240428Y-59827810D01*
X154237583Y-59837189D01*
X154222577Y-59873416D01*
X154217956Y-59882061D01*
X154196170Y-59914664D01*
X154189952Y-59922240D01*
X154162166Y-59950013D01*
X154154546Y-59956261D01*
X154138675Y-59968013D01*
X153538675Y-60368013D01*
X153521824Y-60378089D01*
X153513175Y-60382700D01*
X153476932Y-60397666D01*
X153467549Y-60400501D01*
X153429212Y-60408095D01*
X153419509Y-60409046D01*
X153400000Y-60410000D01*
X151600000Y-60410000D01*
X151580392Y-60409037D01*
X151570637Y-60408076D01*
X151532190Y-60400428D01*
X151522811Y-60397583D01*
X151486584Y-60382577D01*
X151477939Y-60377956D01*
X151445336Y-60356170D01*
X151437760Y-60349952D01*
X151410048Y-60322240D01*
X151403830Y-60314664D01*
X151382044Y-60282061D01*
X151377423Y-60273416D01*
X151362417Y-60237189D01*
X151359572Y-60227810D01*
X151351924Y-60189363D01*
X151350963Y-60179608D01*
X151350000Y-60160000D01*
X151350000Y-59910000D01*
X150950000Y-59910000D01*
X150910982Y-59906157D01*
X150873463Y-59894776D01*
X150838886Y-59876294D01*
X150808579Y-59851421D01*
X150783706Y-59821114D01*
X150765224Y-59786537D01*
X150753843Y-59749018D01*
X150750000Y-59710000D01*
X150750000Y-58210000D01*
X150753843Y-58170982D01*
X150765224Y-58133463D01*
X150783706Y-58098886D01*
X150808579Y-58068579D01*
X150838886Y-58043706D01*
X150873463Y-58025224D01*
X150910982Y-58013843D01*
X150950000Y-58010000D01*
X151350000Y-58010000D01*
X151350000Y-57760000D01*
X151350963Y-57740392D01*
X151351924Y-57730637D01*
X151359572Y-57692190D01*
X151362417Y-57682811D01*
X151377423Y-57646584D01*
X151382044Y-57637939D01*
X151403830Y-57605336D01*
X151410048Y-57597760D01*
X151437760Y-57570048D01*
X151445336Y-57563830D01*
X151477939Y-57542044D01*
X151486584Y-57537423D01*
X151522811Y-57522417D01*
X151532190Y-57519572D01*
X151570637Y-57511924D01*
X151580392Y-57510963D01*
X151600000Y-57510000D01*
X154000000Y-57510000D01*
X154019608Y-57510963D01*
G37*
D14*
X143310000Y-64010000D03*
X136960000Y-61470000D03*
X142040000Y-61470000D03*
D15*
X139500000Y-66550000D03*
D16*
X144580000Y-66550000D03*
X134420000Y-66550000D03*
D14*
X135690000Y-64009999D03*
D17*
G36*
X147619608Y-62600963D02*
G01*
X147629363Y-62601924D01*
X147667810Y-62609572D01*
X147677189Y-62612417D01*
X147713416Y-62627423D01*
X147722061Y-62632044D01*
X147754664Y-62653830D01*
X147762240Y-62660048D01*
X147789952Y-62687760D01*
X147796170Y-62695336D01*
X147817956Y-62727939D01*
X147822577Y-62736584D01*
X147837583Y-62772811D01*
X147840428Y-62782190D01*
X147848076Y-62820637D01*
X147849037Y-62830392D01*
X147850000Y-62850000D01*
X147850000Y-63100000D01*
X148350000Y-63100000D01*
X148389018Y-63103843D01*
X148426537Y-63115224D01*
X148461114Y-63133706D01*
X148491421Y-63158579D01*
X148516294Y-63188886D01*
X148534776Y-63223463D01*
X148546157Y-63260982D01*
X148550000Y-63300000D01*
X148550000Y-64800000D01*
X148546157Y-64839018D01*
X148534776Y-64876537D01*
X148516294Y-64911114D01*
X148491421Y-64941421D01*
X148461114Y-64966294D01*
X148426537Y-64984776D01*
X148389018Y-64996157D01*
X148350000Y-65000000D01*
X147850000Y-65000000D01*
X147850000Y-65250000D01*
X147849037Y-65269608D01*
X147848076Y-65279363D01*
X147840428Y-65317810D01*
X147837583Y-65327189D01*
X147822577Y-65363416D01*
X147817956Y-65372061D01*
X147796170Y-65404664D01*
X147789952Y-65412240D01*
X147762240Y-65439952D01*
X147754664Y-65446170D01*
X147722061Y-65467956D01*
X147713416Y-65472577D01*
X147677189Y-65487583D01*
X147667810Y-65490428D01*
X147629363Y-65498076D01*
X147619608Y-65499037D01*
X147600000Y-65500000D01*
X145200000Y-65500000D01*
X145180392Y-65499037D01*
X145170637Y-65498076D01*
X145132190Y-65490428D01*
X145122811Y-65487583D01*
X145086584Y-65472577D01*
X145077939Y-65467956D01*
X145045336Y-65446170D01*
X145037760Y-65439952D01*
X145010048Y-65412240D01*
X145003830Y-65404664D01*
X144982044Y-65372061D01*
X144977423Y-65363416D01*
X144962417Y-65327189D01*
X144959572Y-65317810D01*
X144951924Y-65279363D01*
X144950963Y-65269608D01*
X144950000Y-65250000D01*
X144950000Y-62850000D01*
X144950963Y-62830392D01*
X144951924Y-62820637D01*
X144959572Y-62782190D01*
X144962417Y-62772811D01*
X144977423Y-62736584D01*
X144982044Y-62727939D01*
X145003830Y-62695336D01*
X145010048Y-62687760D01*
X145037760Y-62660048D01*
X145045336Y-62653830D01*
X145077939Y-62632044D01*
X145086584Y-62627423D01*
X145122811Y-62612417D01*
X145132190Y-62609572D01*
X145170637Y-62601924D01*
X145180392Y-62600963D01*
X145200000Y-62600000D01*
X147600000Y-62600000D01*
X147619608Y-62600963D01*
G37*
G36*
X135019608Y-60000963D02*
G01*
X135029363Y-60001924D01*
X135067810Y-60009572D01*
X135077189Y-60012417D01*
X135113416Y-60027423D01*
X135122061Y-60032044D01*
X135154664Y-60053830D01*
X135162240Y-60060048D01*
X135189952Y-60087760D01*
X135196170Y-60095336D01*
X135217956Y-60127939D01*
X135222577Y-60136584D01*
X135237583Y-60172811D01*
X135240428Y-60182190D01*
X135248076Y-60220637D01*
X135249037Y-60230392D01*
X135250000Y-60250000D01*
X135250000Y-62250000D01*
X135249037Y-62269608D01*
X135248076Y-62279363D01*
X135240428Y-62317810D01*
X135237583Y-62327189D01*
X135222577Y-62363416D01*
X135217956Y-62372061D01*
X135196170Y-62404664D01*
X135189952Y-62412240D01*
X135162166Y-62440013D01*
X135154546Y-62446261D01*
X135138675Y-62458013D01*
X134538675Y-62858013D01*
X134521824Y-62868089D01*
X134513175Y-62872700D01*
X134476932Y-62887666D01*
X134467549Y-62890501D01*
X134429212Y-62898095D01*
X134419509Y-62899046D01*
X134400000Y-62900000D01*
X132600000Y-62900000D01*
X132580392Y-62899037D01*
X132570637Y-62898076D01*
X132532190Y-62890428D01*
X132522811Y-62887583D01*
X132486584Y-62872577D01*
X132477939Y-62867956D01*
X132445336Y-62846170D01*
X132437760Y-62839952D01*
X132410048Y-62812240D01*
X132403830Y-62804664D01*
X132382044Y-62772061D01*
X132377423Y-62763416D01*
X132362417Y-62727189D01*
X132359572Y-62717810D01*
X132351924Y-62679363D01*
X132350963Y-62669608D01*
X132350000Y-62650000D01*
X132350000Y-62400000D01*
X131950000Y-62400000D01*
X131910982Y-62396157D01*
X131873463Y-62384776D01*
X131838886Y-62366294D01*
X131808579Y-62341421D01*
X131783706Y-62311114D01*
X131765224Y-62276537D01*
X131753843Y-62239018D01*
X131750000Y-62200000D01*
X131750000Y-60700000D01*
X131753843Y-60660982D01*
X131765224Y-60623463D01*
X131783706Y-60588886D01*
X131808579Y-60558579D01*
X131838886Y-60533706D01*
X131873463Y-60515224D01*
X131910982Y-60503843D01*
X131950000Y-60500000D01*
X132350000Y-60500000D01*
X132350000Y-60250000D01*
X132350963Y-60230392D01*
X132351924Y-60220637D01*
X132359572Y-60182190D01*
X132362417Y-60172811D01*
X132377423Y-60136584D01*
X132382044Y-60127939D01*
X132403830Y-60095336D01*
X132410048Y-60087760D01*
X132437760Y-60060048D01*
X132445336Y-60053830D01*
X132477939Y-60032044D01*
X132486584Y-60027423D01*
X132522811Y-60012417D01*
X132532190Y-60009572D01*
X132570637Y-60001924D01*
X132580392Y-60000963D01*
X132600000Y-60000000D01*
X135000000Y-60000000D01*
X135019608Y-60000963D01*
G37*
D14*
X124310000Y-66510000D03*
X117960000Y-63970000D03*
X123040000Y-63970000D03*
D15*
X120500000Y-69050000D03*
D16*
X125580000Y-69050000D03*
X115420000Y-69050000D03*
D14*
X116690000Y-66509999D03*
D17*
G36*
X128619608Y-65100963D02*
G01*
X128629363Y-65101924D01*
X128667810Y-65109572D01*
X128677189Y-65112417D01*
X128713416Y-65127423D01*
X128722061Y-65132044D01*
X128754664Y-65153830D01*
X128762240Y-65160048D01*
X128789952Y-65187760D01*
X128796170Y-65195336D01*
X128817956Y-65227939D01*
X128822577Y-65236584D01*
X128837583Y-65272811D01*
X128840428Y-65282190D01*
X128848076Y-65320637D01*
X128849037Y-65330392D01*
X128850000Y-65350000D01*
X128850000Y-65600000D01*
X129350000Y-65600000D01*
X129389018Y-65603843D01*
X129426537Y-65615224D01*
X129461114Y-65633706D01*
X129491421Y-65658579D01*
X129516294Y-65688886D01*
X129534776Y-65723463D01*
X129546157Y-65760982D01*
X129550000Y-65800000D01*
X129550000Y-67300000D01*
X129546157Y-67339018D01*
X129534776Y-67376537D01*
X129516294Y-67411114D01*
X129491421Y-67441421D01*
X129461114Y-67466294D01*
X129426537Y-67484776D01*
X129389018Y-67496157D01*
X129350000Y-67500000D01*
X128850000Y-67500000D01*
X128850000Y-67750000D01*
X128849037Y-67769608D01*
X128848076Y-67779363D01*
X128840428Y-67817810D01*
X128837583Y-67827189D01*
X128822577Y-67863416D01*
X128817956Y-67872061D01*
X128796170Y-67904664D01*
X128789952Y-67912240D01*
X128762240Y-67939952D01*
X128754664Y-67946170D01*
X128722061Y-67967956D01*
X128713416Y-67972577D01*
X128677189Y-67987583D01*
X128667810Y-67990428D01*
X128629363Y-67998076D01*
X128619608Y-67999037D01*
X128600000Y-68000000D01*
X126200000Y-68000000D01*
X126180392Y-67999037D01*
X126170637Y-67998076D01*
X126132190Y-67990428D01*
X126122811Y-67987583D01*
X126086584Y-67972577D01*
X126077939Y-67967956D01*
X126045336Y-67946170D01*
X126037760Y-67939952D01*
X126010048Y-67912240D01*
X126003830Y-67904664D01*
X125982044Y-67872061D01*
X125977423Y-67863416D01*
X125962417Y-67827189D01*
X125959572Y-67817810D01*
X125951924Y-67779363D01*
X125950963Y-67769608D01*
X125950000Y-67750000D01*
X125950000Y-65350000D01*
X125950963Y-65330392D01*
X125951924Y-65320637D01*
X125959572Y-65282190D01*
X125962417Y-65272811D01*
X125977423Y-65236584D01*
X125982044Y-65227939D01*
X126003830Y-65195336D01*
X126010048Y-65187760D01*
X126037760Y-65160048D01*
X126045336Y-65153830D01*
X126077939Y-65132044D01*
X126086584Y-65127423D01*
X126122811Y-65112417D01*
X126132190Y-65109572D01*
X126170637Y-65101924D01*
X126180392Y-65100963D01*
X126200000Y-65100000D01*
X128600000Y-65100000D01*
X128619608Y-65100963D01*
G37*
G36*
X116019608Y-62500963D02*
G01*
X116029363Y-62501924D01*
X116067810Y-62509572D01*
X116077189Y-62512417D01*
X116113416Y-62527423D01*
X116122061Y-62532044D01*
X116154664Y-62553830D01*
X116162240Y-62560048D01*
X116189952Y-62587760D01*
X116196170Y-62595336D01*
X116217956Y-62627939D01*
X116222577Y-62636584D01*
X116237583Y-62672811D01*
X116240428Y-62682190D01*
X116248076Y-62720637D01*
X116249037Y-62730392D01*
X116250000Y-62750000D01*
X116250000Y-64750000D01*
X116249037Y-64769608D01*
X116248076Y-64779363D01*
X116240428Y-64817810D01*
X116237583Y-64827189D01*
X116222577Y-64863416D01*
X116217956Y-64872061D01*
X116196170Y-64904664D01*
X116189952Y-64912240D01*
X116162166Y-64940013D01*
X116154546Y-64946261D01*
X116138675Y-64958013D01*
X115538675Y-65358013D01*
X115521824Y-65368089D01*
X115513175Y-65372700D01*
X115476932Y-65387666D01*
X115467549Y-65390501D01*
X115429212Y-65398095D01*
X115419509Y-65399046D01*
X115400000Y-65400000D01*
X113600000Y-65400000D01*
X113580392Y-65399037D01*
X113570637Y-65398076D01*
X113532190Y-65390428D01*
X113522811Y-65387583D01*
X113486584Y-65372577D01*
X113477939Y-65367956D01*
X113445336Y-65346170D01*
X113437760Y-65339952D01*
X113410048Y-65312240D01*
X113403830Y-65304664D01*
X113382044Y-65272061D01*
X113377423Y-65263416D01*
X113362417Y-65227189D01*
X113359572Y-65217810D01*
X113351924Y-65179363D01*
X113350963Y-65169608D01*
X113350000Y-65150000D01*
X113350000Y-64900000D01*
X112950000Y-64900000D01*
X112910982Y-64896157D01*
X112873463Y-64884776D01*
X112838886Y-64866294D01*
X112808579Y-64841421D01*
X112783706Y-64811114D01*
X112765224Y-64776537D01*
X112753843Y-64739018D01*
X112750000Y-64700000D01*
X112750000Y-63200000D01*
X112753843Y-63160982D01*
X112765224Y-63123463D01*
X112783706Y-63088886D01*
X112808579Y-63058579D01*
X112838886Y-63033706D01*
X112873463Y-63015224D01*
X112910982Y-63003843D01*
X112950000Y-63000000D01*
X113350000Y-63000000D01*
X113350000Y-62750000D01*
X113350963Y-62730392D01*
X113351924Y-62720637D01*
X113359572Y-62682190D01*
X113362417Y-62672811D01*
X113377423Y-62636584D01*
X113382044Y-62627939D01*
X113403830Y-62595336D01*
X113410048Y-62587760D01*
X113437760Y-62560048D01*
X113445336Y-62553830D01*
X113477939Y-62532044D01*
X113486584Y-62527423D01*
X113522811Y-62512417D01*
X113532190Y-62509572D01*
X113570637Y-62501924D01*
X113580392Y-62500963D01*
X113600000Y-62500000D01*
X116000000Y-62500000D01*
X116019608Y-62500963D01*
G37*
D14*
X200310000Y-53960000D03*
X193960000Y-51420000D03*
X199040000Y-51420000D03*
D15*
X196500000Y-56500000D03*
D16*
X201580000Y-56500000D03*
X191420000Y-56500000D03*
D14*
X192690000Y-53959999D03*
D17*
G36*
X204619608Y-52550963D02*
G01*
X204629363Y-52551924D01*
X204667810Y-52559572D01*
X204677189Y-52562417D01*
X204713416Y-52577423D01*
X204722061Y-52582044D01*
X204754664Y-52603830D01*
X204762240Y-52610048D01*
X204789952Y-52637760D01*
X204796170Y-52645336D01*
X204817956Y-52677939D01*
X204822577Y-52686584D01*
X204837583Y-52722811D01*
X204840428Y-52732190D01*
X204848076Y-52770637D01*
X204849037Y-52780392D01*
X204850000Y-52800000D01*
X204850000Y-53050000D01*
X205350000Y-53050000D01*
X205389018Y-53053843D01*
X205426537Y-53065224D01*
X205461114Y-53083706D01*
X205491421Y-53108579D01*
X205516294Y-53138886D01*
X205534776Y-53173463D01*
X205546157Y-53210982D01*
X205550000Y-53250000D01*
X205550000Y-54750000D01*
X205546157Y-54789018D01*
X205534776Y-54826537D01*
X205516294Y-54861114D01*
X205491421Y-54891421D01*
X205461114Y-54916294D01*
X205426537Y-54934776D01*
X205389018Y-54946157D01*
X205350000Y-54950000D01*
X204850000Y-54950000D01*
X204850000Y-55200000D01*
X204849037Y-55219608D01*
X204848076Y-55229363D01*
X204840428Y-55267810D01*
X204837583Y-55277189D01*
X204822577Y-55313416D01*
X204817956Y-55322061D01*
X204796170Y-55354664D01*
X204789952Y-55362240D01*
X204762240Y-55389952D01*
X204754664Y-55396170D01*
X204722061Y-55417956D01*
X204713416Y-55422577D01*
X204677189Y-55437583D01*
X204667810Y-55440428D01*
X204629363Y-55448076D01*
X204619608Y-55449037D01*
X204600000Y-55450000D01*
X202200000Y-55450000D01*
X202180392Y-55449037D01*
X202170637Y-55448076D01*
X202132190Y-55440428D01*
X202122811Y-55437583D01*
X202086584Y-55422577D01*
X202077939Y-55417956D01*
X202045336Y-55396170D01*
X202037760Y-55389952D01*
X202010048Y-55362240D01*
X202003830Y-55354664D01*
X201982044Y-55322061D01*
X201977423Y-55313416D01*
X201962417Y-55277189D01*
X201959572Y-55267810D01*
X201951924Y-55229363D01*
X201950963Y-55219608D01*
X201950000Y-55200000D01*
X201950000Y-52800000D01*
X201950963Y-52780392D01*
X201951924Y-52770637D01*
X201959572Y-52732190D01*
X201962417Y-52722811D01*
X201977423Y-52686584D01*
X201982044Y-52677939D01*
X202003830Y-52645336D01*
X202010048Y-52637760D01*
X202037760Y-52610048D01*
X202045336Y-52603830D01*
X202077939Y-52582044D01*
X202086584Y-52577423D01*
X202122811Y-52562417D01*
X202132190Y-52559572D01*
X202170637Y-52551924D01*
X202180392Y-52550963D01*
X202200000Y-52550000D01*
X204600000Y-52550000D01*
X204619608Y-52550963D01*
G37*
G36*
X192019608Y-49950963D02*
G01*
X192029363Y-49951924D01*
X192067810Y-49959572D01*
X192077189Y-49962417D01*
X192113416Y-49977423D01*
X192122061Y-49982044D01*
X192154664Y-50003830D01*
X192162240Y-50010048D01*
X192189952Y-50037760D01*
X192196170Y-50045336D01*
X192217956Y-50077939D01*
X192222577Y-50086584D01*
X192237583Y-50122811D01*
X192240428Y-50132190D01*
X192248076Y-50170637D01*
X192249037Y-50180392D01*
X192250000Y-50200000D01*
X192250000Y-52200000D01*
X192249037Y-52219608D01*
X192248076Y-52229363D01*
X192240428Y-52267810D01*
X192237583Y-52277189D01*
X192222577Y-52313416D01*
X192217956Y-52322061D01*
X192196170Y-52354664D01*
X192189952Y-52362240D01*
X192162166Y-52390013D01*
X192154546Y-52396261D01*
X192138675Y-52408013D01*
X191538675Y-52808013D01*
X191521824Y-52818089D01*
X191513175Y-52822700D01*
X191476932Y-52837666D01*
X191467549Y-52840501D01*
X191429212Y-52848095D01*
X191419509Y-52849046D01*
X191400000Y-52850000D01*
X189600000Y-52850000D01*
X189580392Y-52849037D01*
X189570637Y-52848076D01*
X189532190Y-52840428D01*
X189522811Y-52837583D01*
X189486584Y-52822577D01*
X189477939Y-52817956D01*
X189445336Y-52796170D01*
X189437760Y-52789952D01*
X189410048Y-52762240D01*
X189403830Y-52754664D01*
X189382044Y-52722061D01*
X189377423Y-52713416D01*
X189362417Y-52677189D01*
X189359572Y-52667810D01*
X189351924Y-52629363D01*
X189350963Y-52619608D01*
X189350000Y-52600000D01*
X189350000Y-52350000D01*
X188950000Y-52350000D01*
X188910982Y-52346157D01*
X188873463Y-52334776D01*
X188838886Y-52316294D01*
X188808579Y-52291421D01*
X188783706Y-52261114D01*
X188765224Y-52226537D01*
X188753843Y-52189018D01*
X188750000Y-52150000D01*
X188750000Y-50650000D01*
X188753843Y-50610982D01*
X188765224Y-50573463D01*
X188783706Y-50538886D01*
X188808579Y-50508579D01*
X188838886Y-50483706D01*
X188873463Y-50465224D01*
X188910982Y-50453843D01*
X188950000Y-50450000D01*
X189350000Y-50450000D01*
X189350000Y-50200000D01*
X189350963Y-50180392D01*
X189351924Y-50170637D01*
X189359572Y-50132190D01*
X189362417Y-50122811D01*
X189377423Y-50086584D01*
X189382044Y-50077939D01*
X189403830Y-50045336D01*
X189410048Y-50037760D01*
X189437760Y-50010048D01*
X189445336Y-50003830D01*
X189477939Y-49982044D01*
X189486584Y-49977423D01*
X189522811Y-49962417D01*
X189532190Y-49959572D01*
X189570637Y-49951924D01*
X189580392Y-49950963D01*
X189600000Y-49950000D01*
X192000000Y-49950000D01*
X192019608Y-49950963D01*
G37*
D14*
X181310000Y-44960000D03*
X174960000Y-42420000D03*
X180040000Y-42420000D03*
D15*
X177500000Y-47500000D03*
D16*
X182580000Y-47500000D03*
X172420000Y-47500000D03*
D14*
X173690000Y-44959999D03*
D17*
G36*
X185619608Y-43550963D02*
G01*
X185629363Y-43551924D01*
X185667810Y-43559572D01*
X185677189Y-43562417D01*
X185713416Y-43577423D01*
X185722061Y-43582044D01*
X185754664Y-43603830D01*
X185762240Y-43610048D01*
X185789952Y-43637760D01*
X185796170Y-43645336D01*
X185817956Y-43677939D01*
X185822577Y-43686584D01*
X185837583Y-43722811D01*
X185840428Y-43732190D01*
X185848076Y-43770637D01*
X185849037Y-43780392D01*
X185850000Y-43800000D01*
X185850000Y-44050000D01*
X186350000Y-44050000D01*
X186389018Y-44053843D01*
X186426537Y-44065224D01*
X186461114Y-44083706D01*
X186491421Y-44108579D01*
X186516294Y-44138886D01*
X186534776Y-44173463D01*
X186546157Y-44210982D01*
X186550000Y-44250000D01*
X186550000Y-45750000D01*
X186546157Y-45789018D01*
X186534776Y-45826537D01*
X186516294Y-45861114D01*
X186491421Y-45891421D01*
X186461114Y-45916294D01*
X186426537Y-45934776D01*
X186389018Y-45946157D01*
X186350000Y-45950000D01*
X185850000Y-45950000D01*
X185850000Y-46200000D01*
X185849037Y-46219608D01*
X185848076Y-46229363D01*
X185840428Y-46267810D01*
X185837583Y-46277189D01*
X185822577Y-46313416D01*
X185817956Y-46322061D01*
X185796170Y-46354664D01*
X185789952Y-46362240D01*
X185762240Y-46389952D01*
X185754664Y-46396170D01*
X185722061Y-46417956D01*
X185713416Y-46422577D01*
X185677189Y-46437583D01*
X185667810Y-46440428D01*
X185629363Y-46448076D01*
X185619608Y-46449037D01*
X185600000Y-46450000D01*
X183200000Y-46450000D01*
X183180392Y-46449037D01*
X183170637Y-46448076D01*
X183132190Y-46440428D01*
X183122811Y-46437583D01*
X183086584Y-46422577D01*
X183077939Y-46417956D01*
X183045336Y-46396170D01*
X183037760Y-46389952D01*
X183010048Y-46362240D01*
X183003830Y-46354664D01*
X182982044Y-46322061D01*
X182977423Y-46313416D01*
X182962417Y-46277189D01*
X182959572Y-46267810D01*
X182951924Y-46229363D01*
X182950963Y-46219608D01*
X182950000Y-46200000D01*
X182950000Y-43800000D01*
X182950963Y-43780392D01*
X182951924Y-43770637D01*
X182959572Y-43732190D01*
X182962417Y-43722811D01*
X182977423Y-43686584D01*
X182982044Y-43677939D01*
X183003830Y-43645336D01*
X183010048Y-43637760D01*
X183037760Y-43610048D01*
X183045336Y-43603830D01*
X183077939Y-43582044D01*
X183086584Y-43577423D01*
X183122811Y-43562417D01*
X183132190Y-43559572D01*
X183170637Y-43551924D01*
X183180392Y-43550963D01*
X183200000Y-43550000D01*
X185600000Y-43550000D01*
X185619608Y-43550963D01*
G37*
G36*
X173019608Y-40950963D02*
G01*
X173029363Y-40951924D01*
X173067810Y-40959572D01*
X173077189Y-40962417D01*
X173113416Y-40977423D01*
X173122061Y-40982044D01*
X173154664Y-41003830D01*
X173162240Y-41010048D01*
X173189952Y-41037760D01*
X173196170Y-41045336D01*
X173217956Y-41077939D01*
X173222577Y-41086584D01*
X173237583Y-41122811D01*
X173240428Y-41132190D01*
X173248076Y-41170637D01*
X173249037Y-41180392D01*
X173250000Y-41200000D01*
X173250000Y-43200000D01*
X173249037Y-43219608D01*
X173248076Y-43229363D01*
X173240428Y-43267810D01*
X173237583Y-43277189D01*
X173222577Y-43313416D01*
X173217956Y-43322061D01*
X173196170Y-43354664D01*
X173189952Y-43362240D01*
X173162166Y-43390013D01*
X173154546Y-43396261D01*
X173138675Y-43408013D01*
X172538675Y-43808013D01*
X172521824Y-43818089D01*
X172513175Y-43822700D01*
X172476932Y-43837666D01*
X172467549Y-43840501D01*
X172429212Y-43848095D01*
X172419509Y-43849046D01*
X172400000Y-43850000D01*
X170600000Y-43850000D01*
X170580392Y-43849037D01*
X170570637Y-43848076D01*
X170532190Y-43840428D01*
X170522811Y-43837583D01*
X170486584Y-43822577D01*
X170477939Y-43817956D01*
X170445336Y-43796170D01*
X170437760Y-43789952D01*
X170410048Y-43762240D01*
X170403830Y-43754664D01*
X170382044Y-43722061D01*
X170377423Y-43713416D01*
X170362417Y-43677189D01*
X170359572Y-43667810D01*
X170351924Y-43629363D01*
X170350963Y-43619608D01*
X170350000Y-43600000D01*
X170350000Y-43350000D01*
X169950000Y-43350000D01*
X169910982Y-43346157D01*
X169873463Y-43334776D01*
X169838886Y-43316294D01*
X169808579Y-43291421D01*
X169783706Y-43261114D01*
X169765224Y-43226537D01*
X169753843Y-43189018D01*
X169750000Y-43150000D01*
X169750000Y-41650000D01*
X169753843Y-41610982D01*
X169765224Y-41573463D01*
X169783706Y-41538886D01*
X169808579Y-41508579D01*
X169838886Y-41483706D01*
X169873463Y-41465224D01*
X169910982Y-41453843D01*
X169950000Y-41450000D01*
X170350000Y-41450000D01*
X170350000Y-41200000D01*
X170350963Y-41180392D01*
X170351924Y-41170637D01*
X170359572Y-41132190D01*
X170362417Y-41122811D01*
X170377423Y-41086584D01*
X170382044Y-41077939D01*
X170403830Y-41045336D01*
X170410048Y-41037760D01*
X170437760Y-41010048D01*
X170445336Y-41003830D01*
X170477939Y-40982044D01*
X170486584Y-40977423D01*
X170522811Y-40962417D01*
X170532190Y-40959572D01*
X170570637Y-40951924D01*
X170580392Y-40950963D01*
X170600000Y-40950000D01*
X173000000Y-40950000D01*
X173019608Y-40950963D01*
G37*
D14*
X162310000Y-42470000D03*
X155960000Y-39930000D03*
X161040000Y-39930000D03*
D15*
X158500000Y-45010000D03*
D16*
X163580000Y-45010000D03*
X153420000Y-45010000D03*
D14*
X154690000Y-42469999D03*
D17*
G36*
X166619608Y-41060963D02*
G01*
X166629363Y-41061924D01*
X166667810Y-41069572D01*
X166677189Y-41072417D01*
X166713416Y-41087423D01*
X166722061Y-41092044D01*
X166754664Y-41113830D01*
X166762240Y-41120048D01*
X166789952Y-41147760D01*
X166796170Y-41155336D01*
X166817956Y-41187939D01*
X166822577Y-41196584D01*
X166837583Y-41232811D01*
X166840428Y-41242190D01*
X166848076Y-41280637D01*
X166849037Y-41290392D01*
X166850000Y-41310000D01*
X166850000Y-41560000D01*
X167350000Y-41560000D01*
X167389018Y-41563843D01*
X167426537Y-41575224D01*
X167461114Y-41593706D01*
X167491421Y-41618579D01*
X167516294Y-41648886D01*
X167534776Y-41683463D01*
X167546157Y-41720982D01*
X167550000Y-41760000D01*
X167550000Y-43260000D01*
X167546157Y-43299018D01*
X167534776Y-43336537D01*
X167516294Y-43371114D01*
X167491421Y-43401421D01*
X167461114Y-43426294D01*
X167426537Y-43444776D01*
X167389018Y-43456157D01*
X167350000Y-43460000D01*
X166850000Y-43460000D01*
X166850000Y-43710000D01*
X166849037Y-43729608D01*
X166848076Y-43739363D01*
X166840428Y-43777810D01*
X166837583Y-43787189D01*
X166822577Y-43823416D01*
X166817956Y-43832061D01*
X166796170Y-43864664D01*
X166789952Y-43872240D01*
X166762240Y-43899952D01*
X166754664Y-43906170D01*
X166722061Y-43927956D01*
X166713416Y-43932577D01*
X166677189Y-43947583D01*
X166667810Y-43950428D01*
X166629363Y-43958076D01*
X166619608Y-43959037D01*
X166600000Y-43960000D01*
X164200000Y-43960000D01*
X164180392Y-43959037D01*
X164170637Y-43958076D01*
X164132190Y-43950428D01*
X164122811Y-43947583D01*
X164086584Y-43932577D01*
X164077939Y-43927956D01*
X164045336Y-43906170D01*
X164037760Y-43899952D01*
X164010048Y-43872240D01*
X164003830Y-43864664D01*
X163982044Y-43832061D01*
X163977423Y-43823416D01*
X163962417Y-43787189D01*
X163959572Y-43777810D01*
X163951924Y-43739363D01*
X163950963Y-43729608D01*
X163950000Y-43710000D01*
X163950000Y-41310000D01*
X163950963Y-41290392D01*
X163951924Y-41280637D01*
X163959572Y-41242190D01*
X163962417Y-41232811D01*
X163977423Y-41196584D01*
X163982044Y-41187939D01*
X164003830Y-41155336D01*
X164010048Y-41147760D01*
X164037760Y-41120048D01*
X164045336Y-41113830D01*
X164077939Y-41092044D01*
X164086584Y-41087423D01*
X164122811Y-41072417D01*
X164132190Y-41069572D01*
X164170637Y-41061924D01*
X164180392Y-41060963D01*
X164200000Y-41060000D01*
X166600000Y-41060000D01*
X166619608Y-41060963D01*
G37*
G36*
X154019608Y-38460963D02*
G01*
X154029363Y-38461924D01*
X154067810Y-38469572D01*
X154077189Y-38472417D01*
X154113416Y-38487423D01*
X154122061Y-38492044D01*
X154154664Y-38513830D01*
X154162240Y-38520048D01*
X154189952Y-38547760D01*
X154196170Y-38555336D01*
X154217956Y-38587939D01*
X154222577Y-38596584D01*
X154237583Y-38632811D01*
X154240428Y-38642190D01*
X154248076Y-38680637D01*
X154249037Y-38690392D01*
X154250000Y-38710000D01*
X154250000Y-40710000D01*
X154249037Y-40729608D01*
X154248076Y-40739363D01*
X154240428Y-40777810D01*
X154237583Y-40787189D01*
X154222577Y-40823416D01*
X154217956Y-40832061D01*
X154196170Y-40864664D01*
X154189952Y-40872240D01*
X154162166Y-40900013D01*
X154154546Y-40906261D01*
X154138675Y-40918013D01*
X153538675Y-41318013D01*
X153521824Y-41328089D01*
X153513175Y-41332700D01*
X153476932Y-41347666D01*
X153467549Y-41350501D01*
X153429212Y-41358095D01*
X153419509Y-41359046D01*
X153400000Y-41360000D01*
X151600000Y-41360000D01*
X151580392Y-41359037D01*
X151570637Y-41358076D01*
X151532190Y-41350428D01*
X151522811Y-41347583D01*
X151486584Y-41332577D01*
X151477939Y-41327956D01*
X151445336Y-41306170D01*
X151437760Y-41299952D01*
X151410048Y-41272240D01*
X151403830Y-41264664D01*
X151382044Y-41232061D01*
X151377423Y-41223416D01*
X151362417Y-41187189D01*
X151359572Y-41177810D01*
X151351924Y-41139363D01*
X151350963Y-41129608D01*
X151350000Y-41110000D01*
X151350000Y-40860000D01*
X150950000Y-40860000D01*
X150910982Y-40856157D01*
X150873463Y-40844776D01*
X150838886Y-40826294D01*
X150808579Y-40801421D01*
X150783706Y-40771114D01*
X150765224Y-40736537D01*
X150753843Y-40699018D01*
X150750000Y-40660000D01*
X150750000Y-39160000D01*
X150753843Y-39120982D01*
X150765224Y-39083463D01*
X150783706Y-39048886D01*
X150808579Y-39018579D01*
X150838886Y-38993706D01*
X150873463Y-38975224D01*
X150910982Y-38963843D01*
X150950000Y-38960000D01*
X151350000Y-38960000D01*
X151350000Y-38710000D01*
X151350963Y-38690392D01*
X151351924Y-38680637D01*
X151359572Y-38642190D01*
X151362417Y-38632811D01*
X151377423Y-38596584D01*
X151382044Y-38587939D01*
X151403830Y-38555336D01*
X151410048Y-38547760D01*
X151437760Y-38520048D01*
X151445336Y-38513830D01*
X151477939Y-38492044D01*
X151486584Y-38487423D01*
X151522811Y-38472417D01*
X151532190Y-38469572D01*
X151570637Y-38461924D01*
X151580392Y-38460963D01*
X151600000Y-38460000D01*
X154000000Y-38460000D01*
X154019608Y-38460963D01*
G37*
D14*
X143310000Y-44960000D03*
X136960000Y-42420000D03*
X142040000Y-42420000D03*
D15*
X139500000Y-47500000D03*
D16*
X144580000Y-47500000D03*
X134420000Y-47500000D03*
D14*
X135690000Y-44959999D03*
D17*
G36*
X147619608Y-43550963D02*
G01*
X147629363Y-43551924D01*
X147667810Y-43559572D01*
X147677189Y-43562417D01*
X147713416Y-43577423D01*
X147722061Y-43582044D01*
X147754664Y-43603830D01*
X147762240Y-43610048D01*
X147789952Y-43637760D01*
X147796170Y-43645336D01*
X147817956Y-43677939D01*
X147822577Y-43686584D01*
X147837583Y-43722811D01*
X147840428Y-43732190D01*
X147848076Y-43770637D01*
X147849037Y-43780392D01*
X147850000Y-43800000D01*
X147850000Y-44050000D01*
X148350000Y-44050000D01*
X148389018Y-44053843D01*
X148426537Y-44065224D01*
X148461114Y-44083706D01*
X148491421Y-44108579D01*
X148516294Y-44138886D01*
X148534776Y-44173463D01*
X148546157Y-44210982D01*
X148550000Y-44250000D01*
X148550000Y-45750000D01*
X148546157Y-45789018D01*
X148534776Y-45826537D01*
X148516294Y-45861114D01*
X148491421Y-45891421D01*
X148461114Y-45916294D01*
X148426537Y-45934776D01*
X148389018Y-45946157D01*
X148350000Y-45950000D01*
X147850000Y-45950000D01*
X147850000Y-46200000D01*
X147849037Y-46219608D01*
X147848076Y-46229363D01*
X147840428Y-46267810D01*
X147837583Y-46277189D01*
X147822577Y-46313416D01*
X147817956Y-46322061D01*
X147796170Y-46354664D01*
X147789952Y-46362240D01*
X147762240Y-46389952D01*
X147754664Y-46396170D01*
X147722061Y-46417956D01*
X147713416Y-46422577D01*
X147677189Y-46437583D01*
X147667810Y-46440428D01*
X147629363Y-46448076D01*
X147619608Y-46449037D01*
X147600000Y-46450000D01*
X145200000Y-46450000D01*
X145180392Y-46449037D01*
X145170637Y-46448076D01*
X145132190Y-46440428D01*
X145122811Y-46437583D01*
X145086584Y-46422577D01*
X145077939Y-46417956D01*
X145045336Y-46396170D01*
X145037760Y-46389952D01*
X145010048Y-46362240D01*
X145003830Y-46354664D01*
X144982044Y-46322061D01*
X144977423Y-46313416D01*
X144962417Y-46277189D01*
X144959572Y-46267810D01*
X144951924Y-46229363D01*
X144950963Y-46219608D01*
X144950000Y-46200000D01*
X144950000Y-43800000D01*
X144950963Y-43780392D01*
X144951924Y-43770637D01*
X144959572Y-43732190D01*
X144962417Y-43722811D01*
X144977423Y-43686584D01*
X144982044Y-43677939D01*
X145003830Y-43645336D01*
X145010048Y-43637760D01*
X145037760Y-43610048D01*
X145045336Y-43603830D01*
X145077939Y-43582044D01*
X145086584Y-43577423D01*
X145122811Y-43562417D01*
X145132190Y-43559572D01*
X145170637Y-43551924D01*
X145180392Y-43550963D01*
X145200000Y-43550000D01*
X147600000Y-43550000D01*
X147619608Y-43550963D01*
G37*
G36*
X135019608Y-40950963D02*
G01*
X135029363Y-40951924D01*
X135067810Y-40959572D01*
X135077189Y-40962417D01*
X135113416Y-40977423D01*
X135122061Y-40982044D01*
X135154664Y-41003830D01*
X135162240Y-41010048D01*
X135189952Y-41037760D01*
X135196170Y-41045336D01*
X135217956Y-41077939D01*
X135222577Y-41086584D01*
X135237583Y-41122811D01*
X135240428Y-41132190D01*
X135248076Y-41170637D01*
X135249037Y-41180392D01*
X135250000Y-41200000D01*
X135250000Y-43200000D01*
X135249037Y-43219608D01*
X135248076Y-43229363D01*
X135240428Y-43267810D01*
X135237583Y-43277189D01*
X135222577Y-43313416D01*
X135217956Y-43322061D01*
X135196170Y-43354664D01*
X135189952Y-43362240D01*
X135162166Y-43390013D01*
X135154546Y-43396261D01*
X135138675Y-43408013D01*
X134538675Y-43808013D01*
X134521824Y-43818089D01*
X134513175Y-43822700D01*
X134476932Y-43837666D01*
X134467549Y-43840501D01*
X134429212Y-43848095D01*
X134419509Y-43849046D01*
X134400000Y-43850000D01*
X132600000Y-43850000D01*
X132580392Y-43849037D01*
X132570637Y-43848076D01*
X132532190Y-43840428D01*
X132522811Y-43837583D01*
X132486584Y-43822577D01*
X132477939Y-43817956D01*
X132445336Y-43796170D01*
X132437760Y-43789952D01*
X132410048Y-43762240D01*
X132403830Y-43754664D01*
X132382044Y-43722061D01*
X132377423Y-43713416D01*
X132362417Y-43677189D01*
X132359572Y-43667810D01*
X132351924Y-43629363D01*
X132350963Y-43619608D01*
X132350000Y-43600000D01*
X132350000Y-43350000D01*
X131950000Y-43350000D01*
X131910982Y-43346157D01*
X131873463Y-43334776D01*
X131838886Y-43316294D01*
X131808579Y-43291421D01*
X131783706Y-43261114D01*
X131765224Y-43226537D01*
X131753843Y-43189018D01*
X131750000Y-43150000D01*
X131750000Y-41650000D01*
X131753843Y-41610982D01*
X131765224Y-41573463D01*
X131783706Y-41538886D01*
X131808579Y-41508579D01*
X131838886Y-41483706D01*
X131873463Y-41465224D01*
X131910982Y-41453843D01*
X131950000Y-41450000D01*
X132350000Y-41450000D01*
X132350000Y-41200000D01*
X132350963Y-41180392D01*
X132351924Y-41170637D01*
X132359572Y-41132190D01*
X132362417Y-41122811D01*
X132377423Y-41086584D01*
X132382044Y-41077939D01*
X132403830Y-41045336D01*
X132410048Y-41037760D01*
X132437760Y-41010048D01*
X132445336Y-41003830D01*
X132477939Y-40982044D01*
X132486584Y-40977423D01*
X132522811Y-40962417D01*
X132532190Y-40959572D01*
X132570637Y-40951924D01*
X132580392Y-40950963D01*
X132600000Y-40950000D01*
X135000000Y-40950000D01*
X135019608Y-40950963D01*
G37*
D14*
X124310000Y-47460000D03*
X117960000Y-44920000D03*
X123040000Y-44920000D03*
D15*
X120500000Y-50000000D03*
D16*
X125580000Y-50000000D03*
X115420000Y-50000000D03*
D14*
X116690000Y-47459999D03*
D17*
G36*
X128619608Y-46050963D02*
G01*
X128629363Y-46051924D01*
X128667810Y-46059572D01*
X128677189Y-46062417D01*
X128713416Y-46077423D01*
X128722061Y-46082044D01*
X128754664Y-46103830D01*
X128762240Y-46110048D01*
X128789952Y-46137760D01*
X128796170Y-46145336D01*
X128817956Y-46177939D01*
X128822577Y-46186584D01*
X128837583Y-46222811D01*
X128840428Y-46232190D01*
X128848076Y-46270637D01*
X128849037Y-46280392D01*
X128850000Y-46300000D01*
X128850000Y-46550000D01*
X129350000Y-46550000D01*
X129389018Y-46553843D01*
X129426537Y-46565224D01*
X129461114Y-46583706D01*
X129491421Y-46608579D01*
X129516294Y-46638886D01*
X129534776Y-46673463D01*
X129546157Y-46710982D01*
X129550000Y-46750000D01*
X129550000Y-48250000D01*
X129546157Y-48289018D01*
X129534776Y-48326537D01*
X129516294Y-48361114D01*
X129491421Y-48391421D01*
X129461114Y-48416294D01*
X129426537Y-48434776D01*
X129389018Y-48446157D01*
X129350000Y-48450000D01*
X128850000Y-48450000D01*
X128850000Y-48700000D01*
X128849037Y-48719608D01*
X128848076Y-48729363D01*
X128840428Y-48767810D01*
X128837583Y-48777189D01*
X128822577Y-48813416D01*
X128817956Y-48822061D01*
X128796170Y-48854664D01*
X128789952Y-48862240D01*
X128762240Y-48889952D01*
X128754664Y-48896170D01*
X128722061Y-48917956D01*
X128713416Y-48922577D01*
X128677189Y-48937583D01*
X128667810Y-48940428D01*
X128629363Y-48948076D01*
X128619608Y-48949037D01*
X128600000Y-48950000D01*
X126200000Y-48950000D01*
X126180392Y-48949037D01*
X126170637Y-48948076D01*
X126132190Y-48940428D01*
X126122811Y-48937583D01*
X126086584Y-48922577D01*
X126077939Y-48917956D01*
X126045336Y-48896170D01*
X126037760Y-48889952D01*
X126010048Y-48862240D01*
X126003830Y-48854664D01*
X125982044Y-48822061D01*
X125977423Y-48813416D01*
X125962417Y-48777189D01*
X125959572Y-48767810D01*
X125951924Y-48729363D01*
X125950963Y-48719608D01*
X125950000Y-48700000D01*
X125950000Y-46300000D01*
X125950963Y-46280392D01*
X125951924Y-46270637D01*
X125959572Y-46232190D01*
X125962417Y-46222811D01*
X125977423Y-46186584D01*
X125982044Y-46177939D01*
X126003830Y-46145336D01*
X126010048Y-46137760D01*
X126037760Y-46110048D01*
X126045336Y-46103830D01*
X126077939Y-46082044D01*
X126086584Y-46077423D01*
X126122811Y-46062417D01*
X126132190Y-46059572D01*
X126170637Y-46051924D01*
X126180392Y-46050963D01*
X126200000Y-46050000D01*
X128600000Y-46050000D01*
X128619608Y-46050963D01*
G37*
G36*
X116019608Y-43450963D02*
G01*
X116029363Y-43451924D01*
X116067810Y-43459572D01*
X116077189Y-43462417D01*
X116113416Y-43477423D01*
X116122061Y-43482044D01*
X116154664Y-43503830D01*
X116162240Y-43510048D01*
X116189952Y-43537760D01*
X116196170Y-43545336D01*
X116217956Y-43577939D01*
X116222577Y-43586584D01*
X116237583Y-43622811D01*
X116240428Y-43632190D01*
X116248076Y-43670637D01*
X116249037Y-43680392D01*
X116250000Y-43700000D01*
X116250000Y-45700000D01*
X116249037Y-45719608D01*
X116248076Y-45729363D01*
X116240428Y-45767810D01*
X116237583Y-45777189D01*
X116222577Y-45813416D01*
X116217956Y-45822061D01*
X116196170Y-45854664D01*
X116189952Y-45862240D01*
X116162166Y-45890013D01*
X116154546Y-45896261D01*
X116138675Y-45908013D01*
X115538675Y-46308013D01*
X115521824Y-46318089D01*
X115513175Y-46322700D01*
X115476932Y-46337666D01*
X115467549Y-46340501D01*
X115429212Y-46348095D01*
X115419509Y-46349046D01*
X115400000Y-46350000D01*
X113600000Y-46350000D01*
X113580392Y-46349037D01*
X113570637Y-46348076D01*
X113532190Y-46340428D01*
X113522811Y-46337583D01*
X113486584Y-46322577D01*
X113477939Y-46317956D01*
X113445336Y-46296170D01*
X113437760Y-46289952D01*
X113410048Y-46262240D01*
X113403830Y-46254664D01*
X113382044Y-46222061D01*
X113377423Y-46213416D01*
X113362417Y-46177189D01*
X113359572Y-46167810D01*
X113351924Y-46129363D01*
X113350963Y-46119608D01*
X113350000Y-46100000D01*
X113350000Y-45850000D01*
X112950000Y-45850000D01*
X112910982Y-45846157D01*
X112873463Y-45834776D01*
X112838886Y-45816294D01*
X112808579Y-45791421D01*
X112783706Y-45761114D01*
X112765224Y-45726537D01*
X112753843Y-45689018D01*
X112750000Y-45650000D01*
X112750000Y-44150000D01*
X112753843Y-44110982D01*
X112765224Y-44073463D01*
X112783706Y-44038886D01*
X112808579Y-44008579D01*
X112838886Y-43983706D01*
X112873463Y-43965224D01*
X112910982Y-43953843D01*
X112950000Y-43950000D01*
X113350000Y-43950000D01*
X113350000Y-43700000D01*
X113350963Y-43680392D01*
X113351924Y-43670637D01*
X113359572Y-43632190D01*
X113362417Y-43622811D01*
X113377423Y-43586584D01*
X113382044Y-43577939D01*
X113403830Y-43545336D01*
X113410048Y-43537760D01*
X113437760Y-43510048D01*
X113445336Y-43503830D01*
X113477939Y-43482044D01*
X113486584Y-43477423D01*
X113522811Y-43462417D01*
X113532190Y-43459572D01*
X113570637Y-43451924D01*
X113580392Y-43450963D01*
X113600000Y-43450000D01*
X116000000Y-43450000D01*
X116019608Y-43450963D01*
G37*
G36*
G01*
X178100000Y-97400000D02*
X178100000Y-95900000D01*
G75*
G02*
X178300000Y-95700000I200000J0D01*
G01*
X180100000Y-95700000D01*
G75*
G02*
X180300000Y-95900000I0J-200000D01*
G01*
X180300000Y-97400000D01*
G75*
G02*
X180100000Y-97600000I-200000J0D01*
G01*
X178300000Y-97600000D01*
G75*
G02*
X178100000Y-97400000I0J200000D01*
G01*
G37*
G36*
G01*
X174700000Y-97400000D02*
X174700000Y-95900000D01*
G75*
G02*
X174900000Y-95700000I200000J0D01*
G01*
X176700000Y-95700000D01*
G75*
G02*
X176900000Y-95900000I0J-200000D01*
G01*
X176900000Y-97400000D01*
G75*
G02*
X176700000Y-97600000I-200000J0D01*
G01*
X174900000Y-97600000D01*
G75*
G02*
X174700000Y-97400000I0J200000D01*
G01*
G37*
G36*
G01*
X155750000Y-97450000D02*
X155750000Y-95950000D01*
G75*
G02*
X155950000Y-95750000I200000J0D01*
G01*
X157750000Y-95750000D01*
G75*
G02*
X157950000Y-95950000I0J-200000D01*
G01*
X157950000Y-97450000D01*
G75*
G02*
X157750000Y-97650000I-200000J0D01*
G01*
X155950000Y-97650000D01*
G75*
G02*
X155750000Y-97450000I0J200000D01*
G01*
G37*
G36*
G01*
X159150000Y-97450000D02*
X159150000Y-95950000D01*
G75*
G02*
X159350000Y-95750000I200000J0D01*
G01*
X161150000Y-95750000D01*
G75*
G02*
X161350000Y-95950000I0J-200000D01*
G01*
X161350000Y-97450000D01*
G75*
G02*
X161150000Y-97650000I-200000J0D01*
G01*
X159350000Y-97650000D01*
G75*
G02*
X159150000Y-97450000I0J200000D01*
G01*
G37*
G36*
G01*
X136077139Y-99942097D02*
X135739713Y-98480542D01*
G75*
G02*
X135889597Y-98240678I194874J44990D01*
G01*
X137643463Y-97835767D01*
G75*
G02*
X137883327Y-97985651I44990J-194874D01*
G01*
X138220753Y-99447206D01*
G75*
G02*
X138070869Y-99687070I-194874J-44990D01*
G01*
X136317003Y-100091981D01*
G75*
G02*
X136077139Y-99942097I-44990J194874D01*
G01*
G37*
G36*
G01*
X132764281Y-100706931D02*
X132426855Y-99245376D01*
G75*
G02*
X132576739Y-99005512I194874J44990D01*
G01*
X134330605Y-98600601D01*
G75*
G02*
X134570469Y-98750485I44990J-194874D01*
G01*
X134907895Y-100212040D01*
G75*
G02*
X134758011Y-100451904I-194874J-44990D01*
G01*
X133004145Y-100856815D01*
G75*
G02*
X132764281Y-100706931I-44990J194874D01*
G01*
G37*
G36*
G01*
X114156234Y-107560588D02*
X113498677Y-106212396D01*
G75*
G02*
X113590762Y-105944963I179759J87674D01*
G01*
X115208591Y-105155895D01*
G75*
G02*
X115476024Y-105247980I87674J-179759D01*
G01*
X116133581Y-106596172D01*
G75*
G02*
X116041496Y-106863605I-179759J-87674D01*
G01*
X114423667Y-107652673D01*
G75*
G02*
X114156234Y-107560588I-87674J179759D01*
G01*
G37*
G36*
G01*
X111100334Y-109051050D02*
X110442777Y-107702858D01*
G75*
G02*
X110534862Y-107435425I179759J87674D01*
G01*
X112152691Y-106646357D01*
G75*
G02*
X112420124Y-106738442I87674J-179759D01*
G01*
X113077681Y-108086634D01*
G75*
G02*
X112985596Y-108354067I-179759J-87674D01*
G01*
X111367767Y-109143135D01*
G75*
G02*
X111100334Y-109051050I-87674J179759D01*
G01*
G37*
G36*
G01*
X94510948Y-119914946D02*
X93566967Y-118749227D01*
G75*
G02*
X93596532Y-118467934I155429J125864D01*
G01*
X94995395Y-117335157D01*
G75*
G02*
X95276688Y-117364722I125864J-155429D01*
G01*
X96220669Y-118530441D01*
G75*
G02*
X96191104Y-118811734I-155429J-125864D01*
G01*
X94792241Y-119944511D01*
G75*
G02*
X94510948Y-119914946I-125864J155429D01*
G01*
G37*
G36*
G01*
X91868652Y-122054636D02*
X90924671Y-120888917D01*
G75*
G02*
X90954236Y-120607624I155429J125864D01*
G01*
X92353099Y-119474847D01*
G75*
G02*
X92634392Y-119504412I125864J-155429D01*
G01*
X93578373Y-120670131D01*
G75*
G02*
X93548808Y-120951424I-155429J-125864D01*
G01*
X92149945Y-122084201D01*
G75*
G02*
X91868652Y-122054636I-125864J155429D01*
G01*
G37*
G36*
G01*
X197100000Y-87200000D02*
X197100000Y-85700000D01*
G75*
G02*
X197300000Y-85500000I200000J0D01*
G01*
X199100000Y-85500000D01*
G75*
G02*
X199300000Y-85700000I0J-200000D01*
G01*
X199300000Y-87200000D01*
G75*
G02*
X199100000Y-87400000I-200000J0D01*
G01*
X197300000Y-87400000D01*
G75*
G02*
X197100000Y-87200000I0J200000D01*
G01*
G37*
G36*
G01*
X193700000Y-87200000D02*
X193700000Y-85700000D01*
G75*
G02*
X193900000Y-85500000I200000J0D01*
G01*
X195700000Y-85500000D01*
G75*
G02*
X195900000Y-85700000I0J-200000D01*
G01*
X195900000Y-87200000D01*
G75*
G02*
X195700000Y-87400000I-200000J0D01*
G01*
X193900000Y-87400000D01*
G75*
G02*
X193700000Y-87200000I0J200000D01*
G01*
G37*
G36*
G01*
X178100000Y-94300000D02*
X178100000Y-92800000D01*
G75*
G02*
X178300000Y-92600000I200000J0D01*
G01*
X180100000Y-92600000D01*
G75*
G02*
X180300000Y-92800000I0J-200000D01*
G01*
X180300000Y-94300000D01*
G75*
G02*
X180100000Y-94500000I-200000J0D01*
G01*
X178300000Y-94500000D01*
G75*
G02*
X178100000Y-94300000I0J200000D01*
G01*
G37*
G36*
G01*
X174700000Y-94300000D02*
X174700000Y-92800000D01*
G75*
G02*
X174900000Y-92600000I200000J0D01*
G01*
X176700000Y-92600000D01*
G75*
G02*
X176900000Y-92800000I0J-200000D01*
G01*
X176900000Y-94300000D01*
G75*
G02*
X176700000Y-94500000I-200000J0D01*
G01*
X174900000Y-94500000D01*
G75*
G02*
X174700000Y-94300000I0J200000D01*
G01*
G37*
G36*
G01*
X159100000Y-91900000D02*
X159100000Y-90400000D01*
G75*
G02*
X159300000Y-90200000I200000J0D01*
G01*
X161100000Y-90200000D01*
G75*
G02*
X161300000Y-90400000I0J-200000D01*
G01*
X161300000Y-91900000D01*
G75*
G02*
X161100000Y-92100000I-200000J0D01*
G01*
X159300000Y-92100000D01*
G75*
G02*
X159100000Y-91900000I0J200000D01*
G01*
G37*
G36*
G01*
X155700000Y-91900000D02*
X155700000Y-90400000D01*
G75*
G02*
X155900000Y-90200000I200000J0D01*
G01*
X157700000Y-90200000D01*
G75*
G02*
X157900000Y-90400000I0J-200000D01*
G01*
X157900000Y-91900000D01*
G75*
G02*
X157700000Y-92100000I-200000J0D01*
G01*
X155900000Y-92100000D01*
G75*
G02*
X155700000Y-91900000I0J200000D01*
G01*
G37*
G36*
G01*
X140100000Y-94400000D02*
X140100000Y-92900000D01*
G75*
G02*
X140300000Y-92700000I200000J0D01*
G01*
X142100000Y-92700000D01*
G75*
G02*
X142300000Y-92900000I0J-200000D01*
G01*
X142300000Y-94400000D01*
G75*
G02*
X142100000Y-94600000I-200000J0D01*
G01*
X140300000Y-94600000D01*
G75*
G02*
X140100000Y-94400000I0J200000D01*
G01*
G37*
G36*
G01*
X136700000Y-94400000D02*
X136700000Y-92900000D01*
G75*
G02*
X136900000Y-92700000I200000J0D01*
G01*
X138700000Y-92700000D01*
G75*
G02*
X138900000Y-92900000I0J-200000D01*
G01*
X138900000Y-94400000D01*
G75*
G02*
X138700000Y-94600000I-200000J0D01*
G01*
X136900000Y-94600000D01*
G75*
G02*
X136700000Y-94400000I0J200000D01*
G01*
G37*
G36*
G01*
X121100000Y-96900000D02*
X121100000Y-95400000D01*
G75*
G02*
X121300000Y-95200000I200000J0D01*
G01*
X123100000Y-95200000D01*
G75*
G02*
X123300000Y-95400000I0J-200000D01*
G01*
X123300000Y-96900000D01*
G75*
G02*
X123100000Y-97100000I-200000J0D01*
G01*
X121300000Y-97100000D01*
G75*
G02*
X121100000Y-96900000I0J200000D01*
G01*
G37*
G36*
G01*
X117700000Y-96900000D02*
X117700000Y-95400000D01*
G75*
G02*
X117900000Y-95200000I200000J0D01*
G01*
X119700000Y-95200000D01*
G75*
G02*
X119900000Y-95400000I0J-200000D01*
G01*
X119900000Y-96900000D01*
G75*
G02*
X119700000Y-97100000I-200000J0D01*
G01*
X117900000Y-97100000D01*
G75*
G02*
X117700000Y-96900000I0J200000D01*
G01*
G37*
G36*
G01*
X197100000Y-68300000D02*
X197100000Y-66800000D01*
G75*
G02*
X197300000Y-66600000I200000J0D01*
G01*
X199100000Y-66600000D01*
G75*
G02*
X199300000Y-66800000I0J-200000D01*
G01*
X199300000Y-68300000D01*
G75*
G02*
X199100000Y-68500000I-200000J0D01*
G01*
X197300000Y-68500000D01*
G75*
G02*
X197100000Y-68300000I0J200000D01*
G01*
G37*
G36*
G01*
X193700000Y-68300000D02*
X193700000Y-66800000D01*
G75*
G02*
X193900000Y-66600000I200000J0D01*
G01*
X195700000Y-66600000D01*
G75*
G02*
X195900000Y-66800000I0J-200000D01*
G01*
X195900000Y-68300000D01*
G75*
G02*
X195700000Y-68500000I-200000J0D01*
G01*
X193900000Y-68500000D01*
G75*
G02*
X193700000Y-68300000I0J200000D01*
G01*
G37*
G36*
G01*
X178100000Y-59300000D02*
X178100000Y-57800000D01*
G75*
G02*
X178300000Y-57600000I200000J0D01*
G01*
X180100000Y-57600000D01*
G75*
G02*
X180300000Y-57800000I0J-200000D01*
G01*
X180300000Y-59300000D01*
G75*
G02*
X180100000Y-59500000I-200000J0D01*
G01*
X178300000Y-59500000D01*
G75*
G02*
X178100000Y-59300000I0J200000D01*
G01*
G37*
G36*
G01*
X174700000Y-59300000D02*
X174700000Y-57800000D01*
G75*
G02*
X174900000Y-57600000I200000J0D01*
G01*
X176700000Y-57600000D01*
G75*
G02*
X176900000Y-57800000I0J-200000D01*
G01*
X176900000Y-59300000D01*
G75*
G02*
X176700000Y-59500000I-200000J0D01*
G01*
X174900000Y-59500000D01*
G75*
G02*
X174700000Y-59300000I0J200000D01*
G01*
G37*
G36*
G01*
X159100000Y-56810000D02*
X159100000Y-55310000D01*
G75*
G02*
X159300000Y-55110000I200000J0D01*
G01*
X161100000Y-55110000D01*
G75*
G02*
X161300000Y-55310000I0J-200000D01*
G01*
X161300000Y-56810000D01*
G75*
G02*
X161100000Y-57010000I-200000J0D01*
G01*
X159300000Y-57010000D01*
G75*
G02*
X159100000Y-56810000I0J200000D01*
G01*
G37*
G36*
G01*
X155700000Y-56810000D02*
X155700000Y-55310000D01*
G75*
G02*
X155900000Y-55110000I200000J0D01*
G01*
X157700000Y-55110000D01*
G75*
G02*
X157900000Y-55310000I0J-200000D01*
G01*
X157900000Y-56810000D01*
G75*
G02*
X157700000Y-57010000I-200000J0D01*
G01*
X155900000Y-57010000D01*
G75*
G02*
X155700000Y-56810000I0J200000D01*
G01*
G37*
G36*
G01*
X140100000Y-59300000D02*
X140100000Y-57800000D01*
G75*
G02*
X140300000Y-57600000I200000J0D01*
G01*
X142100000Y-57600000D01*
G75*
G02*
X142300000Y-57800000I0J-200000D01*
G01*
X142300000Y-59300000D01*
G75*
G02*
X142100000Y-59500000I-200000J0D01*
G01*
X140300000Y-59500000D01*
G75*
G02*
X140100000Y-59300000I0J200000D01*
G01*
G37*
G36*
G01*
X136700000Y-59300000D02*
X136700000Y-57800000D01*
G75*
G02*
X136900000Y-57600000I200000J0D01*
G01*
X138700000Y-57600000D01*
G75*
G02*
X138900000Y-57800000I0J-200000D01*
G01*
X138900000Y-59300000D01*
G75*
G02*
X138700000Y-59500000I-200000J0D01*
G01*
X136900000Y-59500000D01*
G75*
G02*
X136700000Y-59300000I0J200000D01*
G01*
G37*
G36*
G01*
X121100000Y-61800000D02*
X121100000Y-60300000D01*
G75*
G02*
X121300000Y-60100000I200000J0D01*
G01*
X123100000Y-60100000D01*
G75*
G02*
X123300000Y-60300000I0J-200000D01*
G01*
X123300000Y-61800000D01*
G75*
G02*
X123100000Y-62000000I-200000J0D01*
G01*
X121300000Y-62000000D01*
G75*
G02*
X121100000Y-61800000I0J200000D01*
G01*
G37*
G36*
G01*
X117700000Y-61800000D02*
X117700000Y-60300000D01*
G75*
G02*
X117900000Y-60100000I200000J0D01*
G01*
X119700000Y-60100000D01*
G75*
G02*
X119900000Y-60300000I0J-200000D01*
G01*
X119900000Y-61800000D01*
G75*
G02*
X119700000Y-62000000I-200000J0D01*
G01*
X117900000Y-62000000D01*
G75*
G02*
X117700000Y-61800000I0J200000D01*
G01*
G37*
G36*
G01*
X197100000Y-49250000D02*
X197100000Y-47750000D01*
G75*
G02*
X197300000Y-47550000I200000J0D01*
G01*
X199100000Y-47550000D01*
G75*
G02*
X199300000Y-47750000I0J-200000D01*
G01*
X199300000Y-49250000D01*
G75*
G02*
X199100000Y-49450000I-200000J0D01*
G01*
X197300000Y-49450000D01*
G75*
G02*
X197100000Y-49250000I0J200000D01*
G01*
G37*
G36*
G01*
X193700000Y-49250000D02*
X193700000Y-47750000D01*
G75*
G02*
X193900000Y-47550000I200000J0D01*
G01*
X195700000Y-47550000D01*
G75*
G02*
X195900000Y-47750000I0J-200000D01*
G01*
X195900000Y-49250000D01*
G75*
G02*
X195700000Y-49450000I-200000J0D01*
G01*
X193900000Y-49450000D01*
G75*
G02*
X193700000Y-49250000I0J200000D01*
G01*
G37*
G36*
G01*
X178100000Y-56250000D02*
X178100000Y-54750000D01*
G75*
G02*
X178300000Y-54550000I200000J0D01*
G01*
X180100000Y-54550000D01*
G75*
G02*
X180300000Y-54750000I0J-200000D01*
G01*
X180300000Y-56250000D01*
G75*
G02*
X180100000Y-56450000I-200000J0D01*
G01*
X178300000Y-56450000D01*
G75*
G02*
X178100000Y-56250000I0J200000D01*
G01*
G37*
G36*
G01*
X174700000Y-56250000D02*
X174700000Y-54750000D01*
G75*
G02*
X174900000Y-54550000I200000J0D01*
G01*
X176700000Y-54550000D01*
G75*
G02*
X176900000Y-54750000I0J-200000D01*
G01*
X176900000Y-56250000D01*
G75*
G02*
X176700000Y-56450000I-200000J0D01*
G01*
X174900000Y-56450000D01*
G75*
G02*
X174700000Y-56250000I0J200000D01*
G01*
G37*
G36*
G01*
X159100000Y-53760000D02*
X159100000Y-52260000D01*
G75*
G02*
X159300000Y-52060000I200000J0D01*
G01*
X161100000Y-52060000D01*
G75*
G02*
X161300000Y-52260000I0J-200000D01*
G01*
X161300000Y-53760000D01*
G75*
G02*
X161100000Y-53960000I-200000J0D01*
G01*
X159300000Y-53960000D01*
G75*
G02*
X159100000Y-53760000I0J200000D01*
G01*
G37*
G36*
G01*
X155700000Y-53760000D02*
X155700000Y-52260000D01*
G75*
G02*
X155900000Y-52060000I200000J0D01*
G01*
X157700000Y-52060000D01*
G75*
G02*
X157900000Y-52260000I0J-200000D01*
G01*
X157900000Y-53760000D01*
G75*
G02*
X157700000Y-53960000I-200000J0D01*
G01*
X155900000Y-53960000D01*
G75*
G02*
X155700000Y-53760000I0J200000D01*
G01*
G37*
G36*
G01*
X140100000Y-56250000D02*
X140100000Y-54750000D01*
G75*
G02*
X140300000Y-54550000I200000J0D01*
G01*
X142100000Y-54550000D01*
G75*
G02*
X142300000Y-54750000I0J-200000D01*
G01*
X142300000Y-56250000D01*
G75*
G02*
X142100000Y-56450000I-200000J0D01*
G01*
X140300000Y-56450000D01*
G75*
G02*
X140100000Y-56250000I0J200000D01*
G01*
G37*
G36*
G01*
X136700000Y-56250000D02*
X136700000Y-54750000D01*
G75*
G02*
X136900000Y-54550000I200000J0D01*
G01*
X138700000Y-54550000D01*
G75*
G02*
X138900000Y-54750000I0J-200000D01*
G01*
X138900000Y-56250000D01*
G75*
G02*
X138700000Y-56450000I-200000J0D01*
G01*
X136900000Y-56450000D01*
G75*
G02*
X136700000Y-56250000I0J200000D01*
G01*
G37*
G36*
G01*
X121100000Y-58750000D02*
X121100000Y-57250000D01*
G75*
G02*
X121300000Y-57050000I200000J0D01*
G01*
X123100000Y-57050000D01*
G75*
G02*
X123300000Y-57250000I0J-200000D01*
G01*
X123300000Y-58750000D01*
G75*
G02*
X123100000Y-58950000I-200000J0D01*
G01*
X121300000Y-58950000D01*
G75*
G02*
X121100000Y-58750000I0J200000D01*
G01*
G37*
G36*
G01*
X117700000Y-58750000D02*
X117700000Y-57250000D01*
G75*
G02*
X117900000Y-57050000I200000J0D01*
G01*
X119700000Y-57050000D01*
G75*
G02*
X119900000Y-57250000I0J-200000D01*
G01*
X119900000Y-58750000D01*
G75*
G02*
X119700000Y-58950000I-200000J0D01*
G01*
X117900000Y-58950000D01*
G75*
G02*
X117700000Y-58750000I0J200000D01*
G01*
G37*
D18*
X185674000Y-95123000D03*
X147828000Y-105918000D03*
X129159000Y-59563000D03*
X107950000Y-120269000D03*
X185674000Y-57023000D03*
M02*
